<?xml version="1.0" encoding="UTF-8"?>
<!DOCTYPE svg PUBLIC "-//W3C//DTD SVG 1.1//EN" "http://www.w3.org/Graphics/SVG/1.1/DTD/svg11.dtd">
<svg version="1.2" width="215.9mm" height="279.4mm" viewBox="0 0 21590 27940" preserveAspectRatio="xMidYMid" fill-rule="evenodd" stroke-width="28.222" stroke-linejoin="round" xmlns="http://www.w3.org/2000/svg" xmlns:ooo="http://xml.openoffice.org/svg/export" xmlns:xlink="http://www.w3.org/1999/xlink" xmlns:presentation="http://sun.com/xmlns/staroffice/presentation" xmlns:smil="http://www.w3.org/2001/SMIL20/" xmlns:anim="urn:oasis:names:tc:opendocument:xmlns:animation:1.0" xml:space="preserve">
 <defs class="ClipPathGroup">
  <clipPath id="presentation_clip_path" clipPathUnits="userSpaceOnUse">
   <rect x="0" y="0" width="21590" height="27940"/>
  </clipPath>
  <clipPath id="presentation_clip_path_shrink" clipPathUnits="userSpaceOnUse">
   <rect x="21" y="27" width="21547" height="27885"/>
  </clipPath>
 </defs>
 <defs class="TextShapeIndex">
  <g ooo:slide="id1" ooo:id-list="id3 id4 id5 id6 id7 id8 id9 id10 id11 id12 id13 id14 id15 id16 id17 id18 id19 id20 id21 id22 id23 id24 id25 id26 id27 id28 id29 id30 id31 id32 id33 id34 id35 id36 id37 id38 id39 id40 id41 id42 id43 id44 id45 id46 id47 id48 id49 id50 id51 id52 id53 id54 id55 id56 id57 id58 id59 id60 id61 id62 id63 id64 id65 id66 id67 id68 id69 id70 id71 id72 id73 id74 id75 id76 id77 id78 id79 id80 id81 id82 id83 id84 id85 id86 id87 id88 id89 id90 id91 id92 id93 id94 id95"/>
 </defs>
 <defs class="EmbeddedBulletChars">
  <g id="bullet-char-template-57356" transform="scale(0.00048828125,-0.00048828125)">
   <path d="M 580,1141 L 1163,571 580,0 -4,571 580,1141 Z"/>
  </g>
  <g id="bullet-char-template-57354" transform="scale(0.00048828125,-0.00048828125)">
   <path d="M 8,1128 L 1137,1128 1137,0 8,0 8,1128 Z"/>
  </g>
  <g id="bullet-char-template-10146" transform="scale(0.00048828125,-0.00048828125)">
   <path d="M 174,0 L 602,739 174,1481 1456,739 174,0 Z M 1358,739 L 309,1346 659,739 1358,739 Z"/>
  </g>
  <g id="bullet-char-template-10132" transform="scale(0.00048828125,-0.00048828125)">
   <path d="M 2015,739 L 1276,0 717,0 1260,543 174,543 174,936 1260,936 717,1481 1274,1481 2015,739 Z"/>
  </g>
  <g id="bullet-char-template-10007" transform="scale(0.00048828125,-0.00048828125)">
   <path d="M 0,-2 C -7,14 -16,27 -25,37 L 356,567 C 262,823 215,952 215,954 215,979 228,992 255,992 264,992 276,990 289,987 310,991 331,999 354,1012 L 381,999 492,748 772,1049 836,1024 860,1049 C 881,1039 901,1025 922,1006 886,937 835,863 770,784 769,783 710,716 594,584 L 774,223 C 774,196 753,168 711,139 L 727,119 C 717,90 699,76 672,76 641,76 570,178 457,381 L 164,-76 C 142,-110 111,-127 72,-127 30,-127 9,-110 8,-76 1,-67 -2,-52 -2,-32 -2,-23 -1,-13 0,-2 Z"/>
  </g>
  <g id="bullet-char-template-10004" transform="scale(0.00048828125,-0.00048828125)">
   <path d="M 285,-33 C 182,-33 111,30 74,156 52,228 41,333 41,471 41,549 55,616 82,672 116,743 169,778 240,778 293,778 328,747 346,684 L 369,508 C 377,444 397,411 428,410 L 1163,1116 C 1174,1127 1196,1133 1229,1133 1271,1133 1292,1118 1292,1087 L 1292,965 C 1292,929 1282,901 1262,881 L 442,47 C 390,-6 338,-33 285,-33 Z"/>
  </g>
  <g id="bullet-char-template-9679" transform="scale(0.00048828125,-0.00048828125)">
   <path d="M 813,0 C 632,0 489,54 383,161 276,268 223,411 223,592 223,773 276,916 383,1023 489,1130 632,1184 813,1184 992,1184 1136,1130 1245,1023 1353,916 1407,772 1407,592 1407,412 1353,268 1245,161 1136,54 992,0 813,0 Z"/>
  </g>
  <g id="bullet-char-template-8226" transform="scale(0.00048828125,-0.00048828125)">
   <path d="M 346,457 C 273,457 209,483 155,535 101,586 74,649 74,723 74,796 101,859 155,911 209,963 273,989 346,989 419,989 480,963 531,910 582,859 608,796 608,723 608,648 583,586 532,535 482,483 420,457 346,457 Z"/>
  </g>
  <g id="bullet-char-template-8211" transform="scale(0.00048828125,-0.00048828125)">
   <path d="M -4,459 L 1135,459 1135,606 -4,606 -4,459 Z"/>
  </g>
  <g id="bullet-char-template-61548" transform="scale(0.00048828125,-0.00048828125)">
   <path d="M 173,740 C 173,903 231,1043 346,1159 462,1274 601,1332 765,1332 928,1332 1067,1274 1183,1159 1299,1043 1357,903 1357,740 1357,577 1299,437 1183,322 1067,206 928,148 765,148 601,148 462,206 346,322 231,437 173,577 173,740 Z"/>
  </g>
 </defs>
 <g>
  <g id="id2" class="Master_Slide">
   <g id="bg-id2" class="Background"/>
   <g id="bo-id2" class="BackgroundObjects"/>
  </g>
 </g>
 <g class="SlideGroup">
  <g>
   <g id="container-id1">
    <g id="id1" class="Slide" clip-path="url(#presentation_clip_path)">
     <g class="Page">
      <g class="com.sun.star.drawing.CustomShape">
       <g id="id3">
        <rect class="BoundingBox" stroke="none" fill="none" x="6065" y="21953" width="639" height="639"/>
        <path fill="rgb(255,255,255)" stroke="none" d="M 6702,22272 C 6702,22328 6687,22383 6659,22431 6631,22479 6591,22519 6543,22547 6495,22575 6440,22590 6384,22590 6328,22590 6273,22575 6225,22547 6177,22519 6137,22479 6109,22431 6081,22383 6066,22328 6066,22272 6066,22216 6081,22161 6109,22113 6137,22065 6177,22025 6225,21997 6273,21969 6328,21954 6384,21954 6440,21954 6495,21969 6543,21997 6591,22025 6631,22065 6659,22113 6687,22161 6702,22216 6702,22272 L 6702,22272 Z"/>
        <path fill="none" stroke="rgb(255,0,0)" d="M 6702,22272 C 6702,22328 6687,22383 6659,22431 6631,22479 6591,22519 6543,22547 6495,22575 6440,22590 6384,22590 6328,22590 6273,22575 6225,22547 6177,22519 6137,22479 6109,22431 6081,22383 6066,22328 6066,22272 6066,22216 6081,22161 6109,22113 6137,22065 6177,22025 6225,21997 6273,21969 6328,21954 6384,21954 6440,21954 6495,21969 6543,21997 6591,22025 6631,22065 6659,22113 6687,22161 6702,22216 6702,22272 Z"/>
       </g>
      </g>
      <g class="com.sun.star.drawing.CustomShape">
       <g id="id4">
        <rect class="BoundingBox" stroke="none" fill="none" x="6065" y="20683" width="639" height="639"/>
        <path fill="rgb(255,255,255)" stroke="none" d="M 6702,21002 C 6702,21058 6687,21113 6659,21161 6631,21209 6591,21249 6543,21277 6495,21305 6440,21320 6384,21320 6328,21320 6273,21305 6225,21277 6177,21249 6137,21209 6109,21161 6081,21113 6066,21058 6066,21002 6066,20946 6081,20891 6109,20843 6137,20795 6177,20755 6225,20727 6273,20699 6328,20684 6384,20684 6440,20684 6495,20699 6543,20727 6591,20755 6631,20795 6659,20843 6687,20891 6702,20946 6702,21002 L 6702,21002 Z"/>
        <path fill="none" stroke="rgb(0,169,51)" d="M 6702,21002 C 6702,21058 6687,21113 6659,21161 6631,21209 6591,21249 6543,21277 6495,21305 6440,21320 6384,21320 6328,21320 6273,21305 6225,21277 6177,21249 6137,21209 6109,21161 6081,21113 6066,21058 6066,21002 6066,20946 6081,20891 6109,20843 6137,20795 6177,20755 6225,20727 6273,20699 6328,20684 6384,20684 6440,20684 6495,20699 6543,20727 6591,20755 6631,20795 6659,20843 6687,20891 6702,20946 6702,21002 Z"/>
       </g>
      </g>
      <g class="com.sun.star.drawing.CustomShape">
       <g id="id5">
        <rect class="BoundingBox" stroke="none" fill="none" x="6065" y="19413" width="639" height="639"/>
        <path fill="rgb(255,255,255)" stroke="none" d="M 6702,19732 C 6702,19788 6687,19843 6659,19891 6631,19939 6591,19979 6543,20007 6495,20035 6440,20050 6384,20050 6328,20050 6273,20035 6225,20007 6177,19979 6137,19939 6109,19891 6081,19843 6066,19788 6066,19732 6066,19676 6081,19621 6109,19573 6137,19525 6177,19485 6225,19457 6273,19429 6328,19414 6384,19414 6440,19414 6495,19429 6543,19457 6591,19485 6631,19525 6659,19573 6687,19621 6702,19676 6702,19732 L 6702,19732 Z"/>
        <path fill="none" stroke="rgb(101,9,83)" d="M 6702,19732 C 6702,19788 6687,19843 6659,19891 6631,19939 6591,19979 6543,20007 6495,20035 6440,20050 6384,20050 6328,20050 6273,20035 6225,20007 6177,19979 6137,19939 6109,19891 6081,19843 6066,19788 6066,19732 6066,19676 6081,19621 6109,19573 6137,19525 6177,19485 6225,19457 6273,19429 6328,19414 6384,19414 6440,19414 6495,19429 6543,19457 6591,19485 6631,19525 6659,19573 6687,19621 6702,19676 6702,19732 Z"/>
       </g>
      </g>
      <g class="com.sun.star.drawing.LineShape">
       <g id="id6">
        <rect class="BoundingBox" stroke="none" fill="none" x="6234" y="21320" width="301" height="637"/>
        <path fill="none" stroke="rgb(0,0,0)" d="M 6384,21955 L 6384,21600"/>
        <path fill="rgb(0,0,0)" stroke="none" d="M 6234,21620 L 6384,21320 6534,21620 6234,21620 Z"/>
       </g>
      </g>
      <g class="com.sun.star.drawing.LineShape">
       <g id="id7">
        <rect class="BoundingBox" stroke="none" fill="none" x="6234" y="20050" width="301" height="637"/>
        <path fill="none" stroke="rgb(0,0,0)" d="M 6384,20685 L 6384,20330"/>
        <path fill="rgb(0,0,0)" stroke="none" d="M 6234,20350 L 6384,20050 6534,20350 6234,20350 Z"/>
       </g>
      </g>
      <g class="com.sun.star.drawing.CustomShape">
       <g id="id8">
        <rect class="BoundingBox" stroke="none" fill="none" x="8605" y="21953" width="639" height="639"/>
        <path fill="rgb(255,255,255)" stroke="none" d="M 9242,22272 C 9242,22328 9227,22383 9199,22431 9171,22479 9131,22519 9083,22547 9035,22575 8980,22590 8924,22590 8868,22590 8813,22575 8765,22547 8717,22519 8677,22479 8649,22431 8621,22383 8606,22328 8606,22272 8606,22216 8621,22161 8649,22113 8677,22065 8717,22025 8765,21997 8813,21969 8868,21954 8924,21954 8980,21954 9035,21969 9083,21997 9131,22025 9171,22065 9199,22113 9227,22161 9242,22216 9242,22272 L 9242,22272 Z"/>
        <path fill="none" stroke="rgb(255,0,0)" d="M 9242,22272 C 9242,22328 9227,22383 9199,22431 9171,22479 9131,22519 9083,22547 9035,22575 8980,22590 8924,22590 8868,22590 8813,22575 8765,22547 8717,22519 8677,22479 8649,22431 8621,22383 8606,22328 8606,22272 8606,22216 8621,22161 8649,22113 8677,22065 8717,22025 8765,21997 8813,21969 8868,21954 8924,21954 8980,21954 9035,21969 9083,21997 9131,22025 9171,22065 9199,22113 9227,22161 9242,22216 9242,22272 Z"/>
       </g>
      </g>
      <g class="com.sun.star.drawing.CustomShape">
       <g id="id9">
        <rect class="BoundingBox" stroke="none" fill="none" x="8605" y="20683" width="639" height="639"/>
        <path fill="rgb(255,255,255)" stroke="none" d="M 9242,21002 C 9242,21058 9227,21113 9199,21161 9171,21209 9131,21249 9083,21277 9035,21305 8980,21320 8924,21320 8868,21320 8813,21305 8765,21277 8717,21249 8677,21209 8649,21161 8621,21113 8606,21058 8606,21002 8606,20946 8621,20891 8649,20843 8677,20795 8717,20755 8765,20727 8813,20699 8868,20684 8924,20684 8980,20684 9035,20699 9083,20727 9131,20755 9171,20795 9199,20843 9227,20891 9242,20946 9242,21002 L 9242,21002 Z"/>
        <path fill="none" stroke="rgb(0,169,51)" d="M 9242,21002 C 9242,21058 9227,21113 9199,21161 9171,21209 9131,21249 9083,21277 9035,21305 8980,21320 8924,21320 8868,21320 8813,21305 8765,21277 8717,21249 8677,21209 8649,21161 8621,21113 8606,21058 8606,21002 8606,20946 8621,20891 8649,20843 8677,20795 8717,20755 8765,20727 8813,20699 8868,20684 8924,20684 8980,20684 9035,20699 9083,20727 9131,20755 9171,20795 9199,20843 9227,20891 9242,20946 9242,21002 Z"/>
       </g>
      </g>
      <g class="com.sun.star.drawing.CustomShape">
       <g id="id10">
        <rect class="BoundingBox" stroke="none" fill="none" x="8605" y="19413" width="639" height="639"/>
        <path fill="rgb(255,255,255)" stroke="none" d="M 9242,19732 C 9242,19788 9227,19843 9199,19891 9171,19939 9131,19979 9083,20007 9035,20035 8980,20050 8924,20050 8868,20050 8813,20035 8765,20007 8717,19979 8677,19939 8649,19891 8621,19843 8606,19788 8606,19732 8606,19676 8621,19621 8649,19573 8677,19525 8717,19485 8765,19457 8813,19429 8868,19414 8924,19414 8980,19414 9035,19429 9083,19457 9131,19485 9171,19525 9199,19573 9227,19621 9242,19676 9242,19732 L 9242,19732 Z"/>
        <path fill="none" stroke="rgb(101,9,83)" d="M 9242,19732 C 9242,19788 9227,19843 9199,19891 9171,19939 9131,19979 9083,20007 9035,20035 8980,20050 8924,20050 8868,20050 8813,20035 8765,20007 8717,19979 8677,19939 8649,19891 8621,19843 8606,19788 8606,19732 8606,19676 8621,19621 8649,19573 8677,19525 8717,19485 8765,19457 8813,19429 8868,19414 8924,19414 8980,19414 9035,19429 9083,19457 9131,19485 9171,19525 9199,19573 9227,19621 9242,19676 9242,19732 Z"/>
       </g>
      </g>
      <g class="com.sun.star.drawing.LineShape">
       <g id="id11">
        <rect class="BoundingBox" stroke="none" fill="none" x="8774" y="21320" width="301" height="637"/>
        <path fill="none" stroke="rgb(0,0,0)" d="M 8924,21955 L 8924,21600"/>
        <path fill="rgb(0,0,0)" stroke="none" d="M 8774,21620 L 8924,21320 9074,21620 8774,21620 Z"/>
       </g>
      </g>
      <g class="com.sun.star.drawing.LineShape">
       <g id="id12">
        <rect class="BoundingBox" stroke="none" fill="none" x="8774" y="20050" width="301" height="637"/>
        <path fill="none" stroke="rgb(0,0,0)" d="M 8924,20685 L 8924,20330"/>
        <path fill="rgb(0,0,0)" stroke="none" d="M 8774,20350 L 8924,20050 9074,20350 8774,20350 Z"/>
       </g>
      </g>
      <g class="com.sun.star.drawing.CustomShape">
       <g id="id13">
        <rect class="BoundingBox" stroke="none" fill="none" x="7335" y="18143" width="639" height="639"/>
        <path fill="rgb(255,255,255)" stroke="none" d="M 7972,18462 C 7972,18518 7957,18573 7929,18621 7901,18669 7861,18709 7813,18737 7765,18765 7710,18780 7654,18780 7598,18780 7543,18765 7495,18737 7447,18709 7407,18669 7379,18621 7351,18573 7336,18518 7336,18462 7336,18406 7351,18351 7379,18303 7407,18255 7447,18215 7495,18187 7543,18159 7598,18144 7654,18144 7710,18144 7765,18159 7813,18187 7861,18215 7901,18255 7929,18303 7957,18351 7972,18406 7972,18462 L 7972,18462 Z"/>
        <path fill="none" stroke="rgb(0,0,0)" d="M 7972,18462 C 7972,18518 7957,18573 7929,18621 7901,18669 7861,18709 7813,18737 7765,18765 7710,18780 7654,18780 7598,18780 7543,18765 7495,18737 7447,18709 7407,18669 7379,18621 7351,18573 7336,18518 7336,18462 7336,18406 7351,18351 7379,18303 7407,18255 7447,18215 7495,18187 7543,18159 7598,18144 7654,18144 7710,18144 7765,18159 7813,18187 7861,18215 7901,18255 7929,18303 7957,18351 7972,18406 7972,18462 Z"/>
       </g>
      </g>
      <g class="com.sun.star.drawing.LineShape">
       <g id="id14">
        <rect class="BoundingBox" stroke="none" fill="none" x="6383" y="18780" width="1272" height="637"/>
        <path fill="none" stroke="rgb(0,0,0)" d="M 6384,19415 L 7404,18905"/>
        <path fill="rgb(0,0,0)" stroke="none" d="M 7319,18780 L 7654,18780 7453,19048 7319,18780 Z"/>
       </g>
      </g>
      <g class="com.sun.star.drawing.LineShape">
       <g id="id15">
        <rect class="BoundingBox" stroke="none" fill="none" x="7654" y="18780" width="1272" height="637"/>
        <path fill="none" stroke="rgb(0,0,0)" d="M 8924,19415 L 7904,18905"/>
        <path fill="rgb(0,0,0)" stroke="none" d="M 7855,19048 L 7654,18780 7989,18780 7855,19048 Z"/>
       </g>
      </g>
      <g class="com.sun.star.drawing.CustomShape">
       <g id="id16">
        <rect class="BoundingBox" stroke="none" fill="none" x="6065" y="16873" width="639" height="639"/>
        <path fill="rgb(255,255,255)" stroke="none" d="M 6702,17192 C 6702,17248 6687,17303 6659,17351 6631,17399 6591,17439 6543,17467 6495,17495 6440,17510 6384,17510 6328,17510 6273,17495 6225,17467 6177,17439 6137,17399 6109,17351 6081,17303 6066,17248 6066,17192 6066,17136 6081,17081 6109,17033 6137,16985 6177,16945 6225,16917 6273,16889 6328,16874 6384,16874 6440,16874 6495,16889 6543,16917 6591,16945 6631,16985 6659,17033 6687,17081 6702,17136 6702,17192 L 6702,17192 Z"/>
        <path fill="none" stroke="rgb(255,0,0)" d="M 6702,17192 C 6702,17248 6687,17303 6659,17351 6631,17399 6591,17439 6543,17467 6495,17495 6440,17510 6384,17510 6328,17510 6273,17495 6225,17467 6177,17439 6137,17399 6109,17351 6081,17303 6066,17248 6066,17192 6066,17136 6081,17081 6109,17033 6137,16985 6177,16945 6225,16917 6273,16889 6328,16874 6384,16874 6440,16874 6495,16889 6543,16917 6591,16945 6631,16985 6659,17033 6687,17081 6702,17136 6702,17192 Z"/>
       </g>
      </g>
      <g class="com.sun.star.drawing.CustomShape">
       <g id="id17">
        <rect class="BoundingBox" stroke="none" fill="none" x="6065" y="15603" width="639" height="639"/>
        <path fill="rgb(255,255,255)" stroke="none" d="M 6702,15922 C 6702,15978 6687,16033 6659,16081 6631,16129 6591,16169 6543,16197 6495,16225 6440,16240 6384,16240 6328,16240 6273,16225 6225,16197 6177,16169 6137,16129 6109,16081 6081,16033 6066,15978 6066,15922 6066,15866 6081,15811 6109,15763 6137,15715 6177,15675 6225,15647 6273,15619 6328,15604 6384,15604 6440,15604 6495,15619 6543,15647 6591,15675 6631,15715 6659,15763 6687,15811 6702,15866 6702,15922 L 6702,15922 Z"/>
        <path fill="none" stroke="rgb(0,169,51)" d="M 6702,15922 C 6702,15978 6687,16033 6659,16081 6631,16129 6591,16169 6543,16197 6495,16225 6440,16240 6384,16240 6328,16240 6273,16225 6225,16197 6177,16169 6137,16129 6109,16081 6081,16033 6066,15978 6066,15922 6066,15866 6081,15811 6109,15763 6137,15715 6177,15675 6225,15647 6273,15619 6328,15604 6384,15604 6440,15604 6495,15619 6543,15647 6591,15675 6631,15715 6659,15763 6687,15811 6702,15866 6702,15922 Z"/>
       </g>
      </g>
      <g class="com.sun.star.drawing.CustomShape">
       <g id="id18">
        <rect class="BoundingBox" stroke="none" fill="none" x="6065" y="14333" width="639" height="639"/>
        <path fill="rgb(255,255,255)" stroke="none" d="M 6702,14652 C 6702,14708 6687,14763 6659,14811 6631,14859 6591,14899 6543,14927 6495,14955 6440,14970 6384,14970 6328,14970 6273,14955 6225,14927 6177,14899 6137,14859 6109,14811 6081,14763 6066,14708 6066,14652 6066,14596 6081,14541 6109,14493 6137,14445 6177,14405 6225,14377 6273,14349 6328,14334 6384,14334 6440,14334 6495,14349 6543,14377 6591,14405 6631,14445 6659,14493 6687,14541 6702,14596 6702,14652 L 6702,14652 Z"/>
        <path fill="none" stroke="rgb(101,9,83)" d="M 6702,14652 C 6702,14708 6687,14763 6659,14811 6631,14859 6591,14899 6543,14927 6495,14955 6440,14970 6384,14970 6328,14970 6273,14955 6225,14927 6177,14899 6137,14859 6109,14811 6081,14763 6066,14708 6066,14652 6066,14596 6081,14541 6109,14493 6137,14445 6177,14405 6225,14377 6273,14349 6328,14334 6384,14334 6440,14334 6495,14349 6543,14377 6591,14405 6631,14445 6659,14493 6687,14541 6702,14596 6702,14652 Z"/>
       </g>
      </g>
      <g class="com.sun.star.drawing.LineShape">
       <g id="id19">
        <rect class="BoundingBox" stroke="none" fill="none" x="6234" y="16240" width="301" height="637"/>
        <path fill="none" stroke="rgb(0,0,0)" d="M 6384,16875 L 6384,16520"/>
        <path fill="rgb(0,0,0)" stroke="none" d="M 6234,16540 L 6384,16240 6534,16540 6234,16540 Z"/>
       </g>
      </g>
      <g class="com.sun.star.drawing.LineShape">
       <g id="id20">
        <rect class="BoundingBox" stroke="none" fill="none" x="6234" y="14970" width="301" height="637"/>
        <path fill="none" stroke="rgb(0,0,0)" d="M 6384,15605 L 6384,15250"/>
        <path fill="rgb(0,0,0)" stroke="none" d="M 6234,15270 L 6384,14970 6534,15270 6234,15270 Z"/>
       </g>
      </g>
      <g class="com.sun.star.drawing.CustomShape">
       <g id="id21">
        <rect class="BoundingBox" stroke="none" fill="none" x="8605" y="16873" width="639" height="639"/>
        <path fill="rgb(255,255,255)" stroke="none" d="M 9242,17192 C 9242,17248 9227,17303 9199,17351 9171,17399 9131,17439 9083,17467 9035,17495 8980,17510 8924,17510 8868,17510 8813,17495 8765,17467 8717,17439 8677,17399 8649,17351 8621,17303 8606,17248 8606,17192 8606,17136 8621,17081 8649,17033 8677,16985 8717,16945 8765,16917 8813,16889 8868,16874 8924,16874 8980,16874 9035,16889 9083,16917 9131,16945 9171,16985 9199,17033 9227,17081 9242,17136 9242,17192 L 9242,17192 Z"/>
        <path fill="none" stroke="rgb(255,0,0)" d="M 9242,17192 C 9242,17248 9227,17303 9199,17351 9171,17399 9131,17439 9083,17467 9035,17495 8980,17510 8924,17510 8868,17510 8813,17495 8765,17467 8717,17439 8677,17399 8649,17351 8621,17303 8606,17248 8606,17192 8606,17136 8621,17081 8649,17033 8677,16985 8717,16945 8765,16917 8813,16889 8868,16874 8924,16874 8980,16874 9035,16889 9083,16917 9131,16945 9171,16985 9199,17033 9227,17081 9242,17136 9242,17192 Z"/>
       </g>
      </g>
      <g class="com.sun.star.drawing.CustomShape">
       <g id="id22">
        <rect class="BoundingBox" stroke="none" fill="none" x="8605" y="15603" width="639" height="639"/>
        <path fill="rgb(255,255,255)" stroke="none" d="M 9242,15922 C 9242,15978 9227,16033 9199,16081 9171,16129 9131,16169 9083,16197 9035,16225 8980,16240 8924,16240 8868,16240 8813,16225 8765,16197 8717,16169 8677,16129 8649,16081 8621,16033 8606,15978 8606,15922 8606,15866 8621,15811 8649,15763 8677,15715 8717,15675 8765,15647 8813,15619 8868,15604 8924,15604 8980,15604 9035,15619 9083,15647 9131,15675 9171,15715 9199,15763 9227,15811 9242,15866 9242,15922 L 9242,15922 Z"/>
        <path fill="none" stroke="rgb(0,169,51)" d="M 9242,15922 C 9242,15978 9227,16033 9199,16081 9171,16129 9131,16169 9083,16197 9035,16225 8980,16240 8924,16240 8868,16240 8813,16225 8765,16197 8717,16169 8677,16129 8649,16081 8621,16033 8606,15978 8606,15922 8606,15866 8621,15811 8649,15763 8677,15715 8717,15675 8765,15647 8813,15619 8868,15604 8924,15604 8980,15604 9035,15619 9083,15647 9131,15675 9171,15715 9199,15763 9227,15811 9242,15866 9242,15922 Z"/>
       </g>
      </g>
      <g class="com.sun.star.drawing.CustomShape">
       <g id="id23">
        <rect class="BoundingBox" stroke="none" fill="none" x="8605" y="14333" width="639" height="639"/>
        <path fill="rgb(255,255,255)" stroke="none" d="M 9242,14652 C 9242,14708 9227,14763 9199,14811 9171,14859 9131,14899 9083,14927 9035,14955 8980,14970 8924,14970 8868,14970 8813,14955 8765,14927 8717,14899 8677,14859 8649,14811 8621,14763 8606,14708 8606,14652 8606,14596 8621,14541 8649,14493 8677,14445 8717,14405 8765,14377 8813,14349 8868,14334 8924,14334 8980,14334 9035,14349 9083,14377 9131,14405 9171,14445 9199,14493 9227,14541 9242,14596 9242,14652 L 9242,14652 Z"/>
        <path fill="none" stroke="rgb(101,9,83)" d="M 9242,14652 C 9242,14708 9227,14763 9199,14811 9171,14859 9131,14899 9083,14927 9035,14955 8980,14970 8924,14970 8868,14970 8813,14955 8765,14927 8717,14899 8677,14859 8649,14811 8621,14763 8606,14708 8606,14652 8606,14596 8621,14541 8649,14493 8677,14445 8717,14405 8765,14377 8813,14349 8868,14334 8924,14334 8980,14334 9035,14349 9083,14377 9131,14405 9171,14445 9199,14493 9227,14541 9242,14596 9242,14652 Z"/>
       </g>
      </g>
      <g class="com.sun.star.drawing.LineShape">
       <g id="id24">
        <rect class="BoundingBox" stroke="none" fill="none" x="8774" y="16240" width="301" height="637"/>
        <path fill="none" stroke="rgb(0,0,0)" d="M 8924,16875 L 8924,16520"/>
        <path fill="rgb(0,0,0)" stroke="none" d="M 8774,16540 L 8924,16240 9074,16540 8774,16540 Z"/>
       </g>
      </g>
      <g class="com.sun.star.drawing.LineShape">
       <g id="id25">
        <rect class="BoundingBox" stroke="none" fill="none" x="8774" y="14970" width="301" height="637"/>
        <path fill="none" stroke="rgb(0,0,0)" d="M 8924,15605 L 8924,15250"/>
        <path fill="rgb(0,0,0)" stroke="none" d="M 8774,15270 L 8924,14970 9074,15270 8774,15270 Z"/>
       </g>
      </g>
      <g class="com.sun.star.drawing.CustomShape">
       <g id="id26">
        <rect class="BoundingBox" stroke="none" fill="none" x="7335" y="13063" width="639" height="639"/>
        <path fill="rgb(255,255,255)" stroke="none" d="M 7972,13382 C 7972,13438 7957,13493 7929,13541 7901,13589 7861,13629 7813,13657 7765,13685 7710,13700 7654,13700 7598,13700 7543,13685 7495,13657 7447,13629 7407,13589 7379,13541 7351,13493 7336,13438 7336,13382 7336,13326 7351,13271 7379,13223 7407,13175 7447,13135 7495,13107 7543,13079 7598,13064 7654,13064 7710,13064 7765,13079 7813,13107 7861,13135 7901,13175 7929,13223 7957,13271 7972,13326 7972,13382 L 7972,13382 Z"/>
        <path fill="none" stroke="rgb(0,0,0)" d="M 7972,13382 C 7972,13438 7957,13493 7929,13541 7901,13589 7861,13629 7813,13657 7765,13685 7710,13700 7654,13700 7598,13700 7543,13685 7495,13657 7447,13629 7407,13589 7379,13541 7351,13493 7336,13438 7336,13382 7336,13326 7351,13271 7379,13223 7407,13175 7447,13135 7495,13107 7543,13079 7598,13064 7654,13064 7710,13064 7765,13079 7813,13107 7861,13135 7901,13175 7929,13223 7957,13271 7972,13326 7972,13382 Z"/>
       </g>
      </g>
      <g class="com.sun.star.drawing.LineShape">
       <g id="id27">
        <rect class="BoundingBox" stroke="none" fill="none" x="6383" y="13699" width="1272" height="638"/>
        <path fill="none" stroke="rgb(0,0,0)" d="M 6384,14335 L 7404,13825"/>
        <path fill="rgb(0,0,0)" stroke="none" d="M 7319,13700 L 7654,13700 7453,13968 7319,13700 Z"/>
       </g>
      </g>
      <g class="com.sun.star.drawing.LineShape">
       <g id="id28">
        <rect class="BoundingBox" stroke="none" fill="none" x="7654" y="13700" width="1272" height="637"/>
        <path fill="none" stroke="rgb(0,0,0)" d="M 8924,14335 L 7904,13825"/>
        <path fill="rgb(0,0,0)" stroke="none" d="M 7855,13968 L 7654,13700 7989,13700 7855,13968 Z"/>
       </g>
      </g>
      <g class="com.sun.star.drawing.CustomShape">
       <g id="id29">
        <rect class="BoundingBox" stroke="none" fill="none" x="6065" y="11793" width="639" height="639"/>
        <path fill="rgb(255,255,255)" stroke="none" d="M 6702,12112 C 6702,12168 6687,12223 6659,12271 6631,12319 6591,12359 6543,12387 6495,12415 6440,12430 6384,12430 6328,12430 6273,12415 6225,12387 6177,12359 6137,12319 6109,12271 6081,12223 6066,12168 6066,12112 6066,12056 6081,12001 6109,11953 6137,11905 6177,11865 6225,11837 6273,11809 6328,11794 6384,11794 6440,11794 6495,11809 6543,11837 6591,11865 6631,11905 6659,11953 6687,12001 6702,12056 6702,12112 L 6702,12112 Z"/>
        <path fill="none" stroke="rgb(255,0,0)" d="M 6702,12112 C 6702,12168 6687,12223 6659,12271 6631,12319 6591,12359 6543,12387 6495,12415 6440,12430 6384,12430 6328,12430 6273,12415 6225,12387 6177,12359 6137,12319 6109,12271 6081,12223 6066,12168 6066,12112 6066,12056 6081,12001 6109,11953 6137,11905 6177,11865 6225,11837 6273,11809 6328,11794 6384,11794 6440,11794 6495,11809 6543,11837 6591,11865 6631,11905 6659,11953 6687,12001 6702,12056 6702,12112 Z"/>
       </g>
      </g>
      <g class="com.sun.star.drawing.CustomShape">
       <g id="id30">
        <rect class="BoundingBox" stroke="none" fill="none" x="6065" y="10523" width="639" height="639"/>
        <path fill="rgb(255,255,255)" stroke="none" d="M 6702,10842 C 6702,10898 6687,10953 6659,11001 6631,11049 6591,11089 6543,11117 6495,11145 6440,11160 6384,11160 6328,11160 6273,11145 6225,11117 6177,11089 6137,11049 6109,11001 6081,10953 6066,10898 6066,10842 6066,10786 6081,10731 6109,10683 6137,10635 6177,10595 6225,10567 6273,10539 6328,10524 6384,10524 6440,10524 6495,10539 6543,10567 6591,10595 6631,10635 6659,10683 6687,10731 6702,10786 6702,10842 L 6702,10842 Z"/>
        <path fill="none" stroke="rgb(0,169,51)" d="M 6702,10842 C 6702,10898 6687,10953 6659,11001 6631,11049 6591,11089 6543,11117 6495,11145 6440,11160 6384,11160 6328,11160 6273,11145 6225,11117 6177,11089 6137,11049 6109,11001 6081,10953 6066,10898 6066,10842 6066,10786 6081,10731 6109,10683 6137,10635 6177,10595 6225,10567 6273,10539 6328,10524 6384,10524 6440,10524 6495,10539 6543,10567 6591,10595 6631,10635 6659,10683 6687,10731 6702,10786 6702,10842 Z"/>
       </g>
      </g>
      <g class="com.sun.star.drawing.CustomShape">
       <g id="id31">
        <rect class="BoundingBox" stroke="none" fill="none" x="6065" y="9253" width="639" height="639"/>
        <path fill="rgb(255,255,255)" stroke="none" d="M 6702,9572 C 6702,9628 6687,9683 6659,9731 6631,9779 6591,9819 6543,9847 6495,9875 6440,9890 6384,9890 6328,9890 6273,9875 6225,9847 6177,9819 6137,9779 6109,9731 6081,9683 6066,9628 6066,9572 6066,9516 6081,9461 6109,9413 6137,9365 6177,9325 6225,9297 6273,9269 6328,9254 6384,9254 6440,9254 6495,9269 6543,9297 6591,9325 6631,9365 6659,9413 6687,9461 6702,9516 6702,9572 L 6702,9572 Z"/>
        <path fill="none" stroke="rgb(101,9,83)" d="M 6702,9572 C 6702,9628 6687,9683 6659,9731 6631,9779 6591,9819 6543,9847 6495,9875 6440,9890 6384,9890 6328,9890 6273,9875 6225,9847 6177,9819 6137,9779 6109,9731 6081,9683 6066,9628 6066,9572 6066,9516 6081,9461 6109,9413 6137,9365 6177,9325 6225,9297 6273,9269 6328,9254 6384,9254 6440,9254 6495,9269 6543,9297 6591,9325 6631,9365 6659,9413 6687,9461 6702,9516 6702,9572 Z"/>
       </g>
      </g>
      <g class="com.sun.star.drawing.LineShape">
       <g id="id32">
        <rect class="BoundingBox" stroke="none" fill="none" x="6234" y="11160" width="301" height="637"/>
        <path fill="none" stroke="rgb(0,0,0)" d="M 6384,11795 L 6384,11440"/>
        <path fill="rgb(0,0,0)" stroke="none" d="M 6234,11460 L 6384,11160 6534,11460 6234,11460 Z"/>
       </g>
      </g>
      <g class="com.sun.star.drawing.LineShape">
       <g id="id33">
        <rect class="BoundingBox" stroke="none" fill="none" x="6234" y="9890" width="301" height="637"/>
        <path fill="none" stroke="rgb(0,0,0)" d="M 6384,10525 L 6384,10170"/>
        <path fill="rgb(0,0,0)" stroke="none" d="M 6234,10190 L 6384,9890 6534,10190 6234,10190 Z"/>
       </g>
      </g>
      <g class="com.sun.star.drawing.CustomShape">
       <g id="id34">
        <rect class="BoundingBox" stroke="none" fill="none" x="8605" y="11793" width="639" height="639"/>
        <path fill="rgb(255,255,255)" stroke="none" d="M 9242,12112 C 9242,12168 9227,12223 9199,12271 9171,12319 9131,12359 9083,12387 9035,12415 8980,12430 8924,12430 8868,12430 8813,12415 8765,12387 8717,12359 8677,12319 8649,12271 8621,12223 8606,12168 8606,12112 8606,12056 8621,12001 8649,11953 8677,11905 8717,11865 8765,11837 8813,11809 8868,11794 8924,11794 8980,11794 9035,11809 9083,11837 9131,11865 9171,11905 9199,11953 9227,12001 9242,12056 9242,12112 L 9242,12112 Z"/>
        <path fill="none" stroke="rgb(255,0,0)" d="M 9242,12112 C 9242,12168 9227,12223 9199,12271 9171,12319 9131,12359 9083,12387 9035,12415 8980,12430 8924,12430 8868,12430 8813,12415 8765,12387 8717,12359 8677,12319 8649,12271 8621,12223 8606,12168 8606,12112 8606,12056 8621,12001 8649,11953 8677,11905 8717,11865 8765,11837 8813,11809 8868,11794 8924,11794 8980,11794 9035,11809 9083,11837 9131,11865 9171,11905 9199,11953 9227,12001 9242,12056 9242,12112 Z"/>
       </g>
      </g>
      <g class="com.sun.star.drawing.CustomShape">
       <g id="id35">
        <rect class="BoundingBox" stroke="none" fill="none" x="8605" y="10523" width="639" height="639"/>
        <path fill="rgb(255,255,255)" stroke="none" d="M 9242,10842 C 9242,10898 9227,10953 9199,11001 9171,11049 9131,11089 9083,11117 9035,11145 8980,11160 8924,11160 8868,11160 8813,11145 8765,11117 8717,11089 8677,11049 8649,11001 8621,10953 8606,10898 8606,10842 8606,10786 8621,10731 8649,10683 8677,10635 8717,10595 8765,10567 8813,10539 8868,10524 8924,10524 8980,10524 9035,10539 9083,10567 9131,10595 9171,10635 9199,10683 9227,10731 9242,10786 9242,10842 L 9242,10842 Z"/>
        <path fill="none" stroke="rgb(0,169,51)" d="M 9242,10842 C 9242,10898 9227,10953 9199,11001 9171,11049 9131,11089 9083,11117 9035,11145 8980,11160 8924,11160 8868,11160 8813,11145 8765,11117 8717,11089 8677,11049 8649,11001 8621,10953 8606,10898 8606,10842 8606,10786 8621,10731 8649,10683 8677,10635 8717,10595 8765,10567 8813,10539 8868,10524 8924,10524 8980,10524 9035,10539 9083,10567 9131,10595 9171,10635 9199,10683 9227,10731 9242,10786 9242,10842 Z"/>
       </g>
      </g>
      <g class="com.sun.star.drawing.CustomShape">
       <g id="id36">
        <rect class="BoundingBox" stroke="none" fill="none" x="8605" y="9253" width="639" height="639"/>
        <path fill="rgb(255,255,255)" stroke="none" d="M 9242,9572 C 9242,9628 9227,9683 9199,9731 9171,9779 9131,9819 9083,9847 9035,9875 8980,9890 8924,9890 8868,9890 8813,9875 8765,9847 8717,9819 8677,9779 8649,9731 8621,9683 8606,9628 8606,9572 8606,9516 8621,9461 8649,9413 8677,9365 8717,9325 8765,9297 8813,9269 8868,9254 8924,9254 8980,9254 9035,9269 9083,9297 9131,9325 9171,9365 9199,9413 9227,9461 9242,9516 9242,9572 L 9242,9572 Z"/>
        <path fill="none" stroke="rgb(101,9,83)" d="M 9242,9572 C 9242,9628 9227,9683 9199,9731 9171,9779 9131,9819 9083,9847 9035,9875 8980,9890 8924,9890 8868,9890 8813,9875 8765,9847 8717,9819 8677,9779 8649,9731 8621,9683 8606,9628 8606,9572 8606,9516 8621,9461 8649,9413 8677,9365 8717,9325 8765,9297 8813,9269 8868,9254 8924,9254 8980,9254 9035,9269 9083,9297 9131,9325 9171,9365 9199,9413 9227,9461 9242,9516 9242,9572 Z"/>
       </g>
      </g>
      <g class="com.sun.star.drawing.LineShape">
       <g id="id37">
        <rect class="BoundingBox" stroke="none" fill="none" x="8774" y="11160" width="301" height="637"/>
        <path fill="none" stroke="rgb(0,0,0)" d="M 8924,11795 L 8924,11440"/>
        <path fill="rgb(0,0,0)" stroke="none" d="M 8774,11460 L 8924,11160 9074,11460 8774,11460 Z"/>
       </g>
      </g>
      <g class="com.sun.star.drawing.LineShape">
       <g id="id38">
        <rect class="BoundingBox" stroke="none" fill="none" x="8774" y="9890" width="301" height="637"/>
        <path fill="none" stroke="rgb(0,0,0)" d="M 8924,10525 L 8924,10170"/>
        <path fill="rgb(0,0,0)" stroke="none" d="M 8774,10190 L 8924,9890 9074,10190 8774,10190 Z"/>
       </g>
      </g>
      <g class="com.sun.star.drawing.CustomShape">
       <g id="id39">
        <rect class="BoundingBox" stroke="none" fill="none" x="7335" y="7983" width="639" height="639"/>
        <path fill="rgb(255,255,255)" stroke="none" d="M 7972,8302 C 7972,8358 7957,8413 7929,8461 7901,8509 7861,8549 7813,8577 7765,8605 7710,8620 7654,8620 7598,8620 7543,8605 7495,8577 7447,8549 7407,8509 7379,8461 7351,8413 7336,8358 7336,8302 7336,8246 7351,8191 7379,8143 7407,8095 7447,8055 7495,8027 7543,7999 7598,7984 7654,7984 7710,7984 7765,7999 7813,8027 7861,8055 7901,8095 7929,8143 7957,8191 7972,8246 7972,8302 L 7972,8302 Z"/>
        <path fill="none" stroke="rgb(0,0,0)" d="M 7972,8302 C 7972,8358 7957,8413 7929,8461 7901,8509 7861,8549 7813,8577 7765,8605 7710,8620 7654,8620 7598,8620 7543,8605 7495,8577 7447,8549 7407,8509 7379,8461 7351,8413 7336,8358 7336,8302 7336,8246 7351,8191 7379,8143 7407,8095 7447,8055 7495,8027 7543,7999 7598,7984 7654,7984 7710,7984 7765,7999 7813,8027 7861,8055 7901,8095 7929,8143 7957,8191 7972,8246 7972,8302 Z"/>
       </g>
      </g>
      <g class="com.sun.star.drawing.LineShape">
       <g id="id40">
        <rect class="BoundingBox" stroke="none" fill="none" x="6383" y="8619" width="1272" height="638"/>
        <path fill="none" stroke="rgb(0,0,0)" d="M 6384,9255 L 7404,8745"/>
        <path fill="rgb(0,0,0)" stroke="none" d="M 7319,8620 L 7654,8620 7453,8888 7319,8620 Z"/>
       </g>
      </g>
      <g class="com.sun.star.drawing.LineShape">
       <g id="id41">
        <rect class="BoundingBox" stroke="none" fill="none" x="7654" y="8620" width="1272" height="637"/>
        <path fill="none" stroke="rgb(0,0,0)" d="M 8924,9255 L 7904,8745"/>
        <path fill="rgb(0,0,0)" stroke="none" d="M 7855,8888 L 7654,8620 7989,8620 7855,8888 Z"/>
       </g>
      </g>
      <g class="com.sun.star.drawing.CustomShape">
       <g id="id42">
        <rect class="BoundingBox" stroke="none" fill="none" x="6065" y="6713" width="639" height="639"/>
        <path fill="rgb(255,255,255)" stroke="none" d="M 6702,7032 C 6702,7088 6687,7143 6659,7191 6631,7239 6591,7279 6543,7307 6495,7335 6440,7350 6384,7350 6328,7350 6273,7335 6225,7307 6177,7279 6137,7239 6109,7191 6081,7143 6066,7088 6066,7032 6066,6976 6081,6921 6109,6873 6137,6825 6177,6785 6225,6757 6273,6729 6328,6714 6384,6714 6440,6714 6495,6729 6543,6757 6591,6785 6631,6825 6659,6873 6687,6921 6702,6976 6702,7032 L 6702,7032 Z"/>
        <path fill="none" stroke="rgb(255,0,0)" d="M 6702,7032 C 6702,7088 6687,7143 6659,7191 6631,7239 6591,7279 6543,7307 6495,7335 6440,7350 6384,7350 6328,7350 6273,7335 6225,7307 6177,7279 6137,7239 6109,7191 6081,7143 6066,7088 6066,7032 6066,6976 6081,6921 6109,6873 6137,6825 6177,6785 6225,6757 6273,6729 6328,6714 6384,6714 6440,6714 6495,6729 6543,6757 6591,6785 6631,6825 6659,6873 6687,6921 6702,6976 6702,7032 Z"/>
       </g>
      </g>
      <g class="com.sun.star.drawing.CustomShape">
       <g id="id43">
        <rect class="BoundingBox" stroke="none" fill="none" x="6065" y="5443" width="639" height="639"/>
        <path fill="rgb(255,255,255)" stroke="none" d="M 6702,5762 C 6702,5818 6687,5873 6659,5921 6631,5969 6591,6009 6543,6037 6495,6065 6440,6080 6384,6080 6328,6080 6273,6065 6225,6037 6177,6009 6137,5969 6109,5921 6081,5873 6066,5818 6066,5762 6066,5706 6081,5651 6109,5603 6137,5555 6177,5515 6225,5487 6273,5459 6328,5444 6384,5444 6440,5444 6495,5459 6543,5487 6591,5515 6631,5555 6659,5603 6687,5651 6702,5706 6702,5762 L 6702,5762 Z"/>
        <path fill="none" stroke="rgb(0,169,51)" d="M 6702,5762 C 6702,5818 6687,5873 6659,5921 6631,5969 6591,6009 6543,6037 6495,6065 6440,6080 6384,6080 6328,6080 6273,6065 6225,6037 6177,6009 6137,5969 6109,5921 6081,5873 6066,5818 6066,5762 6066,5706 6081,5651 6109,5603 6137,5555 6177,5515 6225,5487 6273,5459 6328,5444 6384,5444 6440,5444 6495,5459 6543,5487 6591,5515 6631,5555 6659,5603 6687,5651 6702,5706 6702,5762 Z"/>
       </g>
      </g>
      <g class="com.sun.star.drawing.CustomShape">
       <g id="id44">
        <rect class="BoundingBox" stroke="none" fill="none" x="6065" y="4173" width="639" height="639"/>
        <path fill="rgb(255,255,255)" stroke="none" d="M 6702,4492 C 6702,4548 6687,4603 6659,4651 6631,4699 6591,4739 6543,4767 6495,4795 6440,4810 6384,4810 6328,4810 6273,4795 6225,4767 6177,4739 6137,4699 6109,4651 6081,4603 6066,4548 6066,4492 6066,4436 6081,4381 6109,4333 6137,4285 6177,4245 6225,4217 6273,4189 6328,4174 6384,4174 6440,4174 6495,4189 6543,4217 6591,4245 6631,4285 6659,4333 6687,4381 6702,4436 6702,4492 L 6702,4492 Z"/>
        <path fill="none" stroke="rgb(101,9,83)" d="M 6702,4492 C 6702,4548 6687,4603 6659,4651 6631,4699 6591,4739 6543,4767 6495,4795 6440,4810 6384,4810 6328,4810 6273,4795 6225,4767 6177,4739 6137,4699 6109,4651 6081,4603 6066,4548 6066,4492 6066,4436 6081,4381 6109,4333 6137,4285 6177,4245 6225,4217 6273,4189 6328,4174 6384,4174 6440,4174 6495,4189 6543,4217 6591,4245 6631,4285 6659,4333 6687,4381 6702,4436 6702,4492 Z"/>
       </g>
      </g>
      <g class="com.sun.star.drawing.LineShape">
       <g id="id45">
        <rect class="BoundingBox" stroke="none" fill="none" x="6234" y="6080" width="301" height="637"/>
        <path fill="none" stroke="rgb(0,0,0)" d="M 6384,6715 L 6384,6360"/>
        <path fill="rgb(0,0,0)" stroke="none" d="M 6234,6380 L 6384,6080 6534,6380 6234,6380 Z"/>
       </g>
      </g>
      <g class="com.sun.star.drawing.LineShape">
       <g id="id46">
        <rect class="BoundingBox" stroke="none" fill="none" x="6234" y="4810" width="301" height="637"/>
        <path fill="none" stroke="rgb(0,0,0)" d="M 6384,5445 L 6384,5090"/>
        <path fill="rgb(0,0,0)" stroke="none" d="M 6234,5110 L 6384,4810 6534,5110 6234,5110 Z"/>
       </g>
      </g>
      <g class="com.sun.star.drawing.CustomShape">
       <g id="id47">
        <rect class="BoundingBox" stroke="none" fill="none" x="8605" y="6713" width="639" height="639"/>
        <path fill="rgb(255,255,255)" stroke="none" d="M 9242,7032 C 9242,7088 9227,7143 9199,7191 9171,7239 9131,7279 9083,7307 9035,7335 8980,7350 8924,7350 8868,7350 8813,7335 8765,7307 8717,7279 8677,7239 8649,7191 8621,7143 8606,7088 8606,7032 8606,6976 8621,6921 8649,6873 8677,6825 8717,6785 8765,6757 8813,6729 8868,6714 8924,6714 8980,6714 9035,6729 9083,6757 9131,6785 9171,6825 9199,6873 9227,6921 9242,6976 9242,7032 L 9242,7032 Z"/>
        <path fill="none" stroke="rgb(255,0,0)" d="M 9242,7032 C 9242,7088 9227,7143 9199,7191 9171,7239 9131,7279 9083,7307 9035,7335 8980,7350 8924,7350 8868,7350 8813,7335 8765,7307 8717,7279 8677,7239 8649,7191 8621,7143 8606,7088 8606,7032 8606,6976 8621,6921 8649,6873 8677,6825 8717,6785 8765,6757 8813,6729 8868,6714 8924,6714 8980,6714 9035,6729 9083,6757 9131,6785 9171,6825 9199,6873 9227,6921 9242,6976 9242,7032 Z"/>
       </g>
      </g>
      <g class="com.sun.star.drawing.CustomShape">
       <g id="id48">
        <rect class="BoundingBox" stroke="none" fill="none" x="8605" y="5443" width="639" height="639"/>
        <path fill="rgb(255,255,255)" stroke="none" d="M 9242,5762 C 9242,5818 9227,5873 9199,5921 9171,5969 9131,6009 9083,6037 9035,6065 8980,6080 8924,6080 8868,6080 8813,6065 8765,6037 8717,6009 8677,5969 8649,5921 8621,5873 8606,5818 8606,5762 8606,5706 8621,5651 8649,5603 8677,5555 8717,5515 8765,5487 8813,5459 8868,5444 8924,5444 8980,5444 9035,5459 9083,5487 9131,5515 9171,5555 9199,5603 9227,5651 9242,5706 9242,5762 L 9242,5762 Z"/>
        <path fill="none" stroke="rgb(0,169,51)" d="M 9242,5762 C 9242,5818 9227,5873 9199,5921 9171,5969 9131,6009 9083,6037 9035,6065 8980,6080 8924,6080 8868,6080 8813,6065 8765,6037 8717,6009 8677,5969 8649,5921 8621,5873 8606,5818 8606,5762 8606,5706 8621,5651 8649,5603 8677,5555 8717,5515 8765,5487 8813,5459 8868,5444 8924,5444 8980,5444 9035,5459 9083,5487 9131,5515 9171,5555 9199,5603 9227,5651 9242,5706 9242,5762 Z"/>
       </g>
      </g>
      <g class="com.sun.star.drawing.CustomShape">
       <g id="id49">
        <rect class="BoundingBox" stroke="none" fill="none" x="8605" y="4173" width="639" height="639"/>
        <path fill="rgb(255,255,255)" stroke="none" d="M 9242,4492 C 9242,4548 9227,4603 9199,4651 9171,4699 9131,4739 9083,4767 9035,4795 8980,4810 8924,4810 8868,4810 8813,4795 8765,4767 8717,4739 8677,4699 8649,4651 8621,4603 8606,4548 8606,4492 8606,4436 8621,4381 8649,4333 8677,4285 8717,4245 8765,4217 8813,4189 8868,4174 8924,4174 8980,4174 9035,4189 9083,4217 9131,4245 9171,4285 9199,4333 9227,4381 9242,4436 9242,4492 L 9242,4492 Z"/>
        <path fill="none" stroke="rgb(101,9,83)" d="M 9242,4492 C 9242,4548 9227,4603 9199,4651 9171,4699 9131,4739 9083,4767 9035,4795 8980,4810 8924,4810 8868,4810 8813,4795 8765,4767 8717,4739 8677,4699 8649,4651 8621,4603 8606,4548 8606,4492 8606,4436 8621,4381 8649,4333 8677,4285 8717,4245 8765,4217 8813,4189 8868,4174 8924,4174 8980,4174 9035,4189 9083,4217 9131,4245 9171,4285 9199,4333 9227,4381 9242,4436 9242,4492 Z"/>
       </g>
      </g>
      <g class="com.sun.star.drawing.LineShape">
       <g id="id50">
        <rect class="BoundingBox" stroke="none" fill="none" x="8774" y="6080" width="301" height="637"/>
        <path fill="none" stroke="rgb(0,0,0)" d="M 8924,6715 L 8924,6360"/>
        <path fill="rgb(0,0,0)" stroke="none" d="M 8774,6380 L 8924,6080 9074,6380 8774,6380 Z"/>
       </g>
      </g>
      <g class="com.sun.star.drawing.LineShape">
       <g id="id51">
        <rect class="BoundingBox" stroke="none" fill="none" x="8774" y="4810" width="301" height="637"/>
        <path fill="none" stroke="rgb(0,0,0)" d="M 8924,5445 L 8924,5090"/>
        <path fill="rgb(0,0,0)" stroke="none" d="M 8774,5110 L 8924,4810 9074,5110 8774,5110 Z"/>
       </g>
      </g>
      <g class="com.sun.star.drawing.CustomShape">
       <g id="id52">
        <rect class="BoundingBox" stroke="none" fill="none" x="7335" y="2903" width="639" height="639"/>
        <path fill="rgb(255,255,255)" stroke="none" d="M 7972,3222 C 7972,3278 7957,3333 7929,3381 7901,3429 7861,3469 7813,3497 7765,3525 7710,3540 7654,3540 7598,3540 7543,3525 7495,3497 7447,3469 7407,3429 7379,3381 7351,3333 7336,3278 7336,3222 7336,3166 7351,3111 7379,3063 7407,3015 7447,2975 7495,2947 7543,2919 7598,2904 7654,2904 7710,2904 7765,2919 7813,2947 7861,2975 7901,3015 7929,3063 7957,3111 7972,3166 7972,3222 L 7972,3222 Z"/>
        <path fill="none" stroke="rgb(0,0,0)" d="M 7972,3222 C 7972,3278 7957,3333 7929,3381 7901,3429 7861,3469 7813,3497 7765,3525 7710,3540 7654,3540 7598,3540 7543,3525 7495,3497 7447,3469 7407,3429 7379,3381 7351,3333 7336,3278 7336,3222 7336,3166 7351,3111 7379,3063 7407,3015 7447,2975 7495,2947 7543,2919 7598,2904 7654,2904 7710,2904 7765,2919 7813,2947 7861,2975 7901,3015 7929,3063 7957,3111 7972,3166 7972,3222 L 7972,3222 Z"/>
       </g>
      </g>
      <g class="com.sun.star.drawing.LineShape">
       <g id="id53">
        <rect class="BoundingBox" stroke="none" fill="none" x="6383" y="3540" width="1272" height="637"/>
        <path fill="none" stroke="rgb(0,0,0)" d="M 6384,4175 L 7404,3665"/>
        <path fill="rgb(0,0,0)" stroke="none" d="M 7319,3540 L 7654,3540 7453,3808 7319,3540 Z"/>
       </g>
      </g>
      <g class="com.sun.star.drawing.LineShape">
       <g id="id54">
        <rect class="BoundingBox" stroke="none" fill="none" x="7654" y="3540" width="1272" height="637"/>
        <path fill="none" stroke="rgb(0,0,0)" d="M 8924,4175 L 7904,3665"/>
        <path fill="rgb(0,0,0)" stroke="none" d="M 7855,3808 L 7654,3540 7989,3540 7855,3808 Z"/>
       </g>
      </g>
      <g class="com.sun.star.drawing.LineShape">
       <g id="id55">
        <rect class="BoundingBox" stroke="none" fill="none" x="6384" y="17510" width="1272" height="637"/>
        <path fill="none" stroke="rgb(0,0,0)" d="M 7654,18145 L 6634,17635"/>
        <path fill="rgb(0,0,0)" stroke="none" d="M 6585,17778 L 6384,17510 6719,17510 6585,17778 Z"/>
       </g>
      </g>
      <g class="com.sun.star.drawing.LineShape">
       <g id="id56">
        <rect class="BoundingBox" stroke="none" fill="none" x="7653" y="17510" width="1272" height="637"/>
        <path fill="none" stroke="rgb(0,0,0)" d="M 7654,18145 L 8674,17635"/>
        <path fill="rgb(0,0,0)" stroke="none" d="M 8589,17510 L 8924,17510 8723,17778 8589,17510 Z"/>
       </g>
      </g>
      <g class="com.sun.star.drawing.LineShape">
       <g id="id57">
        <rect class="BoundingBox" stroke="none" fill="none" x="6384" y="12430" width="1272" height="637"/>
        <path fill="none" stroke="rgb(0,0,0)" d="M 7654,13065 L 6634,12555"/>
        <path fill="rgb(0,0,0)" stroke="none" d="M 6585,12698 L 6384,12430 6719,12430 6585,12698 Z"/>
       </g>
      </g>
      <g class="com.sun.star.drawing.LineShape">
       <g id="id58">
        <rect class="BoundingBox" stroke="none" fill="none" x="7653" y="12429" width="1272" height="638"/>
        <path fill="none" stroke="rgb(0,0,0)" d="M 7654,13065 L 8674,12555"/>
        <path fill="rgb(0,0,0)" stroke="none" d="M 8589,12430 L 8924,12430 8723,12698 8589,12430 Z"/>
       </g>
      </g>
      <g class="com.sun.star.drawing.LineShape">
       <g id="id59">
        <rect class="BoundingBox" stroke="none" fill="none" x="6384" y="7350" width="1272" height="637"/>
        <path fill="none" stroke="rgb(0,0,0)" d="M 7654,7985 L 6634,7475"/>
        <path fill="rgb(0,0,0)" stroke="none" d="M 6585,7618 L 6384,7350 6719,7350 6585,7618 Z"/>
       </g>
      </g>
      <g class="com.sun.star.drawing.LineShape">
       <g id="id60">
        <rect class="BoundingBox" stroke="none" fill="none" x="7653" y="7350" width="1272" height="637"/>
        <path fill="none" stroke="rgb(0,0,0)" d="M 7654,7985 L 8674,7475"/>
        <path fill="rgb(0,0,0)" stroke="none" d="M 8589,7350 L 8924,7350 8723,7618 8589,7350 Z"/>
       </g>
      </g>
      <g class="com.sun.star.drawing.CustomShape">
       <g id="id61">
        <rect class="BoundingBox" stroke="none" fill="none" x="7335" y="23223" width="639" height="639"/>
        <path fill="rgb(255,255,255)" stroke="none" d="M 7972,23542 C 7972,23598 7957,23653 7929,23701 7901,23749 7861,23789 7813,23817 7765,23845 7710,23860 7654,23860 7598,23860 7543,23845 7495,23817 7447,23789 7407,23749 7379,23701 7351,23653 7336,23598 7336,23542 7336,23486 7351,23431 7379,23383 7407,23335 7447,23295 7495,23267 7543,23239 7598,23224 7654,23224 7710,23224 7765,23239 7813,23267 7861,23295 7901,23335 7929,23383 7957,23431 7972,23486 7972,23542 L 7972,23542 Z"/>
        <path fill="none" stroke="rgb(0,0,0)" d="M 7972,23542 C 7972,23598 7957,23653 7929,23701 7901,23749 7861,23789 7813,23817 7765,23845 7710,23860 7654,23860 7598,23860 7543,23845 7495,23817 7447,23789 7407,23749 7379,23701 7351,23653 7336,23598 7336,23542 7336,23486 7351,23431 7379,23383 7407,23335 7447,23295 7495,23267 7543,23239 7598,23224 7654,23224 7710,23224 7765,23239 7813,23267 7861,23295 7901,23335 7929,23383 7957,23431 7972,23486 7972,23542 Z"/>
       </g>
      </g>
      <g class="com.sun.star.drawing.LineShape">
       <g id="id62">
        <rect class="BoundingBox" stroke="none" fill="none" x="6384" y="22590" width="1272" height="637"/>
        <path fill="none" stroke="rgb(0,0,0)" d="M 7654,23225 L 6634,22715"/>
        <path fill="rgb(0,0,0)" stroke="none" d="M 6585,22858 L 6384,22590 6719,22590 6585,22858 Z"/>
       </g>
      </g>
      <g class="com.sun.star.drawing.LineShape">
       <g id="id63">
        <rect class="BoundingBox" stroke="none" fill="none" x="7653" y="22590" width="1272" height="637"/>
        <path fill="none" stroke="rgb(0,0,0)" d="M 7654,23225 L 8674,22715"/>
        <path fill="rgb(0,0,0)" stroke="none" d="M 8589,22590 L 8924,22590 8723,22858 8589,22590 Z"/>
       </g>
      </g>
      <g class="com.sun.star.drawing.CustomShape">
       <g id="id64">
        <rect class="BoundingBox" stroke="none" fill="none" x="14955" y="7983" width="639" height="639"/>
        <path fill="rgb(255,255,255)" stroke="none" d="M 15592,8302 C 15592,8358 15577,8413 15549,8461 15521,8509 15481,8549 15433,8577 15385,8605 15330,8620 15274,8620 15218,8620 15163,8605 15115,8577 15067,8549 15027,8509 14999,8461 14971,8413 14956,8358 14956,8302 14956,8246 14971,8191 14999,8143 15027,8095 15067,8055 15115,8027 15163,7999 15218,7984 15274,7984 15330,7984 15385,7999 15433,8027 15481,8055 15521,8095 15549,8143 15577,8191 15592,8246 15592,8302 L 15592,8302 Z"/>
        <path fill="none" stroke="rgb(255,0,0)" d="M 15592,8302 C 15592,8358 15577,8413 15549,8461 15521,8509 15481,8549 15433,8577 15385,8605 15330,8620 15274,8620 15218,8620 15163,8605 15115,8577 15067,8549 15027,8509 14999,8461 14971,8413 14956,8358 14956,8302 14956,8246 14971,8191 14999,8143 15027,8095 15067,8055 15115,8027 15163,7999 15218,7984 15274,7984 15330,7984 15385,7999 15433,8027 15481,8055 15521,8095 15549,8143 15577,8191 15592,8246 15592,8302 Z"/>
       </g>
      </g>
      <g class="com.sun.star.drawing.CustomShape">
       <g id="id65">
        <rect class="BoundingBox" stroke="none" fill="none" x="14955" y="13063" width="639" height="639"/>
        <path fill="rgb(255,255,255)" stroke="none" d="M 15592,13382 C 15592,13438 15577,13493 15549,13541 15521,13589 15481,13629 15433,13657 15385,13685 15330,13700 15274,13700 15218,13700 15163,13685 15115,13657 15067,13629 15027,13589 14999,13541 14971,13493 14956,13438 14956,13382 14956,13326 14971,13271 14999,13223 15027,13175 15067,13135 15115,13107 15163,13079 15218,13064 15274,13064 15330,13064 15385,13079 15433,13107 15481,13135 15521,13175 15549,13223 15577,13271 15592,13326 15592,13382 L 15592,13382 Z"/>
        <path fill="none" stroke="rgb(0,169,51)" d="M 15592,13382 C 15592,13438 15577,13493 15549,13541 15521,13589 15481,13629 15433,13657 15385,13685 15330,13700 15274,13700 15218,13700 15163,13685 15115,13657 15067,13629 15027,13589 14999,13541 14971,13493 14956,13438 14956,13382 14956,13326 14971,13271 14999,13223 15027,13175 15067,13135 15115,13107 15163,13079 15218,13064 15274,13064 15330,13064 15385,13079 15433,13107 15481,13135 15521,13175 15549,13223 15577,13271 15592,13326 15592,13382 Z"/>
       </g>
      </g>
      <g class="com.sun.star.drawing.CustomShape">
       <g id="id66">
        <rect class="BoundingBox" stroke="none" fill="none" x="14955" y="18143" width="639" height="639"/>
        <path fill="rgb(255,255,255)" stroke="none" d="M 15592,18462 C 15592,18518 15577,18573 15549,18621 15521,18669 15481,18709 15433,18737 15385,18765 15330,18780 15274,18780 15218,18780 15163,18765 15115,18737 15067,18709 15027,18669 14999,18621 14971,18573 14956,18518 14956,18462 14956,18406 14971,18351 14999,18303 15027,18255 15067,18215 15115,18187 15163,18159 15218,18144 15274,18144 15330,18144 15385,18159 15433,18187 15481,18215 15521,18255 15549,18303 15577,18351 15592,18406 15592,18462 L 15592,18462 Z"/>
        <path fill="none" stroke="rgb(101,9,83)" d="M 15592,18462 C 15592,18518 15577,18573 15549,18621 15521,18669 15481,18709 15433,18737 15385,18765 15330,18780 15274,18780 15218,18780 15163,18765 15115,18737 15067,18709 15027,18669 14999,18621 14971,18573 14956,18518 14956,18462 14956,18406 14971,18351 14999,18303 15027,18255 15067,18215 15115,18187 15163,18159 15218,18144 15274,18144 15330,18144 15385,18159 15433,18187 15481,18215 15521,18255 15549,18303 15577,18351 15592,18406 15592,18462 Z"/>
       </g>
      </g>
      <g class="com.sun.star.drawing.ConnectorShape">
       <g id="id67">
        <rect class="BoundingBox" stroke="none" fill="none" x="4638" y="8302" width="10321" height="13972"/>
        <path fill="none" stroke="rgb(255,0,0)" d="M 14957,8303 C 869,8303 4968,21104 5952,22199"/>
        <path fill="rgb(255,0,0)" stroke="none" d="M 5906,21979 L 6067,22273 5735,22225 5906,21979 Z"/>
       </g>
      </g>
      <g class="com.sun.star.drawing.CustomShape">
       <g id="id68">
        <rect class="BoundingBox" stroke="none" fill="none" x="14955" y="9253" width="639" height="639"/>
        <path fill="rgb(255,255,255)" stroke="none" d="M 15592,9572 C 15592,9628 15577,9683 15549,9731 15521,9779 15481,9819 15433,9847 15385,9875 15330,9890 15274,9890 15218,9890 15163,9875 15115,9847 15067,9819 15027,9779 14999,9731 14971,9683 14956,9628 14956,9572 14956,9516 14971,9461 14999,9413 15027,9365 15067,9325 15115,9297 15163,9269 15218,9254 15274,9254 15330,9254 15385,9269 15433,9297 15481,9325 15521,9365 15549,9413 15577,9461 15592,9516 15592,9572 L 15592,9572 Z"/>
        <path fill="none" stroke="rgb(255,0,0)" d="M 15592,9572 C 15592,9628 15577,9683 15549,9731 15521,9779 15481,9819 15433,9847 15385,9875 15330,9890 15274,9890 15218,9890 15163,9875 15115,9847 15067,9819 15027,9779 14999,9731 14971,9683 14956,9628 14956,9572 14956,9516 14971,9461 14999,9413 15027,9365 15067,9325 15115,9297 15163,9269 15218,9254 15274,9254 15330,9254 15385,9269 15433,9297 15481,9325 15521,9365 15549,9413 15577,9461 15592,9516 15592,9572 Z"/>
       </g>
      </g>
      <g class="com.sun.star.drawing.ConnectorShape">
       <g id="id69">
        <rect class="BoundingBox" stroke="none" fill="none" x="6701" y="9431" width="8257" height="12844"/>
        <path fill="none" stroke="rgb(255,0,0)" d="M 6702,22273 C 12892,22273 8869,9898 14723,9579"/>
        <path fill="rgb(255,0,0)" stroke="none" d="M 14653,9432 L 14957,9573 14662,9732 14653,9432 Z"/>
       </g>
      </g>
      <g class="com.sun.star.drawing.ConnectorShape">
       <g id="id70">
        <rect class="BoundingBox" stroke="none" fill="none" x="7373" y="8302" width="7586" height="8892"/>
        <path fill="none" stroke="rgb(255,0,0)" d="M 14957,8303 C 4679,8303 7513,16127 8443,17095"/>
        <path fill="rgb(255,0,0)" stroke="none" d="M 8435,16905 L 8607,17193 8273,17158 8435,16905 Z"/>
       </g>
      </g>
      <g class="com.sun.star.drawing.ConnectorShape">
       <g id="id71">
        <rect class="BoundingBox" stroke="none" fill="none" x="9241" y="9435" width="5717" height="7760"/>
        <path fill="none" stroke="rgb(255,0,0)" d="M 9242,17193 C 13527,17193 10789,9894 14692,9583"/>
        <path fill="rgb(255,0,0)" stroke="none" d="M 14651,9436 L 14957,9573 14664,9735 14651,9436 Z"/>
       </g>
      </g>
      <g class="com.sun.star.drawing.ConnectorShape">
       <g id="id72">
        <rect class="BoundingBox" stroke="none" fill="none" x="7654" y="1947" width="7769" height="6039"/>
        <path fill="none" stroke="rgb(0,0,0)" d="M 7655,2905 C 7655,2152 15111,-333 15272,7717"/>
        <path fill="rgb(0,0,0)" stroke="none" d="M 15422,7683 L 15275,7985 15122,7687 15422,7683 Z"/>
       </g>
      </g>
      <g class="com.sun.star.drawing.ConnectorShape">
       <g id="id73">
        <rect class="BoundingBox" stroke="none" fill="none" x="7319" y="8302" width="7640" height="3856"/>
        <path fill="none" stroke="rgb(255,0,0)" d="M 14957,8303 C 4679,8303 7420,11508 8379,12039"/>
        <path fill="rgb(255,0,0)" stroke="none" d="M 8372,11873 L 8607,12113 8274,12157 8372,11873 Z"/>
       </g>
      </g>
      <g class="com.sun.star.drawing.ConnectorShape">
       <g id="id74">
        <rect class="BoundingBox" stroke="none" fill="none" x="9241" y="9427" width="5717" height="2688"/>
        <path fill="none" stroke="rgb(255,0,0)" d="M 9242,12113 C 13527,12113 10806,9696 14654,9578"/>
        <path fill="rgb(255,0,0)" stroke="none" d="M 14655,9428 L 14957,9573 14659,9728 14655,9428 Z"/>
       </g>
      </g>
      <g class="com.sun.star.drawing.CustomShape">
       <g id="id75">
        <rect class="BoundingBox" stroke="none" fill="none" x="14955" y="14333" width="639" height="639"/>
        <path fill="rgb(255,255,255)" stroke="none" d="M 15592,14652 C 15592,14708 15577,14763 15549,14811 15521,14859 15481,14899 15433,14927 15385,14955 15330,14970 15274,14970 15218,14970 15163,14955 15115,14927 15067,14899 15027,14859 14999,14811 14971,14763 14956,14708 14956,14652 14956,14596 14971,14541 14999,14493 15027,14445 15067,14405 15115,14377 15163,14349 15218,14334 15274,14334 15330,14334 15385,14349 15433,14377 15481,14405 15521,14445 15549,14493 15577,14541 15592,14596 15592,14652 L 15592,14652 Z"/>
        <path fill="none" stroke="rgb(0,169,51)" d="M 15592,14652 C 15592,14708 15577,14763 15549,14811 15521,14859 15481,14899 15433,14927 15385,14955 15330,14970 15274,14970 15218,14970 15163,14955 15115,14927 15067,14899 15027,14859 14999,14811 14971,14763 14956,14708 14956,14652 14956,14596 14971,14541 14999,14493 15027,14445 15067,14405 15115,14377 15163,14349 15218,14334 15274,14334 15330,14334 15385,14349 15433,14377 15481,14405 15521,14445 15549,14493 15577,14541 15592,14596 15592,14652 Z"/>
       </g>
      </g>
      <g class="com.sun.star.drawing.CustomShape">
       <g id="id76">
        <rect class="BoundingBox" stroke="none" fill="none" x="14955" y="19413" width="639" height="639"/>
        <path fill="rgb(255,255,255)" stroke="none" d="M 15592,19732 C 15592,19788 15577,19843 15549,19891 15521,19939 15481,19979 15433,20007 15385,20035 15330,20050 15274,20050 15218,20050 15163,20035 15115,20007 15067,19979 15027,19939 14999,19891 14971,19843 14956,19788 14956,19732 14956,19676 14971,19621 14999,19573 15027,19525 15067,19485 15115,19457 15163,19429 15218,19414 15274,19414 15330,19414 15385,19429 15433,19457 15481,19485 15521,19525 15549,19573 15577,19621 15592,19676 15592,19732 L 15592,19732 Z"/>
        <path fill="none" stroke="rgb(101,9,83)" d="M 15592,19732 C 15592,19788 15577,19843 15549,19891 15521,19939 15481,19979 15433,20007 15385,20035 15330,20050 15274,20050 15218,20050 15163,20035 15115,20007 15067,19979 15027,19939 14999,19891 14971,19843 14956,19788 14956,19732 14956,19676 14971,19621 14999,19573 15027,19525 15067,19485 15115,19457 15163,19429 15218,19414 15274,19414 15330,19414 15385,19429 15433,19457 15481,19485 15521,19525 15549,19573 15577,19621 15592,19676 15592,19732 Z"/>
       </g>
      </g>
      <g class="com.sun.star.drawing.LineShape">
       <g id="id77">
        <rect class="BoundingBox" stroke="none" fill="none" x="15124" y="9889" width="301" height="3177"/>
        <path fill="none" stroke="rgb(0,0,0)" d="M 15274,9890 L 15274,12785"/>
        <path fill="rgb(0,0,0)" stroke="none" d="M 15424,12765 L 15274,13065 15124,12765 15424,12765 Z"/>
       </g>
      </g>
      <g class="com.sun.star.drawing.LineShape">
       <g id="id78">
        <rect class="BoundingBox" stroke="none" fill="none" x="15124" y="14969" width="301" height="3177"/>
        <path fill="none" stroke="rgb(0,0,0)" d="M 15274,14970 L 15274,17865"/>
        <path fill="rgb(0,0,0)" stroke="none" d="M 15424,17845 L 15274,18145 15124,17845 15424,17845 Z"/>
       </g>
      </g>
      <g class="com.sun.star.drawing.ConnectorShape">
       <g id="id79">
        <rect class="BoundingBox" stroke="none" fill="none" x="4514" y="13382" width="10445" height="2631"/>
        <path fill="none" stroke="rgb(0,169,51)" d="M 14957,13383 C 869,13383 4739,15546 5837,15880"/>
        <path fill="rgb(0,169,51)" stroke="none" d="M 5802,15718 L 6067,15923 5744,16012 5802,15718 Z"/>
       </g>
      </g>
      <g class="com.sun.star.drawing.ConnectorShape">
       <g id="id80">
        <rect class="BoundingBox" stroke="none" fill="none" x="6701" y="14504" width="8257" height="1421"/>
        <path fill="none" stroke="rgb(0,169,51)" d="M 6702,15923 C 12892,15923 8907,14697 14640,14654"/>
        <path fill="rgb(0,169,51)" stroke="none" d="M 14656,14504 L 14957,14653 14658,14804 14656,14504 Z"/>
       </g>
      </g>
      <g class="com.sun.star.drawing.ConnectorShape">
       <g id="id81">
        <rect class="BoundingBox" stroke="none" fill="none" x="7309" y="10767" width="7650" height="2618"/>
        <path fill="none" stroke="rgb(0,169,51)" d="M 14957,13383 C 4679,13383 7402,11267 8365,10898"/>
        <path fill="rgb(0,169,51)" stroke="none" d="M 8280,10767 L 8607,10843 8350,11059 8280,10767 Z"/>
       </g>
      </g>
      <g class="com.sun.star.drawing.ConnectorShape">
       <g id="id82">
        <rect class="BoundingBox" stroke="none" fill="none" x="9241" y="10842" width="5717" height="3955"/>
        <path fill="none" stroke="rgb(0,169,51)" d="M 9242,10843 C 13527,10843 10801,14475 14664,14647"/>
        <path fill="rgb(0,169,51)" stroke="none" d="M 14661,14496 L 14957,14653 14654,14796 14661,14496 Z"/>
       </g>
      </g>
      <g class="com.sun.star.drawing.ConnectorShape">
       <g id="id83">
        <rect class="BoundingBox" stroke="none" fill="none" x="4569" y="5763" width="10390" height="7622"/>
        <path fill="none" stroke="rgb(0,169,51)" d="M 14957,13383 C 869,13383 4837,6671 5891,5846"/>
        <path fill="rgb(0,169,51)" stroke="none" d="M 5732,5764 L 6067,5763 5866,6032 5732,5764 Z"/>
       </g>
      </g>
      <g class="com.sun.star.drawing.ConnectorShape">
       <g id="id84">
        <rect class="BoundingBox" stroke="none" fill="none" x="6701" y="5762" width="8257" height="9036"/>
        <path fill="none" stroke="rgb(0,169,51)" d="M 6702,5763 C 12892,5763 8882,14399 14696,14648"/>
        <path fill="rgb(0,169,51)" stroke="none" d="M 14660,14496 L 14957,14653 14654,14796 14660,14496 Z"/>
       </g>
      </g>
      <g class="com.sun.star.drawing.ConnectorShape">
       <g id="id85">
        <rect class="BoundingBox" stroke="none" fill="none" x="7301" y="18462" width="7658" height="1385"/>
        <path fill="none" stroke="rgb(101,9,83)" d="M 14957,18463 C 4679,18463 7390,19514 8355,19704"/>
        <path fill="rgb(101,9,83)" stroke="none" d="M 8328,19547 L 8607,19733 8291,19845 8328,19547 Z"/>
       </g>
      </g>
      <g class="com.sun.star.drawing.ConnectorShape">
       <g id="id86">
        <rect class="BoundingBox" stroke="none" fill="none" x="9241" y="19583" width="5717" height="301"/>
        <path fill="none" stroke="rgb(101,9,83)" d="M 9242,19733 L 14677,19733"/>
        <path fill="rgb(101,9,83)" stroke="none" d="M 14657,19583 L 14957,19733 14657,19883 14657,19583 Z"/>
       </g>
      </g>
      <g class="com.sun.star.drawing.ConnectorShape">
       <g id="id87">
        <rect class="BoundingBox" stroke="none" fill="none" x="4584" y="9573" width="10375" height="8892"/>
        <path fill="none" stroke="rgb(101,9,83)" d="M 14957,18463 C 869,18463 4866,10562 5906,9657"/>
        <path fill="rgb(101,9,83)" stroke="none" d="M 5732,9588 L 6067,9573 5878,9850 5732,9588 Z"/>
       </g>
      </g>
      <g class="com.sun.star.drawing.ConnectorShape">
       <g id="id88">
        <rect class="BoundingBox" stroke="none" fill="none" x="6701" y="9572" width="8257" height="10305"/>
        <path fill="none" stroke="rgb(101,9,83)" d="M 6702,9573 C 12892,9573 8878,19453 14705,19727"/>
        <path fill="rgb(101,9,83)" stroke="none" d="M 14661,19575 L 14957,19733 14653,19875 14661,19575 Z"/>
       </g>
      </g>
      <g class="com.sun.star.drawing.ConnectorShape">
       <g id="id89">
        <rect class="BoundingBox" stroke="none" fill="none" x="4638" y="4493" width="10321" height="13972"/>
        <path fill="none" stroke="rgb(101,9,83)" d="M 14957,18463 C 869,18463 4968,5662 5952,4567"/>
        <path fill="rgb(101,9,83)" stroke="none" d="M 5735,4541 L 6067,4493 5906,4787 5735,4541 Z"/>
       </g>
      </g>
      <g class="com.sun.star.drawing.ConnectorShape">
       <g id="id90">
        <rect class="BoundingBox" stroke="none" fill="none" x="6701" y="4492" width="8257" height="15383"/>
        <path fill="none" stroke="rgb(101,9,83)" d="M 6702,4493 C 12892,4493 8861,19373 14741,19727"/>
        <path fill="rgb(101,9,83)" stroke="none" d="M 14662,19573 L 14957,19733 14652,19873 14662,19573 Z"/>
       </g>
      </g>
      <g class="com.sun.star.drawing.CustomShape">
       <g id="id91">
        <rect class="BoundingBox" stroke="none" fill="none" x="7335" y="24493" width="639" height="639"/>
        <path fill="rgb(255,255,255)" stroke="none" d="M 7972,24812 C 7972,24868 7957,24923 7929,24971 7901,25019 7861,25059 7813,25087 7765,25115 7710,25130 7654,25130 7598,25130 7543,25115 7495,25087 7447,25059 7407,25019 7379,24971 7351,24923 7336,24868 7336,24812 7336,24756 7351,24701 7379,24653 7407,24605 7447,24565 7495,24537 7543,24509 7598,24494 7654,24494 7710,24494 7765,24509 7813,24537 7861,24565 7901,24605 7929,24653 7957,24701 7972,24756 7972,24812 L 7972,24812 Z"/>
        <path fill="none" stroke="rgb(0,0,0)" d="M 7972,24812 C 7972,24868 7957,24923 7929,24971 7901,25019 7861,25059 7813,25087 7765,25115 7710,25130 7654,25130 7598,25130 7543,25115 7495,25087 7447,25059 7407,25019 7379,24971 7351,24923 7336,24868 7336,24812 7336,24756 7351,24701 7379,24653 7407,24605 7447,24565 7495,24537 7543,24509 7598,24494 7654,24494 7710,24494 7765,24509 7813,24537 7861,24565 7901,24605 7929,24653 7957,24701 7972,24756 7972,24812 Z"/>
       </g>
      </g>
      <g class="com.sun.star.drawing.CustomShape">
       <g id="id92">
        <rect class="BoundingBox" stroke="none" fill="none" x="14955" y="24493" width="639" height="639"/>
        <path fill="rgb(255,255,255)" stroke="none" d="M 15592,24812 C 15592,24868 15577,24923 15549,24971 15521,25019 15481,25059 15433,25087 15385,25115 15330,25130 15274,25130 15218,25130 15163,25115 15115,25087 15067,25059 15027,25019 14999,24971 14971,24923 14956,24868 14956,24812 14956,24756 14971,24701 14999,24653 15027,24605 15067,24565 15115,24537 15163,24509 15218,24494 15274,24494 15330,24494 15385,24509 15433,24537 15481,24565 15521,24605 15549,24653 15577,24701 15592,24756 15592,24812 L 15592,24812 Z"/>
        <path fill="none" stroke="rgb(0,0,0)" d="M 15592,24812 C 15592,24868 15577,24923 15549,24971 15521,25019 15481,25059 15433,25087 15385,25115 15330,25130 15274,25130 15218,25130 15163,25115 15115,25087 15067,25059 15027,25019 14999,24971 14971,24923 14956,24868 14956,24812 14956,24756 14971,24701 14999,24653 15027,24605 15067,24565 15115,24537 15163,24509 15218,24494 15274,24494 15330,24494 15385,24509 15433,24537 15481,24565 15521,24605 15549,24653 15577,24701 15592,24756 15592,24812 Z"/>
       </g>
      </g>
      <g class="com.sun.star.drawing.LineShape">
       <g id="id93">
        <rect class="BoundingBox" stroke="none" fill="none" x="7971" y="24662" width="6987" height="301"/>
        <path fill="none" stroke="rgb(0,0,0)" d="M 7972,24812 L 14677,24812"/>
        <path fill="rgb(0,0,0)" stroke="none" d="M 14657,24662 L 14957,24812 14657,24962 14657,24662 Z"/>
       </g>
      </g>
      <g class="com.sun.star.drawing.LineShape">
       <g id="id94">
        <rect class="BoundingBox" stroke="none" fill="none" x="7504" y="23860" width="301" height="637"/>
        <path fill="none" stroke="rgb(0,0,0)" d="M 7654,24495 L 7654,24140"/>
        <path fill="rgb(0,0,0)" stroke="none" d="M 7504,24160 L 7654,23860 7804,24160 7504,24160 Z"/>
       </g>
      </g>
      <g class="com.sun.star.drawing.LineShape">
       <g id="id95">
        <rect class="BoundingBox" stroke="none" fill="none" x="15124" y="20049" width="301" height="4447"/>
        <path fill="none" stroke="rgb(0,0,0)" d="M 15274,20050 L 15274,24215"/>
        <path fill="rgb(0,0,0)" stroke="none" d="M 15424,24195 L 15274,24495 15124,24195 15424,24195 Z"/>
       </g>
      </g>
     </g>
    </g>
   </g>
  </g>
 </g>
</svg>