<?xml version="1.0" encoding="UTF-8" standalone="no"?>
<!-- Created with Inkscape (http://www.inkscape.org/) -->

<svg
   width="223.30833mm"
   height="222.51457mm"
   viewBox="0 0 223.30833 222.51457"
   version="1.1"
   id="svg307"
   xml:space="preserve"
   inkscape:version="1.2 (dc2aedaf03, 2022-05-15)"
   sodipodi:docname="The Stroke of the Hour clock face.svg"
   xmlns:inkscape="http://www.inkscape.org/namespaces/inkscape"
   xmlns:sodipodi="http://sodipodi.sourceforge.net/DTD/sodipodi-0.dtd"
   xmlns="http://www.w3.org/2000/svg"
   xmlns:svg="http://www.w3.org/2000/svg"><sodipodi:namedview
     id="namedview309"
     pagecolor="#ffffff"
     bordercolor="#000000"
     borderopacity="0.25"
     inkscape:showpageshadow="2"
     inkscape:pageopacity="0.0"
     inkscape:pagecheckerboard="0"
     inkscape:deskcolor="#d1d1d1"
     inkscape:document-units="mm"
     showgrid="false"
     inkscape:zoom="0.48284231"
     inkscape:cx="367.61484"
     inkscape:cy="428.71139"
     inkscape:window-width="1920"
     inkscape:window-height="1057"
     inkscape:window-x="-8"
     inkscape:window-y="-8"
     inkscape:window-maximized="1"
     inkscape:current-layer="layer1" /><defs
     id="defs304" /><g
     inkscape:label="Layer 1"
     inkscape:groupmode="layer"
     id="layer1"
     transform="translate(2.0600712,-13.264304)"><path
       style="fill:#000000;stroke-width:1"
       d="M -2.0600712,124.52159 V 13.264304 H 109.59409 221.24826 V 124.52159 235.77888 H 109.59409 -2.0600712 Z M 107.81346,231.41325 c -0.0335,-0.14552 -1.46221,-0.34933 -3.175,-0.45291 -9.882856,-0.59766 -18.337145,-2.07546 -26.265199,-4.59114 -6.294255,-1.99724 -11.298976,-3.99415 -17.008851,-6.78662 -2.672323,-1.30692 -3.099482,-1.44629 -3.099482,-1.01122 0,0.25111 6.609395,3.56189 9.849368,4.93374 1.579788,0.66891 5.72139,2.11253 10.920423,3.80649 2.143797,0.69849 6.758075,1.80263 9.921875,2.37417 0.654844,0.11829 2.143125,0.39975 3.307292,0.62546 3.186935,0.61788 6.730693,1.01975 10.847914,1.23018 4.41374,0.22558 4.7807,0.21558 4.70166,-0.12815 z m 14.08376,-0.14677 c 7.79394,-0.57831 17.21233,-2.54709 24.07708,-5.03298 0.87313,-0.31617 2.18281,-0.78592 2.91042,-1.04388 4.23843,-1.50263 13.09687,-5.63674 13.09687,-6.11212 0,-0.44473 -0.97639,-0.22619 -2.66509,0.59651 -9.47404,4.61559 -19.41683,8.10426 -26.30678,9.23039 -0.7276,0.11892 -2.8112,0.47017 -4.63021,0.78057 -1.81901,0.31039 -6.21455,0.7667 -9.76787,1.01402 -4.58857,0.31938 -6.49231,0.5452 -6.57013,0.77934 -0.11894,0.35793 3.11291,0.28846 9.85571,-0.21185 z m -10.20605,-0.62337 c 0.17038,-0.20529 0.37874,-0.79818 0.46301,-1.31753 0.13326,-0.82114 0.0417,-1.04847 -0.70224,-1.7434 -0.47396,-0.44275 -1.14706,-0.79913 -1.5093,-0.79913 -0.79018,0 -2.20063,1.33255 -2.20063,2.07909 0,0.79234 0.47378,1.88966 0.81589,1.88966 0.28357,0 0.21489,-0.66195 -0.17376,-1.67476 -0.20738,-0.54043 0.79439,-1.50024 1.56582,-1.50024 0.34125,0 0.83218,0.23395 1.09095,0.51989 0.45607,0.50395 0.4559,0.84987 -10e-4,2.32438 -0.20764,0.66995 0.17218,0.79943 0.65137,0.22204 z m -4.92458,-0.67156 c 0.11836,-0.007 0.17789,-0.40046 0.13229,-0.8734 -0.0829,-0.8599 -0.0829,-0.8599 -2.9545,-1.07511 -1.57938,-0.11836 -2.90747,-0.17789 -2.95131,-0.13229 -0.0438,0.0456 -0.12084,0.49964 -0.17111,1.00896 -0.0907,0.91855 -0.0818,0.92711 1.09922,1.05834 0.94581,0.10509 3.28187,0.11159 4.84541,0.0135 z m 12.94782,-0.18777 c 0.10914,-0.0668 0.19843,-0.52941 0.19843,-1.02792 0,-0.90637 0,-0.90637 -1.52135,-0.77251 -0.83674,0.0736 -2.29526,0.18169 -3.24115,0.24015 -0.94588,0.0585 -1.80908,0.11547 -1.91822,0.12667 -0.10915,0.0112 -0.19844,0.45239 -0.19844,0.98041 v 0.96004 l 3.24114,-0.19265 c 1.78263,-0.10596 3.33045,-0.24734 3.43959,-0.31419 z m 8.13593,-0.61922 c 0.65485,-0.12813 1.63711,-0.30506 2.18282,-0.39318 1.0743,-0.17349 1.12826,-0.27306 0.72412,-1.33602 -0.24398,-0.64173 -0.36872,-0.69422 -1.38906,-0.58446 -2.5555,0.27488 -6.68306,0.80505 -6.76046,0.86836 -0.0458,0.0374 -0.002,0.50273 0.098,1.03401 0.18122,0.96595 0.18122,0.96595 2.06758,0.8051 1.0375,-0.0885 2.42215,-0.26569 3.07699,-0.39381 z m -29.977589,-0.6246 c 0.02519,-0.88891 0.02519,-0.88891 -3.585583,-1.45676 -1.985931,-0.31231 -3.730546,-0.56715 -3.876924,-0.56629 -0.43588,0.003 -1.048737,1.61332 -0.696624,1.83094 0.163798,0.10123 1.399926,0.33544 2.746954,0.52046 1.347031,0.18502 2.627739,0.37303 2.84602,0.41779 0.218281,0.0448 0.879295,0.0952 1.468916,0.11209 1.041678,0.0298 1.072756,0.005 1.097241,-0.85823 z m -11.032824,-1.75187 c 0,-0.9334 -0.08282,-1.07173 -0.727604,-1.21524 -0.733912,-0.16334 -5.378643,-1.37762 -6.195054,-1.61958 -0.270381,-0.0801 -0.557702,0.0887 -0.744334,0.43746 -0.62303,1.16414 -0.311304,1.38404 3.434003,2.42243 1.964343,0.54461 3.720359,0.99876 3.90226,1.00921 0.212381,0.0122 0.330729,-0.3579 0.330729,-1.03428 z m 49.355353,0.62995 c 0.86732,-0.23283 2.27085,-0.59081 3.11895,-0.7955 2.3031,-0.55584 2.60698,-0.76769 2.24401,-1.56433 -0.34696,-0.76148 -0.92405,-0.82322 -2.61441,-0.27968 -0.64439,0.2072 -2.09202,0.57199 -3.21696,0.81065 -1.12494,0.23865 -2.09626,0.51628 -2.15848,0.61696 -0.0622,0.10067 -0.0507,0.50979 0.0257,0.90914 0.16306,0.85302 0.43402,0.88455 2.60121,0.30276 z m -28.16967,-0.69088 c 1.02523,-0.75799 2.69073,-0.72116 3.77919,0.0836 0.76042,0.5622 0.92633,0.57503 5.17443,0.40018 4.43734,-0.18264 9.50301,-0.73436 10.09353,-1.09932 0.17685,-0.1093 0.8111,-0.23566 1.40946,-0.28081 2.54943,-0.19237 3.99264,-0.44883 6.69232,-1.18921 1.57424,-0.43173 3.75523,-1.00531 4.84664,-1.27463 3.59969,-0.88827 8.40661,-2.6499 14.75759,-5.40833 3.14852,-1.3675 4.4501,-2.1955 5.05027,-3.21272 0.65976,-1.11819 1.81256,-1.7307 3.15815,-1.67798 0.818,0.0321 1.47754,-0.23011 3.12449,-1.24197 2.20848,-1.35685 6.30194,-4.21571 6.99506,-4.88532 0.22671,-0.21901 1.52326,-1.29118 2.88123,-2.38258 7.32523,-5.88731 11.17369,-9.7026 16.5772,-16.43432 4.94308,-6.15811 6.19351,-8.11211 6.19351,-9.67838 0,-1.42054 0.79596,-2.79708 1.81404,-3.13719 0.4577,-0.1529 0.95229,-0.39812 1.0991,-0.54492 0.84858,-0.84858 6.34727,-13.03732 6.34727,-14.06975 0,-0.20525 0.16478,-0.74836 0.36617,-1.20691 2.48328,-5.65426 4.99489,-17.40276 5.75008,-26.89705 0.32636,-4.10289 0.32636,-4.10289 -0.41187,-5.21842 -0.80811,-1.22114 -0.7929,-1.70697 0.11405,-3.64327 0.44987,-0.96043 0.4729,-1.37651 0.24896,-4.49792 -0.13572,-1.89177 -0.42532,-4.17842 -0.64354,-5.08146 -0.21822,-0.90303 -0.39676,-2.0548 -0.39676,-2.5595 0,-1.02182 -0.21458,-2.15749 -1.35578,-7.1757 -2.09637,-9.218388 -4.03988,-14.858138 -7.7722,-22.553598 -1.8032,-3.71791 -2.04856,-4.08873 -3.14262,-4.74957 -1.37094,-0.82807 -1.75232,-1.50434 -1.75232,-3.10722 0,-1.02354 -0.26401,-1.52063 -2.41745,-4.55161 -6.72706,-9.468424 -14.67326,-17.554239 -24.04088,-24.463293 -5.64527,-4.163644 -7.50126,-5.265332 -8.87042,-5.265332 -1.23168,0 -2.57688,-0.850731 -2.96309,-1.873929 -0.58419,-1.547707 -13.96612,-7.273179 -22.29774,-9.540112 -1.09141,-0.296958 -2.81781,-0.765968 -3.83646,-1.042244 -4.8312,-1.31031 -10.4362,-2.214478 -16.49823,-2.661403 -3.61487,-0.266508 -4.16282,-0.25184 -4.96991,0.133036 -1.15007,0.548431 -2.9759,0.556379 -3.74695,0.01631 -1.78265,-1.248619 -14.830599,0.257558 -25.190891,2.907888 -5.713079,1.461497 -8.589163,2.443015 -14.946103,5.100637 -4.626462,1.934168 -8.248893,3.892427 -8.466074,4.576695 -0.254513,0.801905 -1.546474,1.575658 -2.952776,1.768413 -0.702599,0.0963 -1.85016,0.512776 -2.550134,0.925495 -2.301234,1.356857 -5.213307,3.404642 -5.213307,3.666027 0,0.141086 -0.160735,0.256521 -0.357185,0.256521 -0.425125,0 -4.739553,3.310348 -7.712607,5.917681 -4.925877,4.31994 -12.232029,12.072289 -14.728079,15.627546 -4.497949,6.406674 -5.084391,7.384864 -5.15599,8.600304 -0.07713,1.3094 -0.713289,2.35752 -1.735514,2.85943 -0.905355,0.44452 -0.991239,0.5704 -2.663793,3.90441 -4.618597,9.20655 -7.603403,17.77085 -9.1750846,26.326038 -0.1737693,0.94589 -0.4257966,2.25558 -0.5600607,2.91042 -0.3254891,1.5875 -0.9657503,7.1839 -1.186462,10.37063 -0.1585781,2.28962 -0.1205902,2.65941 0.3533393,3.43958 0.9392227,1.54614 0.9840415,2.45562 0.1879555,3.81403 -0.7090216,1.20986 -0.7090216,1.20986 -0.3993136,5.88187 0.1703395,2.56961 0.5438611,6.21983 0.8300479,8.1116 1.3753712,9.09156 5.0766792,20.81428 8.8783172,28.11925 1.750838,3.36429 2.502265,4.424 3.504512,4.94229 0.976179,0.5048 1.708185,2.04821 1.499359,3.16135 -0.140014,0.74634 0.116865,1.26565 2.114035,4.27376 1.250378,1.8833 2.539492,3.72184 2.864694,4.08564 0.325204,0.3638 0.777166,0.95911 1.004361,1.32291 0.540826,0.86601 7.644204,8.66828 9.787405,10.75037 3.955563,3.84278 9.791986,8.54348 13.999803,11.27555 4.373914,2.83992 4.384021,2.84492 5.753071,2.84492 1.44377,0 2.524992,0.64231 2.777982,1.6503 0.407437,1.62336 14.510445,7.49851 22.75963,9.4814 1.765839,0.42446 3.567805,0.88248 4.004368,1.01783 0.436562,0.13535 2.341562,0.49666 4.233333,0.80293 1.891771,0.30626 4.094427,0.68795 4.894792,0.84819 1.806765,0.36174 7.503849,0.93648 9.734149,0.98202 1.337,0.0273 1.82001,-0.0811 2.4557,-0.55106 z m -6.23672,-1.72606 c -1.36787,-0.13635 -1.75501,-0.51138 -1.05834,-1.02522 0.51361,-0.37882 0.53135,-0.7413 0.60324,-12.32598 0.0741,-11.93567 0.0741,-11.93567 -0.51243,-12.55997 -0.898231,-0.95613 -0.39968,-1.18876 1.90625,-0.88951 1.08443,0.14073 2.59677,0.25955 3.36076,0.26404 1.06743,0.006 1.38906,0.10199 1.38906,0.41335 0,0.22285 -0.20836,0.48205 -0.46302,0.57601 -0.25466,0.094 -0.5505,0.29858 -0.65741,0.45472 -0.23262,0.33973 -0.27286,23.20826 -0.0419,23.81016 0.25465,0.66361 1.11357,0.48837 1.51495,-0.30909 0.20142,-0.40018 0.57041,-1.8587 0.81998,-3.24115 0.24957,-1.38245 0.56196,-3.04932 0.69419,-3.70416 0.28173,-1.39519 1.40439,-7.5772 1.82584,-10.05417 0.79752,-4.6872 1.38508,-7.56241 1.58688,-7.76535 0.1229,-0.12359 0.44945,-0.15299 0.72566,-0.0653 0.37718,0.11971 0.84131,1.19655 1.86444,4.32576 1.61686,4.94508 4.51379,14.09121 5.47728,17.29276 0.67873,2.25533 1.25986,3.14548 2.05351,3.14548 0.67165,0 1.07906,0.66646 0.63348,1.03626 -0.434,0.36018 -6.78293,0.97034 -7.44663,0.71565 -0.40852,-0.15676 -0.40983,-0.21967 -0.017,-0.81925 0.23404,-0.3572 0.42553,-0.94613 0.42553,-1.30873 0,-0.53181 -1.28666,-5.73343 -2.91754,-11.79476 -0.13704,-0.50932 -0.37468,-1.43206 -0.52809,-2.05052 -0.15341,-0.61846 -0.37019,-1.12448 -0.48172,-1.12448 -0.11154,0 -0.35378,0.92273 -0.53832,2.05052 -0.18454,1.12779 -0.6749,3.77693 -1.08969,5.88698 -1.48158,7.53685 -1.50991,8.13557 -0.40511,8.55953 0.22232,0.0853 0.40422,0.27791 0.40422,0.428 0,0.26451 -6.68509,0.32196 -9.12812,0.0784 z m -31.379511,-7.47699 c -3.601669,-1.51662 -4.206951,-1.83351 -4.206951,-2.20249 0,-0.20827 0.340092,-0.4467 0.755763,-0.52983 0.88074,-0.17615 1.04226,-0.51471 2.042211,-4.28062 0.386397,-1.45521 0.798041,-3.00302 0.914765,-3.43958 0.116723,-0.43656 0.529603,-1.86531 0.917509,-3.175 0.747276,-2.52303 1.444154,-5.15971 1.451035,-5.49011 0.01069,-0.51268 -0.539641,-0.0409 -2.119018,1.8165 -0.942319,1.10822 -1.951432,2.28104 -2.242474,2.60627 -1.077835,1.20446 -5.883132,7.17684 -6.325489,7.86179 -0.434332,0.67252 -0.434205,0.74523 0.0024,1.41165 0.38074,0.58108 0.397806,0.74126 0.09866,0.92614 -0.403098,0.24913 -0.377539,0.26043 -3.243709,-1.43409 -1.131094,-0.66873 -2.123596,-1.21586 -2.205564,-1.21586 -0.224563,0 -7.72437,-5.01602 -8.177874,-5.46953 -0.597495,-0.59749 -0.189741,-0.938 0.902306,-0.7535 1.037876,0.17535 1.316376,-0.0246 2.57262,-1.84676 4.242099,-6.15318 6.0051,-8.99314 7.984427,-12.86186 1.294587,-2.53035 2.544662,-4.94772 2.777942,-5.37193 0.255902,-0.46534 0.364644,-1.06881 0.274135,-1.52135 -0.216884,-1.08443 0.319053,-0.96634 2.034675,0.44829 0.799333,0.6591 2.971379,2.21642 4.82677,3.4607 1.85539,1.24429 3.373437,2.3509 3.373437,2.45914 0,0.10825 -0.440306,0.3071 -0.978455,0.44191 -0.888193,0.22249 -1.147549,0.52579 -2.81141,3.28781 -1.008126,1.67349 -3.23092,5.36442 -4.939543,8.20208 -1.708624,2.83766 -3.650345,6.04958 -4.314934,7.13761 -0.856437,1.40213 -1.130715,2.07178 -0.941792,2.29942 0.498255,0.60036 1.292529,-0.0471 4.008244,-3.26713 1.486017,-1.76201 4.449861,-5.2105 6.586321,-7.66333 2.13646,-2.45283 4.577241,-5.25592 5.423958,-6.22909 1.665936,-1.91474 2.332463,-2.32553 2.861389,-1.76353 0.274611,0.29179 -0.07512,1.99575 -1.89267,9.22147 -1.226241,4.87494 -2.334858,9.33979 -2.463596,9.92187 -0.128739,0.58208 -0.480939,1.99615 -0.782664,3.14236 -0.685665,2.60472 -0.685586,2.60736 0.105484,3.5475 1.123873,1.33564 0.386215,1.44073 -2.267963,0.32308 z m -14.44208,-11.18013 c 4.149622,-6.36452 11.617529,-19.14104 11.511077,-19.6938 -0.211167,-1.0965 -0.97975,-0.31396 -3.03606,3.0912 -1.186344,1.96453 -3.088275,5.11969 -4.226515,7.01146 -1.13824,1.89177 -2.993996,4.92786 -4.123899,6.74687 -2.137378,3.44093 -2.426628,4.23334 -1.545283,4.23334 0.329904,0 0.84055,-0.49928 1.42068,-1.38907 z m 96.753881,9.64995 c 0,-0.2587 0.23812,-0.67425 0.52916,-0.92345 0.74453,-0.63749 0.67576,-1.89818 -0.24512,-4.49366 -1.39826,-3.94095 -2.11626,-6.11862 -2.76958,-8.40002 -1.1142,-3.89086 -2.44779,-8.05704 -2.75376,-8.60287 -0.16194,-0.28889 -0.46539,-1.3249 -0.67434,-2.30223 -0.42264,-1.97687 -0.32524,-2.20697 1.04406,-2.46671 0.69635,-0.13209 1.00463,0.0994 3.28208,2.46412 3.07303,3.19083 4.65604,4.87289 9.39388,9.98165 5.87928,6.33956 5.51829,6.0282 6.74821,5.8204 0.98279,-0.16604 1.05516,-0.13559 1.0462,0.44019 -0.008,0.5053 -0.566,0.9456 -3.04804,2.40451 -1.67113,0.98226 -3.21461,1.78594 -3.42996,1.78594 -0.44496,0 -0.52473,-0.41562 -0.12696,-0.66146 0.84681,-0.52336 0.11131,-1.58963 -5.35781,-7.76723 -3.09232,-3.49291 -5.72658,-6.35912 -5.85391,-6.36936 -0.32736,-0.0263 -0.0127,1.35013 0.87212,3.81517 0.71887,2.00269 1.39002,4.08095 3.05768,9.46832 0.75471,2.43811 1.18011,3.10206 1.98751,3.10206 0.73228,0 1.32566,0.28235 1.32566,0.6308 0,0.29387 -4.21583,2.5442 -4.76639,2.5442 -0.14338,0 -0.26069,-0.21167 -0.26069,-0.47037 z m -46.0598,-19.21929 c -0.0608,-0.0608 -1.59866,-0.24731 -3.41753,-0.41453 -3.368901,-0.30973 -5.818229,-0.70548 -9.127881,-1.47482 -1.018646,-0.23679 -2.506927,-0.58085 -3.307292,-0.76458 -2.676869,-0.61448 -4.511651,-1.2203 -7.290752,-2.40733 -1.517206,-0.64804 -2.850441,-1.17825 -2.962741,-1.17825 -0.112299,0 -1.585693,-0.6922 -3.274203,-1.53822 -3.060882,-1.53365 -7.488068,-4.37562 -12.004595,-7.7062 -1.309687,-0.96579 -2.833984,-2.0491 -3.387325,-2.40735 -1.185567,-0.76756 -7.560167,-7.3638 -9.323046,-9.64719 -0.67409,-0.87312 -1.468488,-2.06375 -1.765327,-2.64583 -0.296839,-0.58208 -0.949383,-1.62084 -1.450099,-2.30835 -0.500716,-0.6875 -1.336633,-2.05672 -1.857592,-3.04271 -0.520959,-0.98598 -1.332021,-2.39746 -1.802358,-3.13663 -0.470339,-0.73917 -0.941556,-1.63214 -1.047152,-1.98438 -0.105595,-0.35224 -0.335801,-0.87856 -0.511563,-1.1696 -0.378093,-0.62606 -1.760374,-4.09563 -2.650472,-6.65276 -0.347266,-0.99765 -1.010346,-2.82593 -1.473515,-4.06286 -0.463166,-1.23693 -1.013814,-2.95729 -1.223663,-3.82302 -0.416558,-1.71851 -1.153396,-9.35155 -1.155518,-11.97022 -0.0013,-1.71265 -0.181398,-2.0512 -0.936553,-1.76142 -0.481182,0.18465 -0.48156,0.12986 0.04673,6.77289 0.137311,1.72659 0.09979,2.05052 -0.237537,2.05052 -0.220338,0 -0.584095,-0.28003 -0.808353,-0.62229 -0.407741,-0.6223 -0.407741,-0.6223 -12.881158,-0.59532 -11.587889,0.0251 -12.491824,0.0599 -12.73271,0.49 -0.288919,0.51593 -0.903234,0.61235 -1.168348,0.18338 -0.2646123,-0.42815 -0.4224278,-11.71176 -0.1692324,-12.09988 0.1600362,-0.24532 0.4059774,-0.2712 0.8766304,-0.0923 0.368641,0.14016 1.109731,0.1566 1.69784,0.0377 1.74065,-0.35202 6.872226,-2.28156 6.751767,-2.53875 -0.141721,-0.30259 -5.401629,-2.41533 -6.59648,-2.6496 -0.762879,-0.14958 -0.971591,-0.0698 -1.477562,0.56474 -0.923673,1.1584 -1.2945252,0.67199 -1.089864,-1.42946 0.093922,-0.96439 0.234748,-2.08085 0.312947,-2.48103 0.210019,-1.07477 0.966764,-0.9313 1.503402,0.28502 0.477247,1.0817 0.910147,1.33701 4.946734,2.91738 1.091406,0.42729 2.652655,1.04267 3.469442,1.36751 1.485068,0.59061 1.485068,0.59061 3.294171,-0.0114 0.995007,-0.33112 2.648444,-0.98303 3.674308,-1.44869 1.025861,-0.46566 2.520047,-1.05845 3.320412,-1.31731 2.689378,-0.86981 6.213848,-2.30106 6.670873,-2.70897 0.249793,-0.22295 0.650727,-0.32866 0.893382,-0.23554 0.476144,0.18271 0.444222,0.93209 -0.20124,4.72389 -0.292023,1.71551 -0.758944,2.30051 -1.108696,1.38907 -0.296276,-0.77209 -1.149641,-0.55841 -7.80922,1.95543 -0.782436,0.29536 -1.483558,0.59796 -1.558049,0.67245 -0.396444,0.39644 1.695704,0.63789 6.238449,0.71996 5.077754,0.0917 5.077754,0.0917 5.20573,-0.70201 0.07038,-0.43656 0.114832,-1.09141 0.09877,-1.45521 -0.01606,-0.3638 0.148772,-1.49489 0.366302,-2.51354 0.21753,-1.01865 0.608298,-3.04271 0.868376,-4.49792 0.260077,-1.45521 0.704554,-3.47927 0.987721,-4.49791 0.283171,-1.01865 0.600798,-2.32834 0.70584,-2.91042 0.105042,-0.58208 0.449911,-1.5596 0.766373,-2.17227 0.316466,-0.61267 0.57539,-1.34075 0.57539,-1.61797 0,-0.27721 0.215228,-0.78797 0.478284,-1.13502 0.263057,-0.34704 0.940562,-1.762078 1.505569,-3.144528 1.466499,-3.58821 4.56909,-9.19094 6.469489,-11.68274 0.516652,-0.67744 1.571032,-2.10619 2.34307,-3.175 2.892753,-4.00475 8.669131,-10.22741 10.661359,-11.48505 0.595202,-0.37573 2.172176,-1.48212 3.504393,-2.45863 1.332217,-0.97652 3.493773,-2.413842 4.80346,-3.194048 1.309688,-0.780206 2.96472,-1.782439 3.677851,-2.227185 2.101356,-1.310516 9.780183,-4.579223 12.115882,-5.157462 0.682908,-0.169064 1.635408,-0.539009 2.116667,-0.822098 0.481258,-0.283091 1.708454,-0.64221 2.7271,-0.798044 1.018646,-0.155834 2.387865,-0.395253 3.042708,-0.532045 5.352475,-1.118082 10.605845,-1.620721 16.536465,-1.582198 6.38126,0.04145 11.77491,0.663636 16.00729,1.846524 0.94588,0.264362 2.37463,0.624197 3.175,0.799637 0.80036,0.175438 1.6338,0.472155 1.85208,0.659371 0.21828,0.187217 1.21767,0.667838 2.22086,1.068046 l 1.82399,0.727657 1.35101,-1.498597 c 1.38765,-1.539235 2.32681,-1.910858 2.65668,-1.051242 0.0944,0.246022 0.0931,1.244248 -0.003,2.218279 l -0.17451,1.77097 2.21398,1.169131 c 7.83869,4.139361 7.66714,4.034046 13.0045,7.983684 2.6948,1.99415 7.62522,6.56153 9.60765,8.90021 3.9732,4.68719 6.29503,8.16058 8.2242,12.30312 0.33884,0.7276 0.80966,1.6801 1.04625,2.11667 3.8284,7.063968 5.06675,10.557868 6.98641,19.711448 0.51209,2.44183 0.91086,7.11913 0.89103,10.45105 -0.0431,7.24268 -0.42427,12.80481 -1.04055,15.1847 -1.68368,6.5019 -2.3408,8.46031 -3.97402,11.84374 -0.50258,1.04117 -0.91379,1.98643 -0.91379,2.10058 0,0.35369 -3.60612,7.31661 -5.00254,9.65922 -0.72855,1.22219 -2.07391,3.17189 -2.98969,4.33266 -2.19651,2.78411 -2.97982,3.86582 -3.47157,4.79404 -0.40136,0.75761 -1.44526,1.81989 -6.13099,6.23893 -3.05519,2.88131 -7.74542,6.43146 -9.78478,7.40636 -1.76873,0.84552 -5.98359,3.33073 -7.02815,4.14401 -0.37034,0.28835 -1.14425,0.66166 -1.71979,0.82958 -0.57555,0.16793 -1.40363,0.53496 -1.84019,0.81564 -0.43657,0.28069 -0.97235,0.58051 -1.19063,0.66629 -0.21828,0.0858 -0.73046,0.33559 -1.13818,0.55513 -0.40771,0.21955 -0.91583,0.3322 -1.12915,0.25034 -0.21332,-0.0819 -0.7727,0.0198 -1.24307,0.22581 -0.47037,0.20606 -1.5696,0.56684 -2.44272,0.80175 -0.87313,0.23491 -1.95314,0.53964 -2.40004,0.67718 -0.44689,0.13754 -1.19695,0.25008 -1.66678,0.25008 -0.46984,0 -1.2167,0.18743 -1.6597,0.41651 -0.46304,0.23945 -2.39767,0.58228 -4.55092,0.80646 -2.06002,0.21447 -4.81704,0.50006 -6.12673,0.63465 -2.40749,0.2474 -8.68209,0.3523 -8.88584,0.14855 z M 56.528743,135.3931 c 0.645715,-0.37841 1.612511,-1.22313 2.148435,-1.87716 0.894961,-1.09218 1.072586,-1.18914 2.178476,-1.18914 1.247595,0 2.171774,-0.53707 2.171774,-1.2621 0,-0.21248 -0.43914,-0.78856 -0.975866,-1.28018 -0.975868,-0.89386 -0.975868,-0.89386 -0.539623,-1.80867 0.512496,-1.07472 1.375704,-1.70212 2.619587,-1.90397 0.81733,-0.13264 0.929457,-0.0681 1.284756,0.73949 0.638974,1.45237 2.109062,1.2395 2.109062,-0.3054 0,-1.22959 0.495914,-1.40676 3.372406,-1.20485 1.419397,0.0996 3.620923,0.29341 4.892281,0.4306 3.248985,0.3506 10.373248,0.36794 12.10823,0.0295 0.800364,-0.15615 2.43899,-0.41601 3.641389,-0.57749 l 2.186178,-0.2936 1.322795,1.35806 c 0.727538,0.74694 1.470162,1.30969 1.650277,1.25057 0.180118,-0.0591 0.36458,-0.48239 0.409919,-0.94061 0.08802,-0.88966 1.101384,-1.90425 1.90194,-1.90425 0.25179,0 0.77417,0.24885 1.160831,0.553 0.60026,0.47217 0.82396,0.51084 1.53037,0.26458 1.43006,-0.49852 1.72149,-0.3695 2.58856,1.14598 1.79098,3.13031 4.97643,4.76651 8.04108,4.13029 3.13615,-0.65106 5.62087,-3.00973 6.28181,-5.96314 0.36624,-1.63655 0.16192,-2.66597 -1.00424,-5.05947 -0.6042,-1.24011 -0.62731,-1.4109 -0.26852,-1.98438 0.21591,-0.34511 0.47424,-0.97762 0.57405,-1.40556 0.0998,-0.42794 0.43174,-0.99512 0.73762,-1.26041 0.52083,-0.45171 0.81688,-0.45373 1.98813,-0.0136 0.41301,0.15521 0.43573,-0.73531 0.0409,-1.60193 -0.24432,-0.53621 -0.1525,-0.90011 0.58432,-2.31587 0.83427,-1.60299 0.97433,-2.41769 0.72299,-4.20525 -0.0741,-0.527 0.0589,-0.696 0.70234,-0.89246 1.74077,-0.5315 1.98437,-0.69306 1.98437,-1.31606 0,-0.34156 -0.29765,-0.90064 -0.66145,-1.24242 -0.91599,-0.86052 -0.84565,-1.68466 0.21268,-2.49189 1.13999,-0.86951 2.69648,-1.511498 3.19801,-1.319038 0.24393,0.0936 0.42858,0.575018 0.47782,1.245718 0.0638,0.86915 0.22685,1.17509 0.79571,1.49302 0.66005,0.36889 0.7728,0.35726 1.45521,-0.15002 0.5068,-0.37674 0.7665,-0.83326 0.82474,-1.44978 0.0468,-0.49493 0.17831,-0.995708 0.29233,-1.112838 0.11403,-0.11712 1.00748,-0.32627 1.98546,-0.46476 2.11967,-0.30019 3.43453,-1.17315 4.15468,-2.75839 0.52343,-1.15222 0.65055,-2.51702 0.23444,-2.51702 -0.14275,0 -0.33664,0.32743 -0.43087,0.72761 -0.67824,2.88053 -3.86296,4.41278 -7.03678,3.38557 -1.422,-0.46022 -2.85614,-1.55094 -2.85614,-2.17219 0,-0.1877 0.29765,-0.53631 0.66146,-0.77468 0.75743,-0.49629 0.87218,-1.45578 0.23714,-1.98282 -0.30344,-0.25183 -0.3866,-0.63327 -0.29194,-1.33906 0.0968,-0.72179 0.01,-1.09789 -0.32412,-1.40004 -0.62813,-0.56844 -1.01759,-0.5207 -2.02585,0.24834 -0.47697,0.3638 -1.15824,0.66145 -1.51393,0.66145 -0.8526,0 -1.18285,0.44214 -1.28711,1.72315 -0.0846,1.03893 -0.10321,1.05623 -1.22622,1.13711 -1.27272,0.0917 -3.32485,-0.51321 -4.18862,-1.23463 -0.31156,-0.26022 -0.95343,-1.15877 -1.42638,-1.99679 -0.83898,-1.4866 -0.85208,-1.55863 -0.53834,-2.96057 0.38329,-1.71273 1.28088,-2.87021 2.55077,-3.28931 1.09551,-0.36155 1.70022,-0.19494 1.70022,0.46845 0,0.87398 0.76932,1.65468 1.63057,1.65468 0.54547,0 0.97535,0.21426 1.32712,0.66146 0.60231,0.76571 1.17692,0.83345 2.02589,0.23881 0.47924,-0.33567 0.56899,-0.57931 0.43616,-1.18408 -0.10931,-0.49767 -0.023,-0.96741 0.24922,-1.35602 0.60645,-0.86583 0.51125,-1.68679 -0.26654,-2.2986 -0.85541,-0.67287 -0.75067,-1.30067 0.33961,-2.03541 1.73254,-1.16755 4.90948,-1.03132 6.47155,0.27752 1.37231,1.14984 2.14053,2.38718 2.17514,3.50341 0.0287,0.9257 -0.0296,1.00912 -0.76268,1.09184 -1.03984,0.11732 -1.38341,0.42901 -1.59838,1.45008 -0.0975,0.46288 -0.48968,1.17437 -0.87162,1.58107 -0.65562,0.69814 -0.67207,0.77947 -0.29435,1.45521 0.30128,0.53898 0.65936,0.74842 1.44993,0.84804 0.57741,0.0728 1.36928,0.34911 1.7597,0.61412 0.56234,0.38169 0.82352,0.42099 1.25677,0.18913 0.3008,-0.16099 0.54691,-0.40757 0.54691,-0.54797 0,-0.58936 0.79244,-0.18757 1.32292,0.67076 0.68492,1.10823 0.79375,1.14052 0.79375,0.23555 0,-0.49754 -0.44328,-1.11754 -1.58639,-2.21885 -1.58638,-1.52836 -1.58638,-1.52836 -1.19062,-2.65007 0.84175,-2.38577 0.15297,-4.6229 -2.18393,-7.09334 -0.51262,-0.54191 -0.39195,-1.7349 0.27536,-2.7223 1.09996,-1.6276 3.4857,-5.64259 3.91931,-6.59588 1.33756,-2.94061 3.80477,-12.689482 3.21141,-12.689482 -0.47365,0 -1.92625,1.792279 -2.7877,3.439583 -0.49465,0.945885 -1.49705,2.792852 -2.22755,4.104373 -2.08611,3.745336 -3.20061,6.471436 -4.51181,11.036016 -0.38929,1.35522 -0.54108,1.5568 -1.4444,1.91823 -0.55516,0.22214 -1.52931,0.40388 -2.16476,0.40388 -1.62608,0 -3.55485,1.3232 -4.04869,2.77751 -0.52342,1.54148 -0.80948,1.74243 -2.06127,1.44801 -2.88331,-0.67815 -5.74216,1.06866 -6.60466,4.03554 -0.56311,1.93705 -0.20943,3.3374 1.22388,4.84583 0.55833,0.58759 1.01515,1.19192 1.01515,1.34294 0,0.15103 -0.29765,0.55423 -0.66146,0.896 -0.76217,0.71602 -0.85544,1.72836 -0.22357,2.42657 0.57222,0.6323 1.28464,0.61214 2.23307,-0.0632 1.0254,-0.73014 1.60253,-0.4916 2.30403,0.95231 1.0673,2.196818 0.5269,3.563498 -1.40907,3.563498 -0.44784,0 -0.95712,0.14287 -1.13175,0.3175 -0.44351,0.44351 -0.39638,1.66891 0.0794,2.06375 0.64308,0.53371 0.45987,1.21206 -0.53161,1.9683 -1.00671,0.76785 -1.98194,2.4214 -1.98194,3.36048 0,0.35548 -0.47003,1.02508 -1.19062,1.69612 -0.65484,0.60982 -1.19063,1.18369 -1.19063,1.27527 0,0.0916 0.30021,0.1665 0.66714,0.1665 0.99849,0 1.44254,1.11988 0.82007,2.06823 -0.25628,0.39044 -0.60104,1.03271 -0.76614,1.42727 -0.28102,0.67155 -0.40365,0.71658 -1.91958,0.70495 -2.18636,-0.0168 -3.45878,0.36684 -5.16081,1.55593 -1.03323,0.72185 -1.62708,1.39111 -2.1333,2.40423 -0.99632,1.99395 -1.05547,2.02955 -2.47283,1.48825 -1.20222,-0.45913 -1.22997,-0.45759 -1.825441,0.10183 -1.314619,1.23502 -3.077258,0.22717 -2.689593,-1.53786 0.133223,-0.60656 0.08266,-0.8045 -0.205518,-0.8045 -0.562438,0 -1.780698,1.03494 -2.049028,1.7407 -0.128156,0.33708 -0.52678,0.80536 -0.885825,1.04061 -0.606134,0.39716 -0.876581,0.38724 -3.782124,-0.13867 -3.857587,-0.69823 -8.294962,-0.75987 -12.654308,-0.17578 -4.4654,0.59829 -9.60886,1.03389 -9.922111,0.84029 -0.145391,-0.0899 -0.264348,-0.4455 -0.264348,-0.79033 0,-1.44126 -1.905225,-2.01106 -2.066226,-0.61795 -0.143896,1.24508 -0.728163,1.46907 -2.030256,0.7783 -1.471489,-0.78062 -2.634536,-1.99211 -2.42833,-2.52948 0.08718,-0.22718 0.578895,-0.61353 1.0927,-0.85855 0.744905,-0.35522 0.934196,-0.59753 0.934196,-1.1959 0,-0.97882 -0.875316,-1.4158 -2.141771,-1.06923 -0.990441,0.27103 -1.562396,0.17504 -1.562396,-0.26223 0,-0.51403 -1.347372,-2.06228 -2.336191,-2.6845 -1.296982,-0.81612 -2.602116,-1.02664 -4.217284,-0.68025 -1.108697,0.23777 -1.579454,0.5423 -2.773603,1.79425 -0.813623,0.85299 -1.587757,1.9661 -1.782477,2.56298 -0.402378,1.23341 -0.649576,1.44155 -1.722736,1.45052 -1.053497,0.009 -3.276225,1.07707 -4.099079,1.97005 -0.36272,0.39364 -0.898501,1.21307 -1.190625,1.82096 -0.53113,1.10525 -0.53113,1.10525 -2.250921,1.05043 -8.639395,-0.27539 -13.368073,-0.17067 -19.05,0.42189 -3.274219,0.34146 -6.051569,0.71132 -6.171889,0.8219 -0.120321,0.11058 0.832179,0.39898 2.116666,0.64089 4.517807,0.85083 15.269916,0.83926 23.156772,-0.0249 1.242171,-0.13611 1.242171,-0.13611 2.440593,1.73355 0.956649,1.49247 1.46491,2.0047 2.519344,2.53902 0.726509,0.36815 1.774637,0.66936 2.32918,0.66936 1.21008,0 2.184334,0.61588 2.184334,1.38082 0,0.98872 1.323295,2.86394 2.602873,3.68849 1.100812,0.70935 1.397343,0.78104 2.755042,0.66601 0.97595,-0.0827 1.942396,-0.37559 2.695483,-0.81693 z m -5.63245,-0.95129 c -1.23139,-0.89202 -1.391455,-1.48738 -0.491845,-1.82941 1.088713,-0.41393 1.334024,-0.93036 0.948444,-1.99667 -0.295444,-0.81703 -0.280569,-1.0452 0.111387,-1.70873 0.248798,-0.42118 0.384209,-0.94339 0.300911,-1.16046 -0.229815,-0.5989 -1.217301,-0.74336 -1.92255,-0.28126 -0.429128,0.28117 -0.918025,0.35787 -1.538854,0.2414 -1.265602,-0.23743 -1.855671,0.0141 -2.173814,0.92676 -0.331742,0.95164 -0.987525,1.01398 -2.050716,0.19494 -1.471269,-1.1334 -2.207591,-2.6782 -2.21451,-4.64602 -0.0061,-1.72608 0.57444,-2.81957 1.91344,-3.60427 1.48317,-0.8692 2.051325,-0.88516 2.051325,-0.0576 0,0.90264 0.535702,1.22539 2.01194,1.21217 0.712443,-0.006 1.771602,0.0232 2.353685,0.0658 0.985375,0.072 1.064213,0.0261 1.143598,-0.66624 0.04689,-0.40898 -0.04949,-0.90597 -0.214191,-1.10442 -0.180644,-0.21766 -0.229962,-0.73123 -0.124306,-1.29443 0.148164,-0.78978 0.06906,-1.03193 -0.513413,-1.57175 -0.85234,-0.78992 -0.855539,-0.99988 -0.03018,-1.98076 1.060715,-1.26059 2.302611,-1.7162 4.107101,-1.50677 1.238279,0.14372 1.759743,0.36346 2.629802,1.1082 1.509797,1.29233 1.958152,2.27155 1.943663,4.24502 -0.01419,1.93393 -0.54951,2.98081 -1.524227,2.98081 -0.351859,0 -0.713327,-0.11906 -0.803264,-0.26458 -0.337506,-0.5461 -1.618197,-0.28734 -1.986815,0.40143 -0.196043,0.36631 -0.751943,0.96768 -1.235334,1.33638 -0.973542,0.74256 -1.147781,1.58077 -0.379299,1.82468 0.274778,0.0872 0.81225,0.63101 1.19438,1.20845 0.800367,1.20943 1.861248,1.41621 2.671651,0.52072 0.692547,-0.76525 0.892752,-0.67169 1.499952,0.70099 0.666977,1.50781 0.567687,3.17588 -0.29513,4.95823 -1.210003,2.49953 -5.080097,3.41555 -7.382832,1.74746 z m 61.012907,-5.7441 c -0.67404,-0.10211 -1.05882,-0.60424 -0.46302,-0.60424 0.14552,0 0.26458,-0.17497 0.26458,-0.38882 0,-0.27314 -0.27016,-0.37866 -0.90808,-0.35468 -1.07936,0.0406 -1.97439,-0.49579 -2.9401,-1.7619 -0.74565,-0.9776 -0.72047,-1.63857 0.0719,-1.88698 0.25796,-0.0809 0.78505,-0.3163 1.1713,-0.52317 0.38626,-0.20687 0.87908,-0.37612 1.09517,-0.37612 0.21609,0 0.67396,-0.23417 1.01751,-0.52036 0.62462,-0.52037 0.62462,-0.52037 -0.10298,-0.52917 -0.58726,-0.007 -0.72761,-0.13014 -0.72761,-0.63787 0,-0.34598 -0.17859,-0.77728 -0.39687,-0.95843 -1.07362,-0.89103 -0.0213,-2.11667 1.81731,-2.11667 2.15667,0 4.14175,1.39509 4.53542,3.18742 0.0944,0.42973 0.28296,0.78133 0.41906,0.78133 0.40433,0 1.29595,1.66415 1.29701,2.42083 0.001,0.86154 -1.75715,3.26711 -2.89305,3.95789 -0.78262,0.47594 -1.63267,0.55708 -3.25752,0.31094 z m -52.427535,-1.78074 c -0.270106,-0.50156 -0.77343,-1.17716 -1.118503,-1.50133 -0.345069,-0.32418 -0.627401,-0.68048 -0.627401,-0.79179 0,-0.1113 0.47625,-0.75263 1.058333,-1.42518 0.582084,-0.67254 1.058334,-1.33463 1.058334,-1.4713 0,-0.39712 0.987036,-0.28675 1.146259,0.12818 0.0795,0.20716 0.828461,0.88191 1.664367,1.49942 1.519825,1.12277 1.519825,1.12277 0.89203,1.54157 -0.34529,0.23034 -1.20096,0.98435 -1.901489,1.67557 -0.700532,0.69123 -1.365298,1.25677 -1.477262,1.25677 -0.111963,0 -0.424566,-0.41036 -0.694668,-0.91191 z M 121.77424,99.800442 c -0.15064,-0.28147 -0.2739,-0.77137 -0.2739,-1.08867 0,-0.3173 -0.3169,-1.15916 -0.70423,-1.8708 -0.38732,-0.71165 -0.65521,-1.32968 -0.59531,-1.3734 0.32464,-0.23694 3.98175,-0.94405 4.26845,-0.82531 0.51887,0.2149 2.38342,3.01359 2.24611,3.37141 -0.0667,0.17383 -0.58276,0.48183 -1.1468,0.68443 -0.56403,0.20261 -1.4401,0.64867 -1.94682,0.99124 -1.11908,0.756578 -1.49012,0.778888 -1.8475,0.1111 z M 35.002328,129.53586 c 0.543554,-0.33593 0.215918,-1.32666 -0.628928,-1.90179 -0.842214,-0.57333 -1.082104,-0.59239 -7.737253,-0.61487 -3.777452,-0.0128 -7.16575,-0.0564 -7.529552,-0.0971 -4.444823,-0.49655 -4.704072,-0.4906 -6.272463,0.14397 -1.938643,0.78437 -2.987953,1.5275 -2.987953,2.11607 0,0.25301 0.208359,0.52311 0.46302,0.60024 0.612023,0.18534 24.378264,-0.0519 24.693129,-0.24653 z m -6.238441,56.49628 c -0.727605,-1.01231 -1.650823,-2.27571 -2.051598,-2.80757 -0.896379,-1.18954 -0.634021,-1.80413 0.575297,-1.34766 0.71746,0.27081 0.879647,0.1691 3.495585,-2.19216 1.508768,-1.36188 3.053043,-2.78167 3.431722,-3.15507 0.37868,-0.37341 1.714508,-1.62541 2.968509,-2.78223 1.254003,-1.15681 2.337681,-2.25361 2.408176,-2.43731 0.142915,-0.37243 -0.865687,-0.031 -8.821128,2.98652 -2.825451,1.07168 -5.364356,2.1541 -5.642007,2.40538 -0.304522,0.27558 -0.460407,0.6892 -0.39288,1.04245 0.144698,0.75693 -0.177149,1.26704 -0.678119,1.07481 -0.874374,-0.33553 -8.759452,-15.4854 -8.462489,-16.25927 0.152912,-0.39848 1.029762,-0.4476 1.262682,-0.0707 0.303297,0.49074 1.124109,0.26949 2.492665,-0.67191 0.748781,-0.51507 2.637376,-1.60694 4.196877,-2.42638 1.559502,-0.81943 3.609364,-1.89686 4.555249,-2.39428 0.945886,-0.49742 2.493698,-1.35925 3.439584,-1.91519 0.945885,-0.55594 2.374635,-1.33302 3.175,-1.72685 2.712119,-1.33453 4.530833,-2.55919 4.782113,-3.22011 0.352105,-0.9261 0.802868,-0.64549 1.386739,0.86327 1.076188,2.78095 2.656639,6.60901 2.832725,6.86124 0.101592,0.14552 0.760521,1.37422 1.464286,2.73044 1.332071,2.56704 1.334818,3.01628 0.01688,2.76434 -0.565615,-0.10813 -1.773563,0.49238 -7.836921,3.89598 -1.091406,0.61264 -3.829843,2.13289 -6.085416,3.37832 -2.255573,1.24543 -4.577292,2.53753 -5.159375,2.87134 -0.582084,0.33381 -1.445287,0.81309 -1.918229,1.06507 -0.851378,0.45361 -1.130301,0.8893 -0.569308,0.8893 0.159818,0 2.035052,-0.66602 4.167188,-1.48004 5.394804,-2.05967 15.22481,-5.68871 18.031817,-6.65697 0.654844,-0.22589 1.425477,-0.57106 1.712519,-0.76705 0.76709,-0.52378 1.17171,-0.43873 1.516874,0.31882 0.292529,0.64204 0.164301,0.82063 -2.612091,3.63802 -3.359134,3.40874 -4.3826,4.42639 -4.887282,4.85947 -0.198126,0.17002 -2.60187,2.56531 -5.341655,5.32287 -4.546335,4.57583 -4.994235,5.10924 -5.128066,6.10702 -0.212109,1.58139 -0.772539,1.39734 -2.325923,-0.76388 z m -6.342726,-14.90165 c 0.287041,-0.19505 1.295799,-0.77569 2.241684,-1.29031 0.945885,-0.51461 2.61276,-1.44271 3.704167,-2.06243 1.091406,-0.61973 2.618983,-1.47412 3.394617,-1.89867 0.775634,-0.42454 2.38647,-1.33115 3.579635,-2.01469 1.193165,-0.68354 3.382899,-1.89764 4.866076,-2.69801 2.492825,-1.3452 3.155617,-1.85208 2.421753,-1.85208 -0.256458,0 -1.406028,0.61073 -6.024954,3.20085 -0.674119,0.37802 -2.297232,1.28362 -3.606919,2.01245 -1.309688,0.72882 -2.8575,1.60138 -3.439583,1.93902 -0.964528,0.55947 -2.027881,1.15707 -6.543428,3.67734 -0.833989,0.46548 -1.585156,0.95766 -1.66926,1.09375 -0.228135,0.36913 0.47887,0.29869 1.076212,-0.10722 z m -1.280342,-4.45128 c 0.845708,-0.46044 2.787807,-1.55103 4.315776,-2.42353 1.527969,-0.8725 4.445,-2.49953 6.482292,-3.61563 2.037291,-1.1161 4.418541,-2.43719 5.291666,-2.93576 0.873125,-0.49857 2.033984,-1.14126 2.579688,-1.4282 0.867439,-0.45611 1.359249,-1.19624 0.79375,-1.19452 -0.176731,5.3e-4 -2.750069,1.41185 -6.151563,3.37374 -0.654844,0.3777 -2.083594,1.18077 -3.175,1.78462 -1.091406,0.60384 -2.614692,1.47604 -3.385082,1.93822 -0.770387,0.46217 -1.437912,0.84031 -1.483386,0.84031 -0.04547,0 -1.11724,0.59532 -2.381702,1.32292 -1.264462,0.72761 -2.347141,1.32292 -2.405953,1.32292 -0.177112,0 -2.51471,1.61609 -2.51471,1.73854 0,0.27114 0.59748,0.0586 2.034224,-0.72363 z m 170.857061,17.43977 c 0.37427,-1.23719 0.27416,-1.35787 -2.36733,-2.85397 -1.45521,-0.8242 -3.38997,-1.9331 -4.29948,-2.46421 -2.65898,-1.55275 -4.85614,-2.81157 -6.41614,-3.67602 -3.72459,-2.06391 -5.76262,-3.23902 -6.60986,-3.8112 -1.00229,-0.67689 -2.35208,-0.81485 -2.87324,-0.29368 -0.26164,0.26163 -0.37932,0.24817 -0.57804,-0.0661 -0.34432,-0.54462 -0.33515,-0.57985 0.34469,-1.32341 1.12545,-1.23093 4.30001,-5.94043 5.79453,-8.59625 1.42952,-2.54032 3.92192,-7.81992 3.92192,-8.30773 0,-0.29614 0.68883,-0.57253 0.90017,-0.36119 0.087,0.087 0.15816,0.43133 0.15816,0.76521 0,0.33388 0.26743,0.8562 0.59429,1.16072 0.92495,0.86172 6.03155,3.85609 7.21092,4.22828 1.20928,0.38163 1.53155,0.54774 5.68854,2.93197 8.73285,5.0087 8.96187,5.108 9.36395,4.0602 0.19376,-0.50494 0.9548,-0.48194 0.9548,0.0289 0,1.25769 -7.25933,14.0118 -10.12269,17.78482 -1.10695,1.45862 -1.99427,1.88158 -1.66519,0.79375 z m 3.32121,-5.58034 c 0,-0.19515 -0.62507,-0.69165 -1.38906,-1.10332 -0.76398,-0.41168 -5.08,-2.85509 -9.59114,-5.42981 -4.51115,-2.57472 -8.70336,-4.93572 -9.31603,-5.24668 -2.21292,-1.12315 -2.69879,-0.47315 -0.5397,0.72201 0.76398,0.42291 2.46062,1.38453 3.77031,2.13694 6.00256,3.44843 10.50108,5.98925 12.5656,7.09721 1.23577,0.66319 2.60499,1.42421 3.04271,1.69115 0.94281,0.57496 1.45731,0.62174 1.45731,0.1325 z m 2.46137,-3.98855 c 0.0595,-0.27645 -2.03488,-1.59601 -5.50407,-3.46777 -1.30969,-0.70663 -5.40626,-2.98867 -9.10348,-5.07119 -3.69723,-2.08253 -6.89207,-3.78642 -7.09966,-3.78642 -1.28426,0 0.74817,1.30205 10.25001,6.5665 2.25557,1.24969 5.58932,3.13429 7.40833,4.188 3.13967,1.81874 3.92954,2.1252 4.04887,1.57088 z m 2.25439,-4.27255 c -0.047,-0.22762 -1.05864,-0.92837 -2.24797,-1.55724 -1.18933,-0.62886 -3.21339,-1.7376 -4.49792,-2.46386 -1.28452,-0.72625 -3.75366,-2.12245 -5.48698,-3.10265 -9.4867,-5.3648 -10.15715,-5.69251 -9.88488,-4.83168 0.0861,0.2721 6.05508,3.78131 9.72908,5.71977 0.50932,0.26872 1.75948,0.96829 2.77812,1.55458 4.65034,2.67657 9.02657,5.05166 9.34596,5.0723 0.19258,0.0124 0.31164,-0.16361 0.26459,-0.39122 z m 10.99956,-36.82626 c -0.41114,-1.33052 0.32772,-1.26359 -12.83481,-1.16268 -12.27321,0.0941 -12.27321,0.0941 -12.87923,0.72761 -0.33332,0.34843 -0.79219,0.63351 -1.01973,0.63351 -0.35407,0 -0.38951,-0.2956 -0.24589,-2.05053 0.45377,-5.54433 0.34429,-11.65219 -0.24305,-13.55989 -0.0672,-0.21828 -0.007,-0.57547 0.1327,-0.79375 0.21344,-0.33231 0.35321,-0.27504 0.85918,0.35204 0.60428,0.74892 0.60428,0.74892 12.52675,0.47613 6.55737,-0.15003 12.18192,-0.20495 12.499,-0.12203 0.4673,0.12221 0.63103,-0.006 0.86424,-0.67456 0.33738,-0.96783 0.63113,-1.04087 1.04865,-0.26074 0.44467,0.83087 0.69258,15.53361 0.27507,16.31372 -0.376,0.70256 -0.78755,0.75329 -0.98288,0.12117 z m -4.51278,-5.53166 c 8.52333,-0.33615 4.27396,-0.62431 -8.20397,-0.55633 -9.80494,0.0534 -12.63637,0.14232 -12.72205,0.39945 -0.0866,0.2599 1.67025,0.33073 8.20397,0.33073 4.57279,0 10.29771,-0.0782 12.72205,-0.17385 z m 3.81257,-4.73651 c 0.32742,-0.0697 0.59531,-0.25551 0.59531,-0.4128 0,-0.32752 -24.99537,-0.19675 -25.32461,0.13249 -0.59415,0.59414 1.36298,0.68104 12.36003,0.54875 6.47567,-0.0779 12.04185,-0.19869 12.36927,-0.26844 z M 40.978818,98.283742 c -0.09701,-0.097 -0.17639,-0.62538 -0.17639,-1.17415 0,-0.79458 -0.359204,-1.52643 -1.763953,-3.59392 -0.970177,-1.42789 -2.387664,-3.51488 -3.149976,-4.63775 -0.762312,-1.12288 -1.428477,-2.16896 -1.480367,-2.32464 -0.110443,-0.33132 -1.954022,-1.02929 -2.763158,-1.04612 -0.307173,-0.006 -2.683669,-0.42833 -5.281104,-0.93765 -5.425971,-1.06396 -5.716961,-1.08438 -6.750835,-0.47366 -0.619891,0.36618 -0.829351,0.38816 -1.099156,0.11535 -0.268584,-0.27157 -0.01607,-0.93758 1.300055,-3.42895 0.898359,-1.70055 1.78596,-3.09191 1.972446,-3.09191 0.186486,0 0.409,0.29766 0.494475,0.66146 0.201291,0.85674 0.982876,1.21342 3.71926,1.69728 1.229032,0.21733 2.621558,0.47501 3.094501,0.57263 1.152416,0.23786 1.116145,-0.16617 -0.152972,-1.70402 -0.557075,-0.67504 -1.376656,-1.76313 -1.821286,-2.41797 -1.130813,-1.66544 -1.694738,-2.10812 -2.600915,-2.04172 -0.612749,0.0449 -0.765956,-0.0423 -0.705781,-0.40182 0.118412,-0.70741 2.229075,-3.64188 2.619481,-3.64188 0.40889,0 0.405445,-0.0134 0.474456,1.85208 0.05727,1.54818 0.982787,3.44868 2.549247,5.23473 0.419238,0.47801 0.762249,0.95865 0.762249,1.06809 0,0.10943 0.517049,0.74633 1.148995,1.41532 0.998271,1.05679 1.388732,1.27047 2.976563,1.62896 1.005162,0.22694 2.482411,0.48938 3.282775,0.5832 0.800365,0.0938 3.298709,0.4675 5.551876,0.83042 3.914429,0.63049 5.130925,0.67642 6.153706,0.23236 1.085358,-0.47123 0.694259,0.69473 -1.139812,3.39806 -1.047345,1.54373 -2.005367,2.80678 -2.128935,2.80678 -0.123568,0 -0.299638,-0.29869 -0.391263,-0.66376 -0.09691,-0.3861 -0.403381,-0.71383 -0.732645,-0.78346 -2.971951,-0.62843 -9.021664,-1.69474 -9.110593,-1.60581 -0.06208,0.0621 0.418414,0.80418 1.067781,1.6491 0.649364,0.84492 1.852004,2.44343 2.672533,3.55224 1.86274,2.5172 2.126334,2.73341 3.240889,2.65835 0.496035,-0.0334 0.902173,0.0323 0.902533,0.14599 2.65e-4,0.1137 -0.378343,1.06993 -0.841565,2.12495 -0.789774,1.79879 -1.334749,2.30021 -1.893115,1.74184 z M 177.0238,94.699592 c -0.20752,-0.33279 -0.5232,-0.94129 -0.70152,-1.35221 -0.48375,-1.11476 -3.48494,-6.27524 -4.19623,-7.21535 -1.01461,-1.34098 -0.66076,-2.29309 0.47143,-1.26847 0.43471,0.3934 0.53851,0.3852 1.34375,-0.10617 0.47996,-0.29287 1.34891,-0.79921 1.93099,-1.1252 0.58208,-0.32599 1.53458,-0.86075 2.11667,-1.18837 0.58208,-0.32761 1.71046,-1.02515 2.5075,-1.55009 0.79705,-0.52493 1.58614,-0.95443 1.75354,-0.95443 0.16741,0 0.46609,-0.19486 0.66375,-0.43302 0.19766,-0.23817 0.83731,-0.6594 1.42146,-0.93607 0.58414,-0.27667 1.83598,-0.96364 2.78187,-1.52659 0.94589,-0.56294 2.61276,-1.46189 3.70417,-1.99765 1.0914,-0.53576 2.38192,-1.27543 2.86782,-1.6437 0.77805,-0.58969 0.86388,-0.77384 0.71948,-1.54356 -0.0902,-0.48069 -0.0521,-0.94311 0.0846,-1.02761 0.39886,-0.24651 1.3536,1.07581 4.26644,5.90906 1.94595,3.22891 2.65305,4.6198 2.45121,4.82164 -0.20185,0.20185 -0.51538,0.11238 -1.08688,-0.31016 -0.8032,-0.59383 -0.8032,-0.59383 -2.81603,0.66072 -1.10706,0.69 -2.69202,1.61341 -3.52215,2.05204 -0.83012,0.43863 -1.68791,0.94723 -1.90619,1.13023 -0.4082,0.34221 -4.12101,2.41276 -7.48853,4.17617 -1.0473,0.54843 -2.57697,1.41163 -3.39927,1.91823 -0.8223,0.50661 -1.60521,0.9211 -1.73981,0.9211 -0.60803,0 -1.40672,1.26277 -1.33586,2.11206 0.0883,1.05767 -0.37565,1.30588 -0.89224,0.4774 z m -0.0183,-6.15639 c 0.68638,-0.36109 1.84329,-1.01436 2.57089,-1.45172 0.7276,-0.43736 1.50151,-0.87928 1.71979,-0.98203 0.21828,-0.10275 1.94469,-1.0696 3.83646,-2.14857 1.89177,-1.07896 4.21349,-2.37921 5.15937,-2.88943 3.70107,-1.99643 6.49096,-3.62429 6.67225,-3.89315 0.66733,-0.98965 -1.9755,0.37997 -12.62537,6.54293 -1.74625,1.01054 -4.45492,2.55053 -6.01927,3.4222 -1.56435,0.87167 -2.84427,1.69093 -2.84427,1.82057 0,0.34545 0.15418,0.30305 1.53015,-0.4208 z M 63.292011,69.125022 c 0,-0.12703 0.249005,-0.79387 0.553342,-1.481873 0.631494,-1.427596 0.573693,-2.876878 -0.311568,-7.812179 -0.274077,-1.527969 -0.500129,-3.083862 -0.502338,-3.457538 -0.0031,-0.522629 -0.950058,-1.619131 -4.103592,-4.751591 -4.581031,-4.550423 -5.87424,-5.549204 -7.185033,-5.549204 -1.565963,0 -1.085914,-0.779693 1.603949,-2.605125 2.740004,-1.85946 3.462949,-1.995344 3.462949,-0.650896 0,0.700453 0.389707,1.23112 2.377553,3.237521 1.307653,1.319863 2.515389,2.39975 2.683854,2.39975 0.214797,0 0.243729,-0.29641 0.09685,-0.992188 -0.1152,-0.545703 -0.290878,-1.992323 -0.390398,-3.214711 -0.233032,-2.862289 -0.438621,-3.373853 -1.444702,-3.594825 -0.445288,-0.0978 -0.809617,-0.323765 -0.809617,-0.502142 0,-0.488685 7.311046,-4.396134 8.225401,-4.396134 0.188288,0 0.249589,0.275393 0.161959,0.727604 -0.100938,0.520881 0.126701,1.216222 0.801225,2.447396 0.518221,0.945885 1.538933,2.850885 2.268249,4.233333 2.499188,4.737309 7.914637,14.419638 8.324141,14.882812 0.225155,0.254662 0.681548,0.463021 1.014209,0.463021 0.67746,0 0.956738,0.284117 0.684754,0.696627 -0.09954,0.150966 -1.26988,0.773313 -2.600758,1.382995 -1.330878,0.60968 -3.509973,1.700869 -4.842434,2.424861 -2.709502,1.472208 -3.330276,1.621229 -3.10098,0.744408 0.227164,-0.86868 -0.203628,-1.474094 -2.831851,-3.97974 -2.362652,-2.252464 -3.251539,-2.808838 -2.97874,-1.864464 0.07356,0.254662 0.386654,2.063962 0.695759,4.020667 0.309105,1.956702 0.625692,3.660687 0.70353,3.786632 0.07784,0.125944 0.427614,0.337759 0.777279,0.470701 0.349666,0.132943 0.635757,0.34462 0.635757,0.470393 0,0.125769 -0.714534,0.78356 -1.587854,1.461759 -1.490711,1.15764 -2.380896,1.53232 -2.380896,1.00213 z m 11.846941,-8.787717 c 0.04014,-0.206719 -1.180251,-2.498883 -2.711979,-5.0937 -1.531729,-2.594816 -2.784962,-4.76387 -2.784962,-4.82012 0,-0.05625 -0.549373,-1.028438 -1.220827,-2.160416 C 67.74973,47.131092 66.598636,45.073835 65.8632,43.691387 64.155767,40.481819 63.347669,39.19347 63.041937,39.19347 c -0.667416,0 -0.617974,2.716459 0.144476,7.9375 0.201883,1.382448 0.367763,2.612186 0.36862,2.732749 0.0032,0.453258 10.815246,11.081096 11.15727,10.967206 0.194517,-0.06477 0.386509,-0.286898 0.426649,-0.49362 z m 74.010348,3.948491 c -0.43656,-0.293468 -1.64315,-0.936837 -2.68131,-1.429708 -2.42333,-1.150501 -2.84914,-1.966785 -1.02594,-1.966785 0.7569,0 0.93919,-0.178917 1.95449,-1.918229 2.09846,-3.594883 9.26821,-15.408 10.11276,-16.662103 0.73994,-1.098765 0.82201,-1.395087 0.67777,-2.447396 -0.22316,-1.628137 0.10174,-1.586149 3.53139,0.456374 2.82802,1.684224 3.52488,2.522072 1.96848,2.366733 -0.89212,-0.08904 -0.69916,-0.360112 -6.23534,8.759618 -1.21928,2.008531 -3.27127,5.388454 -4.55997,7.510941 -2.15943,3.556577 -2.33028,3.939167 -2.17969,4.880941 0.13837,0.865282 0.092,1.018907 -0.30274,1.00253 -0.25638,-0.01064 -0.82334,-0.259451 -1.2599,-0.552916 z M 120.83889,54.108228 c -1.01865,-0.197805 -4.23334,-0.495924 -7.14375,-0.662493 -2.91042,-0.166566 -5.38539,-0.385985 -5.49994,-0.487595 -0.11455,-0.101613 -0.0855,-0.507659 0.0645,-0.902324 0.17555,-0.461725 0.1862,-1.066687 0.0299,-1.696731 -0.47706,-1.922796 -2.24704,-6.674487 -2.45979,-6.603574 -0.22944,0.07648 -2.44281,5.266494 -2.89386,6.78565 -0.22595,0.761021 -0.17954,1.013896 0.30687,1.671798 0.3152,0.426332 0.51715,0.920936 0.44878,1.099117 -0.17226,0.448905 -4.90544,1.10849 -5.27837,0.73556 -0.194903,-0.194903 0.150709,-0.70507 1.151699,-1.700051 0.929181,-0.923597 1.821461,-2.202146 2.547151,-3.649827 1.79024,-3.571361 2.98435,-6.360585 2.98048,-6.961862 -0.002,-0.306927 -0.5769,-2.105863 -1.2776,-3.997634 -0.70069,-1.891771 -1.62181,-4.563396 -2.04692,-5.936945 -0.62552,-2.021069 -0.96943,-2.690821 -1.803211,-3.511734 -0.56666,-0.557905 -0.94457,-1.100967 -0.83981,-1.206805 0.20818,-0.210319 5.796991,-0.779644 6.231531,-0.634798 0.16139,0.0538 0.20902,0.633925 0.11959,1.456512 -0.12658,1.164222 0.0207,1.841981 0.99245,4.567032 0.62761,1.759961 1.25707,3.229963 1.39882,3.266673 0.33767,0.08745 3.07335,-6.250902 3.10541,-7.195001 0.0136,-0.40062 -0.19299,-0.968981 -0.45909,-1.263023 -1.01621,-1.1229 -0.32546,-1.201646 6.16203,-0.702473 5.9302,0.456294 8.26414,0.815209 8.26414,1.270871 0,0.12782 -0.34261,0.2324 -0.76136,0.2324 -0.41874,0 -0.88894,0.153739 -1.04489,0.341642 -0.19084,0.229955 -0.29267,4.014129 -0.31147,11.575521 -0.0154,6.178632 -0.0214,11.492632 -0.0134,11.808889 0.008,0.316259 0.32068,0.938897 0.69491,1.383646 1.16757,1.387573 0.65844,1.562878 -2.66479,0.917559 z m -2.08521,-14.342789 c 0.16321,-10.521079 0.13799,-11.949052 -0.21103,-11.949052 -0.34368,0 -0.42059,1.60297 -0.57829,12.052707 -0.10005,6.62899 -0.10281,12.180684 -0.006,12.337103 0.48362,0.782521 0.6245,-1.420818 0.79545,-12.440758 z m -4.80677,11.797302 c 0.0566,-0.181901 0.17906,-5.658776 0.27217,-12.170833 0.14758,-10.321705 0.11937,-11.840104 -0.21995,-11.840104 -0.53998,0 -1.74176,1.484891 -2.35551,2.910416 -0.28194,0.654844 -0.73936,1.674701 -1.01649,2.266348 -0.27713,0.591648 -0.50387,1.156877 -0.50387,1.256065 0,0.09919 -0.37355,0.970967 -0.83012,1.937287 l -0.83011,1.756946 0.83032,2.410949 c 2.21519,6.432095 4.00491,11.677213 4.00491,11.737136 0,0.234913 0.56498,0.0048 0.64865,-0.26421 z m 35.00395,171.866099 c 1.79123,-0.66955 3.24115,-1.36078 3.24115,-1.54518 0,-0.18351 -0.21046,-0.59357 -0.46769,-0.91123 -0.46769,-0.57758 -0.46769,-0.57758 -2.05052,0.0812 -0.87056,0.36235 -2.4758,0.98372 -3.56721,1.38082 -1.0914,0.39711 -2.01467,0.74477 -2.05171,0.77259 -0.037,0.0278 0.0653,0.43097 0.22734,0.8959 0.3473,0.99625 0.1071,1.03094 4.66864,-0.67413 z m -72.756874,0.39509 c 0.174895,-0.46335 0.290293,-0.8694 0.256445,-0.90234 -0.158033,-0.15378 -6.751791,-2.71398 -7.196664,-2.79429 -0.384855,-0.0695 -0.547603,0.11144 -0.684798,0.76124 -0.221937,1.05117 0.0217,1.22885 3.322,2.42265 1.309688,0.47375 2.619375,0.96441 2.910417,1.09037 0.875533,0.3789 1.060511,0.30218 1.3926,-0.57763 z m 81.287644,-4.12759 c 1.38132,-0.69521 2.54562,-1.44124 2.58733,-1.65784 0.0417,-0.21659 -0.0818,-0.60939 -0.27445,-0.87287 -0.3307,-0.45226 -0.49873,-0.40983 -3.00291,0.75818 -2.65261,1.23725 -2.65261,1.23725 -2.37073,2.13783 0.15503,0.49531 0.34204,0.90015 0.41557,0.89964 0.0735,-5.3e-4 1.26387,-0.56973 2.64519,-1.26494 z m -91.406925,0.0311 c 0.44173,-0.67416 0.440833,-0.72126 -0.02013,-1.05833 -0.265351,-0.19402 -0.585851,-0.35277 -0.71223,-0.35277 -0.126378,0 -1.245579,-0.48482 -2.487109,-1.07738 -1.241531,-0.59256 -2.421512,-1.01437 -2.622183,-0.93737 -0.331858,0.12735 -0.842576,1.43566 -0.610835,1.56479 1.367319,0.76192 5.240298,2.53974 5.557596,2.55111 0.237924,0.009 0.640628,-0.30199 0.894895,-0.69005 z m 98.062935,-2.14514 c 0.24094,-0.25112 0.51865,-0.84329 0.61713,-1.31593 0.15185,-0.72882 0.0584,-0.97999 -0.61526,-1.65365 -0.89589,-0.89589 -1.73414,-1.00373 -2.69436,-0.34661 -0.89341,0.6114 -1.0423,0.87361 -1.04701,1.8439 -0.006,1.18357 1.34745,2.31967 2.49059,2.09105 0.44595,-0.0892 1.00796,-0.36763 1.24891,-0.61876 z m -2.51191,-0.54356 c -0.51221,-0.56598 -0.57437,-1.65508 -0.12039,-2.10907 0.82075,-0.82074 2.59292,-0.0117 2.59292,1.18368 0,1.2121 -1.65314,1.83081 -2.47253,0.92539 z M 58.673828,216.8732 c 0.803389,-0.80339 0.843291,-1.94317 0.101063,-2.88676 -0.94507,-1.20147 -2.780006,-0.8684 -3.563564,0.64684 -0.546693,1.05718 -0.29331,1.727 0.88969,2.35186 1.29607,0.6846 1.798116,0.66275 2.572811,-0.11194 z m -2.5391,-0.42244 c -0.608833,-0.60883 -0.510511,-1.37811 0.281696,-2.204 0.626761,-0.65341 1.654554,-0.40297 2.067727,0.50385 0.422368,0.927 0.397883,1.08198 -0.269113,1.70338 -0.735833,0.68553 -1.392571,0.68451 -2.08031,-0.003 z m 110.528092,0.2281 c 4.25095,-2.44423 10.46587,-6.91782 14.68659,-10.57162 4.20459,-3.63984 10.54176,-10.2692 14.63284,-15.30753 2.12124,-2.61238 6.48059,-8.99609 6.48059,-9.48997 0,-0.49395 -0.70519,-0.0346 -1.0848,0.70661 -0.50347,0.98303 -1.81782,2.88189 -4.15672,6.00524 -7.66576,10.23679 -17.69551,19.57564 -27.96368,26.03737 -1.01865,0.64103 -2.29857,1.44616 -2.84428,1.78918 -0.5457,0.34302 -0.99218,0.80057 -0.99218,1.01679 0,0.50796 0.0468,0.50094 1.24164,-0.18607 z M 53.767011,215.4617 c -0.868458,-0.31227 -11.259841,-7.51417 -11.90625,-8.25181 -0.07276,-0.083 -0.965729,-0.7987 -1.984375,-1.59038 -1.018645,-0.79168 -3.102239,-2.65222 -4.630208,-4.13454 -3.815088,-3.7011 -4.434006,-4.3305 -5.953125,-6.05392 -0.727604,-0.82546 -1.609727,-1.81503 -1.960271,-2.19904 -1.020691,-1.11814 -6.432552,-8.47114 -7.778299,-10.56823 -1.089619,-1.69797 -1.770805,-2.35289 -1.770805,-1.70252 0,0.11865 0.75052,1.27951 1.667823,2.57969 7.289617,10.3323 12.342476,15.95305 20.693051,23.01876 4.098901,3.46822 13.35519,9.74174 13.754751,9.32238 0.178456,-0.18729 0.135392,-0.32414 -0.132292,-0.42039 z m 114.358029,-1.63787 c 2.7174,-1.63415 3.11697,-1.94705 3.11697,-2.44093 0,-0.21606 -0.20836,-0.58137 -0.46302,-0.81179 -0.42769,-0.38698 -0.61341,-0.32024 -2.43403,0.8748 -1.08405,0.71156 -2.30444,1.43186 -2.71198,1.60066 -0.40753,0.16881 -0.74097,0.4789 -0.74097,0.68909 0,0.52907 0.49575,1.40572 0.79494,1.40572 0.13594,0 1.23308,-0.5929 2.43809,-1.31755 z m -113.617195,0.2063 c 0.363003,-0.363 0.42972,-1.27 0.09342,-1.27 -0.123246,0 -1.202428,-0.65484 -2.398183,-1.45521 -1.195756,-0.80036 -2.27185,-1.45521 -2.39132,-1.45521 -0.238533,0 -1.167286,1.31622 -1.026824,1.4552 0.362733,0.35892 4.862745,3.04272 5.101825,3.04272 0.166973,0 0.446461,-0.14288 0.621086,-0.3175 z m 122.764185,-6.66858 c 2.77845,-2.17005 3.15929,-2.77647 2.14338,-3.41296 -0.33371,-0.20907 -0.81909,0.0448 -2.24896,1.17621 -1.00287,0.79355 -2.32687,1.79434 -2.94223,2.22397 -1.26592,0.88385 -1.29137,0.95056 -0.70431,1.84652 0.50103,0.76467 0.29849,0.86365 3.75212,-1.83374 z m -130.603456,1.52111 c 0.26612,-0.24083 0.483854,-0.58165 0.483854,-0.75737 0,-0.17572 -0.831731,-0.93797 -1.848289,-1.69388 -1.016558,-0.75592 -1.998824,-1.52075 -2.182813,-1.69962 -0.183988,-0.17887 -0.761182,-0.64733 -1.282655,-1.04103 -0.948134,-0.71582 -0.948134,-0.71582 -1.529106,-0.0974 -0.580972,0.61842 -0.580972,0.61842 0.564658,1.65145 1.086572,0.97978 1.97291,1.69511 4.139393,3.34077 1.13031,0.85859 1.050364,0.84423 1.654958,0.29708 z m 138.835386,-8.79779 c 2.51049,-2.43103 2.68168,-2.66126 2.36085,-3.175 -0.46926,-0.75141 -1.05981,-0.69606 -1.85326,0.1737 -0.36508,0.40018 -1.51585,1.54245 -2.55728,2.53838 -1.04143,0.99592 -1.89351,1.87951 -1.89351,1.96354 0,0.22378 0.84517,1.12047 1.0561,1.12047 0.0992,0 1.39838,-1.17949 2.8871,-2.62109 z m -147.566636,1.65404 c 0.266121,-0.24083 0.483854,-0.54429 0.483854,-0.67436 0,-0.29824 -5.19109,-5.50528 -5.477198,-5.49402 -0.116239,0.005 -0.411813,0.2844 -0.656833,0.62184 -0.440955,0.60728 -0.418121,0.64088 2.241836,3.29898 1.478028,1.47699 2.740686,2.68545 2.805906,2.68545 0.06522,0 0.336314,-0.19705 0.602435,-0.43789 z m 154.526486,-9.11304 c 0.937,-1.10566 1.98278,-2.40231 2.32394,-2.88144 0.60408,-0.84834 0.60716,-0.88075 0.11792,-1.23849 -0.27631,-0.20205 -0.63913,-0.33415 -0.80627,-0.29356 -0.16713,0.0406 -1.33186,1.31284 -2.58829,2.82723 -2.18356,2.63189 -2.26453,2.7754 -1.83417,3.25094 0.24763,0.27363 0.59265,0.46333 0.76673,0.42156 0.17407,-0.0418 1.08313,-0.98057 2.02014,-2.08624 z m -161.792405,0.65337 c 0.04644,-0.13932 -0.470752,-0.90304 -1.149318,-1.69715 -0.678563,-0.79411 -1.696056,-2.06891 -2.261095,-2.8329 -0.565036,-0.76398 -1.112879,-1.38532 -1.217429,-1.38075 -0.104551,0.005 -0.408422,0.30808 -0.675267,0.67446 -0.484572,0.66531 -0.483754,0.668 0.657878,2.17449 0.628679,0.8296 1.673363,2.07337 2.32152,2.76394 1.068965,1.1389 1.227757,1.22284 1.708873,0.9034 0.291721,-0.1937 0.568399,-0.46617 0.614838,-0.60549 z m 168.418005,-9.31111 c 0.83674,-1.27896 1.52135,-2.52306 1.52135,-2.76467 0,-0.38443 -0.98606,-1.17576 -1.17429,-0.94237 -0.0388,0.0482 -0.81219,1.19866 -1.71853,2.55665 -1.58271,2.37141 -1.62972,2.48914 -1.18861,2.97656 0.2526,0.27912 0.58965,0.50563 0.749,0.50335 0.15935,-0.002 0.97433,-1.05057 1.81108,-2.32952 z m -175.25582,1.57593 c 0.625952,-0.48139 0.625952,-0.48139 -0.429257,-2.04464 -0.580365,-0.85978 -1.367968,-2.06675 -1.750228,-2.68215 -0.646093,-1.04013 -0.741599,-1.09767 -1.356682,-0.81742 -0.363913,0.16581 -0.661661,0.5095 -0.661661,0.76375 0,0.46512 3.119821,5.27871 3.414159,5.26773 0.08674,-0.003 0.439395,-0.22251 0.783669,-0.48727 z m 179.01279,-5.88403 c 1.50225,-0.88635 1.61606,-2.79976 0.20794,-3.49612 -0.99284,-0.491 -2.60216,-0.0136 -3.18341,0.94433 -0.39495,0.65091 -0.39315,0.77584 0.0237,1.65003 0.38394,0.80513 1.10639,1.37555 1.82549,1.44134 0.10082,0.009 0.60764,-0.23359 1.12626,-0.53958 z m -1.57416,-0.28898 c -0.69593,-0.39463 -0.91707,-0.74717 -0.92199,-1.46977 -0.009,-1.33924 1.80931,-1.99526 2.66677,-0.96208 0.45212,0.54477 0.37128,1.6348 -0.16522,2.22762 -0.53566,0.5919 -0.82904,0.62983 -1.57956,0.20423 z M 19.716733,179.15114 c 0.885912,-0.69685 1.084379,-1.38067 0.720616,-2.48289 -0.700956,-2.12391 -3.976587,-1.38377 -3.976587,0.89853 0,1.87382 1.78423,2.74204 3.255971,1.58436 z m -2.314927,-0.58113 c -0.581243,-0.82984 -0.511289,-1.69358 0.17616,-2.17509 1.697943,-1.18928 3.511849,0.77991 2.057796,2.23396 -0.702119,0.70212 -1.719721,0.6753 -2.233956,-0.0589 z m 189.799724,-5.11298 c 3.91743,-7.6568 6.3612,-14.16862 8.58421,-22.87398 1.70487,-6.67631 3.52719,-22.09936 2.64767,-22.40825 -0.20594,-0.0723 -0.35557,0.75653 -0.47271,2.6184 -0.91306,14.51223 -4.58999,28.55229 -10.76531,41.10637 -1.29321,2.62903 -2.3513,4.87137 -2.3513,4.98298 0,0.75729 0.84733,-0.47393 2.35744,-3.42552 z M 13.846579,172.74159 c -0.974004,-1.92798 -2.148387,-4.45792 -2.60974,-5.62208 -0.461353,-1.16417 -1.250307,-3.1287 -1.753231,-4.36563 -0.974268,-2.39618 -2.5204382,-7.22053 -3.2222957,-10.05417 -0.2342841,-0.94588 -0.594583,-2.37463 -0.8006646,-3.175 -1.0740168,-4.17119 -2.4919043,-14.96388 -2.7460059,-20.90208 -0.021609,-0.50496 -0.081687,-0.56756 -0.2539333,-0.26458 -0.2404655,0.42297 0.2415199,7.759 0.7735623,11.77396 0.9000053,6.79172 3.7039409,18.58181 5.0031797,21.03756 0.1164109,0.22003 0.4163319,1.113 0.6664915,1.98437 0.559127,1.94759 6.189258,13.4171 6.493777,13.22889 0.120877,-0.0747 -0.577136,-1.71326 -1.55114,-3.64124 z m 191.989701,-0.0616 c 0.76399,-1.5169 1.38906,-2.86344 1.38906,-2.99231 0,-0.12886 -0.28861,-0.3658 -0.64136,-0.52652 -0.8031,-0.36592 -0.79034,-0.38144 -2.49983,3.0392 -1.34274,2.68681 -1.34651,2.70148 -0.7934,3.0889 0.30567,0.21409 0.69092,0.33515 0.85611,0.26901 0.1652,-0.0662 0.92544,-1.36137 1.68942,-2.87828 z m -188.317185,1.52795 c 0,-0.17868 -0.462293,-1.25137 -1.027318,-2.38375 -0.565025,-1.13238 -1.103288,-2.28344 -1.196141,-2.55791 -0.156971,-0.464 -0.202406,-0.46864 -0.647162,-0.0661 -0.263085,0.23809 -0.617791,0.43289 -0.788233,0.43289 -0.505647,0 -0.36848,0.46805 0.7894,2.69364 1.381257,2.65495 1.664134,2.95889 2.353301,2.52849 0.283884,-0.17729 0.516153,-0.46854 0.516153,-0.64722 z m -4.122681,-7.64593 c 0.572925,-0.21985 0.545955,-0.3573 -0.486305,-2.47836 -0.497652,-1.02257 -1.109016,-2.48423 -1.358588,-3.24814 -0.249573,-0.76392 -0.483198,-1.4245 -0.519168,-1.46796 -0.03597,-0.0435 -0.388312,0.002 -0.782982,0.10108 -0.852302,0.21391 -0.830484,0.57234 0.208026,3.41752 1.455685,3.98811 1.612899,4.18474 2.939017,3.67586 z m 196.645516,-3.14837 c 1.22756,-3.19721 1.36114,-3.96253 0.73365,-4.20333 -0.84725,-0.32512 -1.05443,-0.12382 -1.67287,1.62534 -0.34729,0.98227 -0.83771,2.20266 -1.08982,2.71198 -0.25211,0.50932 -0.53968,1.30287 -0.63905,1.76344 -0.146,0.67677 -0.0888,0.86173 0.29844,0.96426 1.0476,0.27739 1.26541,0.0143 2.36965,-2.86169 z M 9.814086,156.25959 c 0.05571,-0.0557 -0.02216,-0.55205 -0.173043,-1.10298 -0.150879,-0.55093 -0.520832,-1.89466 -0.822118,-2.98606 -0.3012855,-1.09141 -0.5505942,-2.25227 -0.5540192,-2.57969 -0.00503,-0.481 -0.1556414,-0.59531 -0.7843623,-0.59531 -0.4279744,0 -0.8470461,0.1115 -0.9312706,0.24778 -0.1245508,0.20152 0.561277,3.12177 1.608619,6.84947 0.1429287,0.50871 0.2921778,0.58499 0.8638451,0.44152 0.380086,-0.0954 0.736643,-0.21903 0.792349,-0.27473 z m 203.782824,-3.79766 c 0.4247,-1.65875 0.77218,-3.16291 0.77218,-3.34259 0,-0.28462 -1.32042,-0.73879 -1.53484,-0.52791 -0.0974,0.0958 -1.6134,5.55437 -1.81321,6.52875 -0.11836,0.5772 -0.0109,0.76538 0.61,1.06793 0.91857,0.44761 0.87708,0.52624 1.96587,-3.72618 z M 7.4046853,145.7044 c 0.040223,-0.0402 -0.099339,-0.7353 -0.3101385,-1.54461 -0.2107993,-0.80931 -0.4671986,-2.4336 -0.5697759,-3.60953 -0.1865045,-2.13804 -0.1865045,-2.13804 -1.0783816,-2.13804 -0.8027236,0 -0.8918773,0.0749 -0.8918773,0.74892 0,0.95688 0.9554339,6.27886 1.1975491,6.67061 0.1524309,0.24664 1.3726662,0.15261 1.6526242,-0.12735 z m 207.7589147,0.05 c 5.3e-4,-0.0364 0.2382,-1.49489 0.52841,-3.24114 0.7325,-4.40764 0.71978,-4.63021 -0.26458,-4.63021 -0.43657,0 -0.79409,0.0893 -0.79451,0.19844 -5.3e-4,0.10914 -0.2382,1.62718 -0.52841,3.37343 -0.66016,3.97234 -0.6591,4.03921 0.0662,4.1789 0.96991,0.18682 0.99215,0.18952 0.99294,0.12058 z M 5.6797751,132.36895 c -0.035949,-1.65031 -0.1322724,-3.10883 -0.2140524,-3.24115 -0.08178,-0.13232 -0.5165445,-0.24058 -0.9661441,-0.24058 -0.8174532,0 -0.8174532,0 -0.6681319,3.03191 0.082127,1.66755 0.2301264,3.16265 0.328888,3.32245 0.098762,0.1598 0.4957444,0.25396 0.8821843,0.20924 0.7026179,-0.0813 0.7026179,-0.0813 0.6372561,-3.08187 z m 211.1627149,0.81774 c 0.0928,-0.98226 0.16952,-2.35902 0.17056,-3.05947 0.002,-1.27353 0.002,-1.27353 -0.85802,-1.19062 -0.8599,0.0829 -0.8599,0.0829 -0.93478,2.9061 -0.0669,2.52296 -0.0247,2.83623 0.39688,2.94586 0.99062,0.25762 1.05807,0.16944 1.22536,-1.60187 z M 6.3404494,127.23398 c 1.1622162,-1.08483 0.5133621,-2.95175 -1.1332514,-3.26066 -1.2576714,-0.23594 -2.1606973,0.38467 -2.3976613,1.64779 -0.205483,1.09532 0.051227,1.65858 0.9771957,2.14412 0.7812426,0.40965 1.764937,0.20501 2.553717,-0.53125 z M 3.6589,126.91215 c -0.5094676,-0.77755 -0.5257506,-1.18059 -0.071819,-1.7777 1.2571822,-1.65374 3.5376138,0.0645 2.5456215,1.91808 -0.4173082,0.77974 -1.9270477,0.69407 -2.4738025,-0.14038 z m 214.11395,0.36415 c 0.85817,-0.7995 0.70613,-2.49846 -0.28986,-3.23917 -0.60441,-0.4495 -0.88563,-0.49709 -1.71979,-0.29104 -1.77797,0.43919 -2.32593,2.65446 -0.92069,3.72209 0.71131,0.54041 2.25266,0.43948 2.93034,-0.19188 z m -2.7273,-0.56462 c -0.54221,-0.77412 -0.52027,-1.34852 0.072,-1.8845 0.93122,-0.84274 2.69115,-0.24557 2.69115,0.91314 0,0.7657 -0.80801,1.5594 -1.5875,1.5594 -0.4893,0 -0.91176,-0.21131 -1.17563,-0.58804 z M 3.0867568,119.6268 c 0.100687,-1.96453 0.3045918,-4.34578 0.4531217,-5.29167 0.5734034,-3.65161 0.6937489,-4.43205 0.9995824,-6.48229 0.3037734,-2.03643 1.2050818,-5.96309 2.0041311,-8.731248 0.2100284,-0.7276 0.5523254,-1.9924 0.7606604,-2.81066 0.208335,-0.81825 0.5036526,-1.71122 0.6562614,-1.98437 0.1526087,-0.27315 0.6248953,-1.62773 1.0495262,-3.01018 0.909326,-2.96044 3.409206,-8.70151 5.630364,-12.93033 0.869095,-1.65466 1.498851,-3.08341 1.399459,-3.175 -0.09939,-0.0916 -0.225605,-0.0475 -0.280472,0.098 -0.05487,0.14552 -0.876038,1.69334 -1.824825,3.43959 -4.888813,8.9979 -8.9386055,21.379918 -10.4489538,31.947118 -0.8703106,6.08915 -1.3570031,13.87078 -0.8067992,12.89975 0.1236821,-0.21828 0.3072567,-2.00422 0.4079438,-3.96875 z m 215.5101332,1.25677 c -0.003,-1.34607 -0.18235,-3.81661 -0.39845,-5.4901 -1.81215,-14.03321 -5.13996,-25.473538 -10.50547,-36.115628 -1.78787,-3.54612 -2.31739,-4.39829 -2.61765,-4.21271 -0.3395,0.20982 -0.12425,0.81 1.06922,2.9812 6.49959,11.82435 10.84506,27.532978 11.81345,42.704948 0.0906,1.41883 0.2726,2.57969 0.40454,2.57969 0.13195,0 0.2374,-1.10133 0.23436,-2.4474 z M 5.65271,121.08201 c 0.4109572,-4.42114 0.4758201,-3.96875 -0.5690314,-3.96875 -0.9260416,0 -0.9260416,0 -1.1287842,2.64224 -0.1115084,1.45322 -0.1419508,2.80065 -0.06765,2.99428 0.079442,0.20702 0.4354404,0.31749 0.8642006,0.26818 0.6990136,-0.0804 0.7362145,-0.16032 0.901265,-1.93595 z m 211.29287,-1.47529 c -0.081,-1.7573 -0.19853,-3.24641 -0.26125,-3.30913 -0.0627,-0.0627 -0.47681,-0.0415 -0.92018,0.0472 -0.80612,0.16122 -0.80612,0.16122 -0.683,2.9784 0.0677,1.54944 0.1696,2.966 0.2264,3.1479 0.0568,0.1819 0.48171,0.33073 0.94425,0.33073 0.84099,0 0.84099,0 0.69378,-3.19508 z M 6.5240115,113.46707 c 0.067869,-0.32293 0.2561984,-1.59918 0.4185111,-2.8361 0.1623123,-1.23693 0.3615465,-2.69258 0.4427426,-3.23478 0.1331552,-0.88916 0.07727,-1.01256 -0.5700149,-1.25866 -0.9468874,-0.36001 -1.1015318,-0.22719 -1.2969692,1.11392 -0.090614,0.62181 -0.390099,2.32118 -0.6655216,3.77639 -0.2754225,1.45521 -0.4602138,2.71565 -0.410647,2.80098 0.049567,0.0853 0.5105066,0.17096 1.0243113,0.19027 0.7658203,0.0288 0.9564306,-0.0707 1.0575877,-0.55202 z M 216.33871,113.0361 c 0.0818,-0.13238 0.0359,-0.81699 -0.10198,-1.52135 -0.1379,-0.70436 -0.44779,-2.29269 -0.68864,-3.52962 -0.24084,-1.23692 -0.48821,-2.33114 -0.54971,-2.43159 -0.0615,-0.10045 -0.4773,-0.0552 -0.924,0.10049 -0.69802,0.24333 -0.79016,0.38057 -0.6555,0.97639 0.0862,0.38129 0.33962,1.88388 0.56323,3.33909 0.22361,1.45521 0.45795,2.79466 0.52076,2.97656 0.13099,0.37936 1.61213,0.452 1.83584,0.09 z M 8.4984048,102.49503 c 0.1430674,-0.5457 0.338764,-1.34938 0.4348812,-1.78594 0.09612,-0.43656 0.400371,-1.550428 0.676117,-2.475268 0.275748,-0.92483 0.501359,-1.82146 0.501359,-1.99251 0,-0.36293 -1.5275651,-1.00262 -1.7057527,-0.71431 -0.066297,0.10727 -0.4883719,1.61478 -0.9379432,3.35002 -0.4495715,1.735238 -0.8803631,3.364128 -0.9573148,3.619738 -0.095088,0.31585 0.056699,0.54358 0.4737785,0.71083 1.0349881,0.41502 1.245176,0.31615 1.514875,-0.71256 z M 214.26393,102.35766 c 0.11744,-0.11744 -1.65224,-7.066038 -1.84994,-7.263738 -0.0424,-0.0424 -0.46094,-2.6e-4 -0.93014,0.0936 -0.83105,0.16622 -0.84847,0.19805 -0.67384,1.23167 0.0986,0.58357 0.33156,1.43035 0.51772,1.88173 0.18615,0.45139 0.48358,1.53508 0.66096,2.408198 0.17737,0.87313 0.38325,1.68879 0.4575,1.81259 0.11206,0.18685 1.60125,0.0525 1.81774,-0.16402 z M 11.698262,91.910172 c 0,-0.46899 0.908227,-2.72748 1.801715,-4.48032 0.384926,-0.75515 0.643025,-1.40999 0.573554,-1.45521 -1.661362,-1.08136 -1.666199,-1.07952 -2.464684,0.93438 -0.412981,1.0416 -1.053228,2.63163 -1.422772,3.53339 -0.738507,1.80211 -0.684696,2.36912 0.239237,2.52085 0.635194,0.10431 1.27295,-0.42329 1.27295,-1.05309 z m 198.821928,0.42208 c 0.37065,-0.16888 0.6739,-0.48813 0.6739,-0.70944 0,-0.63393 -2.47136,-6.63439 -2.78146,-6.75339 -0.15319,-0.0588 -0.54839,0.11165 -0.87822,0.37873 -0.65654,0.53164 -0.70272,0.31784 0.88195,4.08386 0.1837,0.43656 0.48275,1.27 0.66457,1.85208 0.51567,1.65094 0.45027,1.59877 1.43926,1.14816 z M 16.348011,81.196072 c 0.531008,-1.05502 1.192026,-2.33495 1.468928,-2.84427 0.501637,-0.92269 0.501386,-0.92775 -0.06954,-1.39776 -0.315148,-0.25944 -0.689462,-0.4329 -0.83181,-0.38545 -0.288736,0.0962 -3.091115,5.19503 -3.096952,5.63474 -0.002,0.15381 0.32371,0.40903 0.723893,0.56717 0.400182,0.15813 0.752895,0.30017 0.783807,0.31565 0.03091,0.0155 0.490664,-0.83505 1.021671,-1.89008 z m 190.401079,1.12448 c 0.26194,0 0.47625,-0.12916 0.47625,-0.28703 0,-0.32977 -2.20324,-4.60364 -2.65199,-5.14435 -0.36452,-0.43922 -1.58134,0.0109 -1.58134,0.58493 0,0.38274 1.98748,4.47878 2.45333,5.0561 0.19142,0.23723 0.36037,0.25749 0.55171,0.0661 0.15169,-0.15169 0.49011,-0.2758 0.75204,-0.2758 z m -3.8101,-6.10658 c 1.72998,-0.60307 1.65939,-3.13311 -0.10739,-3.84944 -0.69746,-0.28277 -0.95737,-0.26536 -1.71696,0.11505 -1.57765,0.7901 -1.71433,2.93134 -0.2349,3.67988 0.80859,0.40912 1.02553,0.41486 2.05925,0.0545 z m -2.21893,-1.16742 c -0.51184,-0.78117 -0.37461,-1.27122 0.5202,-1.85751 1.23402,-0.80857 2.70321,0.64239 1.89675,1.87321 -0.58124,0.88708 -1.83075,0.87897 -2.41695,-0.0157 z m -180.340438,0.64911 c 0.758059,-0.70624 0.794182,-2.35882 0.06597,-3.01785 -0.750474,-0.67917 -2.388021,-0.61295 -2.982007,0.12059 -1.589098,1.96246 1.076588,4.61097 2.916041,2.89726 z m -2.422645,-0.47355 c -0.636026,-0.7028 -0.537644,-1.51593 0.259258,-2.14277 0.886082,-0.69699 1.038816,-0.68855 1.828428,0.10106 0.787816,0.78782 0.818557,1.29811 0.120265,1.9964 -0.660348,0.66035 -1.633281,0.68032 -2.207951,0.0453 z m 183.182953,-4.1311 c 0,-0.20241 -0.10058,-0.40772 -0.2235,-0.45622 -0.12292,-0.0485 -0.39081,-0.39894 -0.59531,-0.77873 -0.73512,-1.36524 -2.43671,-3.675093 -2.70733,-3.675093 -0.15192,0 -0.54543,0.252913 -0.87447,0.562028 -0.59825,0.562031 -0.59825,0.562031 0.74821,2.579685 2.0244,3.03355 1.98467,2.99878 2.89077,2.53022 0.41889,-0.21662 0.76163,-0.55947 0.76163,-0.76189 z m -179.310453,0.56247 c 0.07352,-0.19158 0.854261,-1.3783 1.734991,-2.63715 1.601326,-2.288831 1.601326,-2.288831 0.855537,-2.819879 -0.703599,-0.501007 -0.768081,-0.505241 -1.139861,-0.07483 -0.773234,0.895178 -3.115216,4.538999 -3.115216,4.846879 0,0.36067 0.781235,1.01244 1.228464,1.02489 0.166332,0.005 0.36257,-0.14833 0.436085,-0.33991 z m 181.019263,-0.90845 c -0.67295,-1.04464 -5.93381,-8.307962 -7.71347,-10.649479 -2.43987,-3.210171 -9.83069,-10.386869 -15.12248,-14.684375 -3.87413,-3.14621 -5.13681,-4.08034 -8.63849,-6.390742 -4.06956,-2.685095 -4.10104,-2.702369 -4.10104,-2.250685 0,0.122162 0.28681,0.35279 0.63734,0.512506 0.35054,0.159717 1.16615,0.684843 1.81246,1.166949 0.64631,0.482106 2.34169,1.709993 3.7675,2.728639 5.5576,3.970528 9.67928,7.485383 14.37949,12.262421 3.64021,3.699711 7.21189,7.759065 9.11492,10.359453 0.69223,0.945886 1.65116,2.255573 2.13097,2.910417 0.4798,0.654844 1.43516,1.994296 2.12301,2.976566 0.68784,0.98226 1.4369,1.78593 1.66457,1.78593 0.36224,0 0.3554,-0.0909 -0.0548,-0.7276 z M 20.04398,69.180452 c 0.397697,-0.67862 1.331745,-2.026898 2.075662,-2.996178 0.743918,-0.96928 1.650234,-2.156621 2.014036,-2.638539 3.708152,-4.912058 4.890238,-6.293365 9.260417,-10.821095 2.100474,-2.176198 6.335797,-5.961182 9.392708,-8.393991 2.756482,-2.193716 9.492718,-6.981325 9.849122,-7.000015 0.344033,-0.01804 2.033942,-1.555835 1.879479,-1.7103 -0.36204,-0.36204 -8.141891,4.751667 -11.445772,7.52332 -5.127329,4.301363 -6.386184,5.413621 -8.83213,7.803586 -3.583056,3.501052 -10.382819,11.562943 -12.625653,14.969146 -0.431186,0.654844 -0.856789,1.250156 -0.945785,1.322917 -0.225196,0.184113 -1.559469,2.729039 -1.559469,2.974459 0,0.42193 0.238873,0.15861 0.937385,-1.03331 z m 175.26038,-5.095803 c 0.64672,-0.497054 0.64672,-0.497054 -0.0366,-1.383178 -1.38531,-1.79637 -3.79753,-4.550367 -4.20838,-4.804648 -0.31645,-0.19586 -0.57104,-0.114226 -1.00872,0.323453 -0.32199,0.321988 -0.54823,0.691343 -0.50275,0.820791 0.18582,0.528952 4.54988,5.551961 4.81888,5.546518 0.15999,-0.0032 0.58191,-0.229555 0.93761,-0.502936 z M 27.550306,63.57803 c 0.143135,-0.267448 1.210152,-1.606901 2.371146,-2.976562 2.110901,-2.49029 2.110901,-2.49029 1.5524,-3.088399 -0.558503,-0.598109 -0.558503,-0.598109 -1.327126,0.132292 -0.422743,0.401719 -0.937731,1.054121 -1.144418,1.449779 -0.206687,0.395657 -0.965907,1.271359 -1.687155,1.946002 -1.550951,1.450734 -1.84245,2.11636 -1.154952,2.637303 0.666748,0.505217 1.082035,0.475218 1.390105,-0.100415 z M 188.05236,55.964082 c 0.35868,-0.235019 0.65215,-0.518475 0.65215,-0.629904 0,-0.275067 -4.38242,-4.5388 -5.13939,-5.000202 -0.54206,-0.330404 -0.66432,-0.309711 -1.17247,0.198438 -0.31202,0.312017 -0.56731,0.609277 -0.56731,0.660577 0,0.190259 5.16711,5.191601 5.36712,5.194932 0.11426,0.0019 0.50122,-0.188823 0.8599,-0.423841 z M 36.97419,53.003021 c 2.74119,-2.646098 2.811111,-2.742144 2.35952,-3.241146 -0.255958,-0.282831 -0.593624,-0.514238 -0.750369,-0.514238 -0.350028,0 -5.453829,5.051705 -5.453829,5.398161 0,0.26248 0.828516,1.267881 0.94924,1.151898 0.0388,-0.03727 1.341744,-1.294876 2.895438,-2.794675 z m 142.77025,-6.136634 c -0.55821,-0.509323 -1.93484,-1.630254 -3.05918,-2.49096 l -2.04425,-1.564918 -0.6466,0.752502 c -0.35563,0.413877 -0.55486,0.828842 -0.44273,0.922144 0.11213,0.0933 1.03731,0.810353 2.05596,1.593445 1.01864,0.783093 2.31341,1.829583 2.87726,2.325537 l 1.02518,0.901732 0.62465,-0.756719 c 0.62465,-0.756722 0.62465,-0.756722 -0.39029,-1.682763 z M 45.26456,45.808053 c 1.60555,-1.236927 2.92526,-2.379334 2.932689,-2.538679 0.0074,-0.159348 -0.217181,-0.498496 -0.499139,-0.753666 -0.49185,-0.445116 -0.553564,-0.433361 -1.520812,0.289721 -2.410843,1.802265 -4.845703,3.854273 -4.845703,4.083775 0,0.376365 0.632402,1.310823 0.835551,1.234644 0.09803,-0.03676 1.491867,-1.078868 3.097414,-2.315795 z m 126.29425,-3.967585 c 0.44727,-0.786054 0.44567,-0.791843 -0.39688,-1.433693 -1.45305,-1.106931 -3.96839,-2.536221 -4.46338,-2.536221 -0.61421,0 -0.98153,1.299107 -0.45487,1.608756 0.20247,0.119041 1.32062,0.87017 2.48479,1.669177 1.16417,0.799007 2.1762,1.459148 2.24896,1.46698 0.0728,0.0078 0.33438,-0.340916 0.58138,-0.774999 z M 53.183647,40.21573 c 1.121215,-0.747445 2.137646,-1.447783 2.258732,-1.556307 0.305668,-0.27395 -0.391205,-1.318192 -0.879117,-1.317332 -0.46645,8.22e-4 -4.500417,2.561362 -4.500417,2.856619 0,0.251356 0.778909,1.37601 0.952992,1.37601 0.07108,0 1.046596,-0.611545 2.16781,-1.35899 z M 164.9766,38.299412 c 0.62586,-0.512096 0.73242,-0.776849 0.66146,-1.643317 -0.0723,-0.88225 -0.21963,-1.09866 -1.01063,-1.483999 -1.22349,-0.59603 -1.64433,-0.583831 -2.47786,0.07183 -0.52331,0.411635 -0.69714,0.78673 -0.69714,1.504301 0,1.966833 1.9612,2.830068 3.52417,1.551187 z m -2.2674,-0.450051 c -0.73185,-0.426262 -0.60684,-1.776709 0.19844,-2.143616 0.98905,-0.450642 1.98437,0.07496 1.98437,1.047886 0,1.249052 -1.031,1.766596 -2.18281,1.09573 z M 59.468187,37.435043 c 0.836795,-0.902916 0.826701,-1.941119 -0.02783,-2.863179 -0.560495,-0.604786 -0.821666,-0.701736 -1.521354,-0.564746 -1.137565,0.22272 -2.147853,1.004448 -2.257335,1.746655 -0.294587,1.997092 2.40769,3.190637 3.806524,1.68127 z M 56.862059,37.13464 c -0.582829,-0.644021 -0.571523,-1.452633 0.0279,-1.9951 0.791409,-0.716216 1.632318,-0.65962 2.248424,0.151326 0.552786,0.727604 0.552786,0.727604 0.01193,1.455208 -0.662805,0.891675 -1.67708,1.063907 -2.288257,0.388566 z M 161.11893,35.305406 c 0.18037,-0.386977 0.29029,-0.741251 0.24427,-0.787275 -0.25748,-0.25748 -5.34013,-2.732994 -5.61131,-2.732994 -0.17821,0 -0.52427,0.305625 -0.76903,0.679165 -0.34938,0.533226 -0.37738,0.760641 -0.13032,1.058334 0.17307,0.208542 0.44893,0.379348 0.61301,0.379568 0.16409,2.2e-4 1.30939,0.521216 2.54512,1.15777 1.23574,0.636554 2.36683,1.110493 2.51355,1.053199 0.14671,-0.0573 0.41433,-0.42079 0.59471,-0.807767 z M 63.981349,34.152839 c 1.512636,-0.735056 2.750245,-1.457258 2.750245,-1.604894 0,-0.47354 -0.537937,-1.291975 -0.849185,-1.291975 -0.401018,0 -4.45398,2.075757 -5.020548,2.571314 -0.36,0.314879 -0.390012,0.512292 -0.155969,1.025962 0.159395,0.349831 0.342775,0.636058 0.407511,0.636058 0.06473,0 1.355312,-0.60141 2.867946,-1.336465 z m 98.529411,-0.358388 c 0,-0.726898 -8.68474,-4.583132 -16.53646,-7.342583 -4.83717,-1.700004 -15.62937,-4.396167 -19.97604,-4.990517 -1.09141,-0.149235 -2.16297,-0.318826 -2.38125,-0.376868 -0.21828,-0.05804 -1.52797,-0.177632 -2.91042,-0.265756 -5.25526,-0.334994 -6.50356,-0.480142 -7.19675,-0.836809 -0.91674,-0.47169 -3.7302,-0.474985 -4.65649,-0.0055 -0.43418,0.220086 -2.1676,0.435647 -4.41863,0.549483 -3.76695,0.190499 -7.111797,0.593998 -14.155209,1.707589 -2.503541,0.395819 -9.638266,2.020285 -11.90625,2.710868 -5.413066,1.648233 -11.407862,4.047815 -15.610417,6.248496 -3.653371,1.9131 -3.575978,1.866953 -3.40978,2.033152 0.0649,0.0649 1.490427,-0.583286 3.16784,-1.440411 5.403448,-2.761055 12.853207,-5.488383 20.614857,-7.547018 4.807317,-1.275053 16.324228,-3.036867 20.902079,-3.197522 2.5859,-0.09075 3.99213,-0.26846 5.09429,-0.643783 1.92682,-0.656148 3.37899,-0.66456 4.1966,-0.02431 0.47481,0.371817 1.28589,0.537085 3.27682,0.667695 5.72253,0.375411 14.84622,1.801846 14.55357,2.275364 -0.0759,0.122751 -0.52395,0.119823 -0.99575,-0.0065 -0.4718,-0.126328 -2.04844,-0.402908 -3.50365,-0.614619 -2.9248,-0.425516 -3.30729,-0.320444 -3.30729,0.908523 0,0.661431 0.11643,0.767919 0.99219,0.90749 0.5457,0.08697 2.24234,0.39058 3.77031,0.674689 1.52797,0.28411 2.86332,0.516004 2.96745,0.515321 0.10412,-6.88e-4 0.26635,-0.581904 0.3605,-1.291603 0.13351,-1.006508 0.26647,-1.270168 0.60442,-1.198559 9.68059,2.05124 20.99559,6.043946 27.81763,9.815965 2.16041,1.194529 2.64583,1.335373 2.64583,0.767686 z m -10.13898,-2.528336 c 0.37369,-0.990042 0.34405,-1.013547 -2.8256,-2.240605 -1.38245,-0.535182 -2.78704,-1.085704 -3.12131,-1.223382 -1.00401,-0.413533 -1.27409,-0.295075 -1.57693,0.691648 -0.21684,0.706557 -0.21141,0.967526 0.0217,1.044217 2.41315,0.793719 5.10245,1.788434 5.67457,2.098902 1.07585,0.583822 1.49964,0.49784 1.82751,-0.37078 z M 75.330553,29.424424 c 1.21852,-0.427423 1.316278,-0.524841 1.23881,-1.234477 -0.04626,-0.423739 -0.168915,-0.857374 -0.272573,-0.963633 -0.162843,-0.166932 -3.123777,0.71862 -3.876654,1.159424 -0.145521,0.0852 -0.740833,0.302879 -1.322917,0.483727 -0.582083,0.180848 -1.327446,0.497685 -1.656365,0.704083 -0.564346,0.35413 -0.575654,0.418541 -0.200761,1.143503 l 0.397269,0.768235 2.185138,-0.798409 c 1.201825,-0.439125 2.780448,-1.007229 3.508053,-1.262453 z m 66.747097,-1.927721 c 0.17623,-0.466868 0.23209,-0.920682 0.12415,-1.008476 -0.34982,-0.284537 -7.46492,-2.206988 -7.61451,-2.057392 -0.0798,0.07974 -0.21209,0.558476 -0.2941,1.063853 -0.14911,0.918865 -0.14911,0.918865 1.43757,1.231026 0.87267,0.171688 2.40338,0.597526 3.40157,0.946306 2.38635,0.833822 2.56851,0.82298 2.94532,-0.175317 z M 84.061802,26.772802 c 4.173302,-1.099001 3.988054,-1.02732 3.616119,-1.399255 -0.169855,-0.169854 -0.308827,-0.536658 -0.308827,-0.815118 0,-0.450527 -0.131871,-0.486517 -1.197245,-0.326754 -0.658484,0.09875 -2.176531,0.466954 -3.373437,0.81824 -1.196906,0.351287 -2.377525,0.641201 -2.623598,0.644254 -0.623181,0.0077 -0.768202,0.343669 -0.571952,1.324913 0.137855,0.689278 0.271407,0.821129 0.726424,0.717186 0.306633,-0.07005 1.986266,-0.503607 3.732516,-0.963466 z m 10.31875,-2.110472 c 1.164167,-0.169078 2.622683,-0.369317 3.241146,-0.444974 1.073973,-0.13138 1.124479,-0.177723 1.124479,-1.031774 0,-0.491818 -0.09846,-0.955065 -0.218794,-1.029437 -0.120335,-0.07437 -1.400257,0.0483 -2.844271,0.272608 -1.444011,0.224306 -3.220789,0.489562 -3.948393,0.589458 -1.208839,0.165966 -1.316942,0.238078 -1.253628,0.836256 0.125164,1.182488 0.294889,1.382212 1.058238,1.245266 0.398505,-0.07149 1.677057,-0.268324 2.841223,-0.437403 z m 18.103658,-0.705921 c 0.98576,-0.829458 1.14693,-2.293252 0.30228,-2.745296 -0.86345,-0.462101 -1.11728,-0.318684 -0.66301,0.374611 0.51996,0.793556 0.32026,1.534252 -0.5374,1.993256 -0.54887,0.293747 -0.74552,0.279425 -1.31853,-0.09603 -0.81663,-0.535078 -0.85511,-1.185098 -0.12509,-2.113175 0.54591,-0.694008 0.54598,-0.69714 0.015,-0.69714 -0.64505,0 -1.35713,0.943938 -1.35713,1.799016 0,0.826053 1.36757,2.169734 2.20831,2.169734 0.36383,0 1.02783,-0.30824 1.47556,-0.684978 z m 8.17551,-0.872186 c 0.047,-0.490256 -0.0125,-0.988143 -0.13229,-1.106417 -0.27962,-0.276198 -5.69788,-0.543451 -6.06463,-0.299135 -0.47243,0.31472 -0.61373,1.039861 -0.28647,1.470115 0.21989,0.289087 1.097,0.482757 2.95839,0.653224 3.48576,0.319229 3.42443,0.331717 3.525,-0.717787 z m -12.98385,0.202489 c 0.60092,-0.2218 0.72902,-0.634858 0.43471,-1.40181 -0.17834,-0.464753 -1.90737,-0.553764 -4.82767,-0.248531 -1.62632,0.169983 -1.62632,0.169983 -1.62632,1.191953 v 1.021969 l 2.71198,-0.171926 c 1.49159,-0.09456 2.97987,-0.270804 3.3073,-0.391655 z"
       id="path440" /></g></svg>
