<?xml version="1.0" encoding="UTF-8"?>
<!DOCTYPE svg PUBLIC "-//W3C//DTD SVG 1.1//EN" "http://www.w3.org/Graphics/SVG/1.1/DTD/svg11.dtd">
<svg version="1.2" width="279.4mm" height="215.9mm" viewBox="0 0 27940 21590" preserveAspectRatio="xMidYMid" fill-rule="evenodd" stroke-width="28.222" stroke-linejoin="round" xmlns="http://www.w3.org/2000/svg" xmlns:ooo="http://xml.openoffice.org/svg/export" xmlns:xlink="http://www.w3.org/1999/xlink" xmlns:presentation="http://sun.com/xmlns/staroffice/presentation" xmlns:smil="http://www.w3.org/2001/SMIL20/" xmlns:anim="urn:oasis:names:tc:opendocument:xmlns:animation:1.0" xml:space="preserve">
 <defs class="ClipPathGroup">
  <clipPath id="presentation_clip_path" clipPathUnits="userSpaceOnUse">
   <rect x="0" y="0" width="27940" height="21590"/>
  </clipPath>
  <clipPath id="presentation_clip_path_shrink" clipPathUnits="userSpaceOnUse">
   <rect x="27" y="21" width="27885" height="21547"/>
  </clipPath>
 </defs>
 <defs class="TextShapeIndex">
  <g ooo:slide="id1" ooo:id-list="id3 id4 id5 id6 id7 id8 id9 id10 id11 id12 id13 id14 id15 id16 id17 id18 id19 id20 id21 id22"/>
 </defs>
 <defs class="EmbeddedBulletChars">
  <g id="bullet-char-template-57356" transform="scale(0.00048828125,-0.00048828125)">
   <path d="M 580,1141 L 1163,571 580,0 -4,571 580,1141 Z"/>
  </g>
  <g id="bullet-char-template-57354" transform="scale(0.00048828125,-0.00048828125)">
   <path d="M 8,1128 L 1137,1128 1137,0 8,0 8,1128 Z"/>
  </g>
  <g id="bullet-char-template-10146" transform="scale(0.00048828125,-0.00048828125)">
   <path d="M 174,0 L 602,739 174,1481 1456,739 174,0 Z M 1358,739 L 309,1346 659,739 1358,739 Z"/>
  </g>
  <g id="bullet-char-template-10132" transform="scale(0.00048828125,-0.00048828125)">
   <path d="M 2015,739 L 1276,0 717,0 1260,543 174,543 174,936 1260,936 717,1481 1274,1481 2015,739 Z"/>
  </g>
  <g id="bullet-char-template-10007" transform="scale(0.00048828125,-0.00048828125)">
   <path d="M 0,-2 C -7,14 -16,27 -25,37 L 356,567 C 262,823 215,952 215,954 215,979 228,992 255,992 264,992 276,990 289,987 310,991 331,999 354,1012 L 381,999 492,748 772,1049 836,1024 860,1049 C 881,1039 901,1025 922,1006 886,937 835,863 770,784 769,783 710,716 594,584 L 774,223 C 774,196 753,168 711,139 L 727,119 C 717,90 699,76 672,76 641,76 570,178 457,381 L 164,-76 C 142,-110 111,-127 72,-127 30,-127 9,-110 8,-76 1,-67 -2,-52 -2,-32 -2,-23 -1,-13 0,-2 Z"/>
  </g>
  <g id="bullet-char-template-10004" transform="scale(0.00048828125,-0.00048828125)">
   <path d="M 285,-33 C 182,-33 111,30 74,156 52,228 41,333 41,471 41,549 55,616 82,672 116,743 169,778 240,778 293,778 328,747 346,684 L 369,508 C 377,444 397,411 428,410 L 1163,1116 C 1174,1127 1196,1133 1229,1133 1271,1133 1292,1118 1292,1087 L 1292,965 C 1292,929 1282,901 1262,881 L 442,47 C 390,-6 338,-33 285,-33 Z"/>
  </g>
  <g id="bullet-char-template-9679" transform="scale(0.00048828125,-0.00048828125)">
   <path d="M 813,0 C 632,0 489,54 383,161 276,268 223,411 223,592 223,773 276,916 383,1023 489,1130 632,1184 813,1184 992,1184 1136,1130 1245,1023 1353,916 1407,772 1407,592 1407,412 1353,268 1245,161 1136,54 992,0 813,0 Z"/>
  </g>
  <g id="bullet-char-template-8226" transform="scale(0.00048828125,-0.00048828125)">
   <path d="M 346,457 C 273,457 209,483 155,535 101,586 74,649 74,723 74,796 101,859 155,911 209,963 273,989 346,989 419,989 480,963 531,910 582,859 608,796 608,723 608,648 583,586 532,535 482,483 420,457 346,457 Z"/>
  </g>
  <g id="bullet-char-template-8211" transform="scale(0.00048828125,-0.00048828125)">
   <path d="M -4,459 L 1135,459 1135,606 -4,606 -4,459 Z"/>
  </g>
  <g id="bullet-char-template-61548" transform="scale(0.00048828125,-0.00048828125)">
   <path d="M 173,740 C 173,903 231,1043 346,1159 462,1274 601,1332 765,1332 928,1332 1067,1274 1183,1159 1299,1043 1357,903 1357,740 1357,577 1299,437 1183,322 1067,206 928,148 765,148 601,148 462,206 346,322 231,437 173,577 173,740 Z"/>
  </g>
 </defs>
 <g>
  <g id="id2" class="Master_Slide">
   <g id="bg-id2" class="Background"/>
   <g id="bo-id2" class="BackgroundObjects"/>
  </g>
 </g>
 <g class="SlideGroup">
  <g>
   <g id="container-id1">
    <g id="id1" class="Slide" clip-path="url(#presentation_clip_path)">
     <g class="Page">
      <g class="com.sun.star.drawing.CustomShape">
       <g id="id3">
        <rect class="BoundingBox" stroke="none" fill="none" x="7400" y="4077" width="13212" height="13212"/>
        <path fill="none" stroke="rgb(0,0,0)" d="M 20610,10683 C 20610,10754 20609,10826 20606,10898"/>
        <path fill="none" stroke="rgb(0,0,0)" d="M 20603,10979 C 20600,11051 20596,11123 20590,11194"/>
        <path fill="none" stroke="rgb(0,0,0)" d="M 20583,11275 C 20577,11346 20569,11418 20561,11489"/>
        <path fill="none" stroke="rgb(0,0,0)" d="M 20550,11569 C 20541,11641 20530,11712 20518,11782"/>
        <path fill="none" stroke="rgb(0,0,0)" d="M 20504,11862 C 20491,11933 20477,12003 20462,12074"/>
        <path fill="none" stroke="rgb(0,0,0)" d="M 20444,12153 C 20428,12223 20411,12292 20393,12362"/>
        <path fill="none" stroke="rgb(0,0,0)" d="M 20372,12440 C 20353,12509 20332,12578 20311,12647"/>
        <path fill="none" stroke="rgb(0,0,0)" d="M 20287,12724 C 20264,12792 20241,12860 20217,12928"/>
        <path fill="none" stroke="rgb(0,0,0)" d="M 20189,13004 C 20163,13071 20137,13138 20110,13204"/>
        <path fill="none" stroke="rgb(0,0,0)" d="M 20078,13279 C 20050,13345 20021,13410 19990,13476"/>
        <path fill="none" stroke="rgb(0,0,0)" d="M 19956,13549 C 19925,13613 19892,13678 19859,13741"/>
        <path fill="none" stroke="rgb(0,0,0)" d="M 19821,13813 C 19790,13871 19758,13928 19725,13985 19722,13990 19719,13996 19716,14001"/>
        <path fill="none" stroke="rgb(0,0,0)" d="M 19675,14071 C 19638,14133 19600,14194 19561,14254"/>
        <path fill="none" stroke="rgb(0,0,0)" d="M 19517,14322 C 19477,14382 19437,14441 19395,14500"/>
        <path fill="none" stroke="rgb(0,0,0)" d="M 19348,14565 C 19306,14624 19263,14681 19218,14738"/>
        <path fill="none" stroke="rgb(0,0,0)" d="M 19168,14801 C 19124,14857 19078,14913 19031,14968"/>
        <path fill="none" stroke="rgb(0,0,0)" d="M 18978,15029 C 18931,15083 18883,15136 18834,15189"/>
        <path fill="none" stroke="rgb(0,0,0)" d="M 18778,15248 C 18729,15299 18678,15351 18627,15401"/>
        <path fill="none" stroke="rgb(0,0,0)" d="M 18569,15457 C 18517,15507 18464,15556 18410,15604"/>
        <path fill="none" stroke="rgb(0,0,0)" d="M 18350,15657 C 18296,15704 18241,15751 18185,15796"/>
        <path fill="none" stroke="rgb(0,0,0)" d="M 18122,15847 C 18066,15892 18009,15936 17951,15979"/>
        <path fill="none" stroke="rgb(0,0,0)" d="M 17886,16027 C 17828,16069 17769,16110 17710,16150"/>
        <path fill="none" stroke="rgb(0,0,0)" d="M 17643,16195 C 17583,16235 17522,16273 17461,16311"/>
        <path fill="none" stroke="rgb(0,0,0)" d="M 17392,16353 C 17364,16370 17336,16386 17308,16402 17273,16422 17239,16441 17204,16461"/>
        <path fill="none" stroke="rgb(0,0,0)" d="M 17133,16499 C 17070,16533 17006,16566 16942,16598"/>
        <path fill="none" stroke="rgb(0,0,0)" d="M 16869,16634 C 16805,16665 16739,16695 16674,16724"/>
        <path fill="none" stroke="rgb(0,0,0)" d="M 16599,16756 C 16533,16785 16467,16812 16400,16838"/>
        <path fill="none" stroke="rgb(0,0,0)" d="M 16324,16867 C 16257,16892 16189,16916 16121,16939"/>
        <path fill="none" stroke="rgb(0,0,0)" d="M 16044,16964 C 15976,16987 15907,17008 15838,17028"/>
        <path fill="none" stroke="rgb(0,0,0)" d="M 15760,17050 C 15691,17069 15622,17087 15552,17103"/>
        <path fill="none" stroke="rgb(0,0,0)" d="M 15473,17122 C 15403,17138 15333,17153 15262,17166"/>
        <path fill="none" stroke="rgb(0,0,0)" d="M 15183,17181 C 15112,17194 15041,17206 14970,17216"/>
        <path fill="none" stroke="rgb(0,0,0)" d="M 14890,17228 C 14819,17237 14747,17246 14676,17253"/>
        <path fill="none" stroke="rgb(0,0,0)" d="M 14595,17261 C 14524,17267 14452,17272 14380,17276"/>
        <path fill="none" stroke="rgb(0,0,0)" d="M 14299,17280 C 14228,17284 14156,17286 14084,17287"/>
        <path fill="none" stroke="rgb(0,0,0)" d="M 14003,17287 C 13931,17287 13859,17286 13787,17283"/>
        <path fill="none" stroke="rgb(0,0,0)" d="M 13706,17280 C 13635,17277 13563,17273 13491,17267"/>
        <path fill="none" stroke="rgb(0,0,0)" d="M 13411,17260 C 13339,17254 13268,17246 13196,17237"/>
        <path fill="none" stroke="rgb(0,0,0)" d="M 13116,17227 C 13045,17217 12974,17206 12903,17194"/>
        <path fill="none" stroke="rgb(0,0,0)" d="M 12823,17180 C 12753,17167 12682,17153 12612,17138"/>
        <path fill="none" stroke="rgb(0,0,0)" d="M 12533,17121 C 12463,17105 12393,17088 12324,17069"/>
        <path fill="none" stroke="rgb(0,0,0)" d="M 12246,17048 C 12176,17029 12107,17009 12039,16987"/>
        <path fill="none" stroke="rgb(0,0,0)" d="M 11962,16963 C 11893,16941 11825,16917 11758,16893"/>
        <path fill="none" stroke="rgb(0,0,0)" d="M 11682,16865 C 11615,16839 11548,16813 11481,16786"/>
        <path fill="none" stroke="rgb(0,0,0)" d="M 11407,16754 C 11341,16726 11275,16697 11210,16666"/>
        <path fill="none" stroke="rgb(0,0,0)" d="M 11137,16632 C 11072,16600 11008,16568 10944,16535"/>
        <path fill="none" stroke="rgb(0,0,0)" d="M 10873,16497 C 10816,16466 10759,16435 10703,16402 10697,16399 10691,16395 10685,16391"/>
        <path fill="none" stroke="rgb(0,0,0)" d="M 10615,16350 C 10553,16313 10492,16275 10432,16237"/>
        <path fill="none" stroke="rgb(0,0,0)" d="M 10364,16192 C 10304,16153 10245,16112 10186,16071"/>
        <path fill="none" stroke="rgb(0,0,0)" d="M 10121,16024 C 10062,15981 10005,15938 9948,15894"/>
        <path fill="none" stroke="rgb(0,0,0)" d="M 9885,15844 C 9829,15799 9773,15753 9718,15706"/>
        <path fill="none" stroke="rgb(0,0,0)" d="M 9657,15654 C 9603,15606 9550,15558 9497,15509"/>
        <path fill="none" stroke="rgb(0,0,0)" d="M 9439,15454 C 9387,15404 9336,15353 9285,15302"/>
        <path fill="none" stroke="rgb(0,0,0)" d="M 9229,15244 C 9179,15192 9131,15139 9083,15085"/>
        <path fill="none" stroke="rgb(0,0,0)" d="M 9029,15025 C 8982,14971 8936,14916 8890,14860"/>
        <path fill="none" stroke="rgb(0,0,0)" d="M 8839,14797 C 8795,14741 8751,14684 8708,14626"/>
        <path fill="none" stroke="rgb(0,0,0)" d="M 8660,14561 C 8618,14503 8576,14444 8536,14385"/>
        <path fill="none" stroke="rgb(0,0,0)" d="M 8491,14317 C 8452,14257 8413,14197 8376,14136"/>
        <path fill="none" stroke="rgb(0,0,0)" d="M 8334,14066 C 8318,14039 8302,14012 8286,13985 8266,13950 8246,13915 8226,13879"/>
        <path fill="none" stroke="rgb(0,0,0)" d="M 8187,13808 C 8153,13745 8120,13681 8089,13617"/>
        <path fill="none" stroke="rgb(0,0,0)" d="M 8053,13544 C 8022,13479 7992,13414 7963,13348"/>
        <path fill="none" stroke="rgb(0,0,0)" d="M 7931,13274 C 7902,13208 7875,13141 7849,13074"/>
        <path fill="none" stroke="rgb(0,0,0)" d="M 7821,12999 C 7795,12931 7771,12864 7748,12796"/>
        <path fill="none" stroke="rgb(0,0,0)" d="M 7723,12719 C 7701,12651 7680,12582 7660,12513"/>
        <path fill="none" stroke="rgb(0,0,0)" d="M 7638,12435 C 7619,12366 7601,12296 7584,12226"/>
        <path fill="none" stroke="rgb(0,0,0)" d="M 7566,12147 C 7550,12077 7535,12007 7521,11936"/>
        <path fill="none" stroke="rgb(0,0,0)" d="M 7506,11857 C 7493,11786 7482,11715 7471,11644"/>
        <path fill="none" stroke="rgb(0,0,0)" d="M 7460,11564 C 7451,11493 7442,11422 7435,11350"/>
        <path fill="none" stroke="rgb(0,0,0)" d="M 7427,11270 C 7421,11198 7416,11126 7411,11054"/>
        <path fill="none" stroke="rgb(0,0,0)" d="M 7407,10974 C 7404,10902 7402,10830 7401,10758"/>
        <path fill="none" stroke="rgb(0,0,0)" d="M 7401,10677 C 7401,10605 7402,10533 7405,10462"/>
        <path fill="none" stroke="rgb(0,0,0)" d="M 7408,10381 C 7411,10309 7416,10237 7421,10166"/>
        <path fill="none" stroke="rgb(0,0,0)" d="M 7428,10085 C 7435,10013 7442,9942 7451,9871"/>
        <path fill="none" stroke="rgb(0,0,0)" d="M 7462,9790 C 7471,9719 7482,9648 7494,9577"/>
        <path fill="none" stroke="rgb(0,0,0)" d="M 7508,9498 C 7521,9427 7535,9357 7550,9286"/>
        <path fill="none" stroke="rgb(0,0,0)" d="M 7568,9207 C 7584,9137 7601,9068 7619,8998"/>
        <path fill="none" stroke="rgb(0,0,0)" d="M 7641,8920 C 7660,8851 7680,8782 7701,8713"/>
        <path fill="none" stroke="rgb(0,0,0)" d="M 7726,8636 C 7748,8568 7772,8500 7796,8432"/>
        <path fill="none" stroke="rgb(0,0,0)" d="M 7824,8356 C 7849,8289 7876,8222 7903,8156"/>
        <path fill="none" stroke="rgb(0,0,0)" d="M 7935,8081 C 7963,8015 7992,7950 8023,7885"/>
        <path fill="none" stroke="rgb(0,0,0)" d="M 8058,7812 C 8089,7747 8121,7683 8154,7619"/>
        <path fill="none" stroke="rgb(0,0,0)" d="M 8192,7548 C 8223,7491 8254,7436 8286,7380 8290,7373 8294,7366 8298,7359"/>
        <path fill="none" stroke="rgb(0,0,0)" d="M 8339,7290 C 8376,7228 8414,7167 8453,7107"/>
        <path fill="none" stroke="rgb(0,0,0)" d="M 8497,7039 C 8537,6979 8577,6920 8619,6861"/>
        <path fill="none" stroke="rgb(0,0,0)" d="M 8666,6795 C 8708,6737 8752,6680 8796,6623"/>
        <path fill="none" stroke="rgb(0,0,0)" d="M 8846,6560 C 8891,6504 8937,6448 8983,6393"/>
        <path fill="none" stroke="rgb(0,0,0)" d="M 9036,6332 C 9083,6278 9132,6225 9181,6172"/>
        <path fill="none" stroke="rgb(0,0,0)" d="M 9236,6114 C 9286,6062 9337,6011 9388,5960"/>
        <path fill="none" stroke="rgb(0,0,0)" d="M 9446,5904 C 9498,5855 9551,5806 9605,5758"/>
        <path fill="none" stroke="rgb(0,0,0)" d="M 9665,5704 C 9719,5657 9774,5611 9830,5565"/>
        <path fill="none" stroke="rgb(0,0,0)" d="M 9893,5515 C 9949,5470 10006,5426 10064,5383"/>
        <path fill="none" stroke="rgb(0,0,0)" d="M 10129,5335 C 10187,5293 10246,5252 10305,5212"/>
        <path fill="none" stroke="rgb(0,0,0)" d="M 10373,5167 C 10433,5127 10493,5089 10555,5051"/>
        <path fill="none" stroke="rgb(0,0,0)" d="M 10624,5009 C 10650,4994 10677,4978 10703,4963 10739,4942 10775,4922 10811,4902"/>
        <path fill="none" stroke="rgb(0,0,0)" d="M 10882,4863 C 10945,4829 11009,4796 11074,4764"/>
        <path fill="none" stroke="rgb(0,0,0)" d="M 11146,4729 C 11211,4698 11276,4668 11342,4639"/>
        <path fill="none" stroke="rgb(0,0,0)" d="M 11416,4607 C 11483,4578 11549,4551 11616,4525"/>
        <path fill="none" stroke="rgb(0,0,0)" d="M 11692,4497 C 11759,4471 11827,4447 11895,4424"/>
        <path fill="none" stroke="rgb(0,0,0)" d="M 11972,4399 C 12040,4377 12109,4356 12178,4336"/>
        <path fill="none" stroke="rgb(0,0,0)" d="M 12256,4314 C 12325,4295 12394,4277 12464,4260"/>
        <path fill="none" stroke="rgb(0,0,0)" d="M 12543,4242 C 12613,4226 12684,4211 12754,4198"/>
        <path fill="none" stroke="rgb(0,0,0)" d="M 12834,4183 C 12904,4170 12975,4158 13046,4148"/>
        <path fill="none" stroke="rgb(0,0,0)" d="M 13126,4137 C 13198,4127 13269,4119 13341,4112"/>
        <path fill="none" stroke="rgb(0,0,0)" d="M 13421,4104 C 13493,4098 13564,4092 13636,4088"/>
        <path fill="none" stroke="rgb(0,0,0)" d="M 13717,4084 C 13789,4081 13860,4079 13932,4078"/>
        <path fill="none" stroke="rgb(0,0,0)" d="M 14013,4078 C 14085,4078 14157,4079 14229,4082"/>
        <path fill="none" stroke="rgb(0,0,0)" d="M 14310,4085 C 14382,4088 14453,4093 14525,4098"/>
        <path fill="none" stroke="rgb(0,0,0)" d="M 14606,4105 C 14677,4112 14749,4120 14820,4128"/>
        <path fill="none" stroke="rgb(0,0,0)" d="M 14900,4139 C 14971,4149 15042,4160 15113,4172"/>
        <path fill="none" stroke="rgb(0,0,0)" d="M 15193,4186 C 15264,4199 15334,4213 15404,4228"/>
        <path fill="none" stroke="rgb(0,0,0)" d="M 15483,4245 C 15553,4262 15623,4279 15692,4297"/>
        <path fill="none" stroke="rgb(0,0,0)" d="M 15771,4318 C 15840,4337 15909,4358 15977,4379"/>
        <path fill="none" stroke="rgb(0,0,0)" d="M 16054,4404 C 16123,4426 16191,4450 16258,4474"/>
        <path fill="none" stroke="rgb(0,0,0)" d="M 16334,4502 C 16401,4527 16468,4554 16534,4581"/>
        <path fill="none" stroke="rgb(0,0,0)" d="M 16609,4613 C 16675,4641 16741,4671 16806,4701"/>
        <path fill="none" stroke="rgb(0,0,0)" d="M 16879,4736 C 16943,4767 17008,4799 17071,4833"/>
        <path fill="none" stroke="rgb(0,0,0)" d="M 17143,4871 C 17198,4901 17253,4931 17308,4963 17315,4967 17323,4972 17331,4976"/>
        <path fill="none" stroke="rgb(0,0,0)" d="M 17401,5017 C 17462,5054 17523,5092 17584,5131"/>
        <path fill="none" stroke="rgb(0,0,0)" d="M 17651,5175 C 17711,5215 17771,5256 17829,5297"/>
        <path fill="none" stroke="rgb(0,0,0)" d="M 17895,5345 C 17953,5387 18010,5430 18067,5474"/>
        <path fill="none" stroke="rgb(0,0,0)" d="M 18130,5524 C 18187,5569 18242,5615 18297,5662"/>
        <path fill="none" stroke="rgb(0,0,0)" d="M 18358,5715 C 18412,5762 18465,5810 18517,5859"/>
        <path fill="none" stroke="rgb(0,0,0)" d="M 18576,5915 C 18628,5965 18679,6015 18729,6067"/>
        <path fill="none" stroke="rgb(0,0,0)" d="M 18786,6125 C 18835,6177 18884,6230 18932,6283"/>
        <path fill="none" stroke="rgb(0,0,0)" d="M 18985,6344 C 19032,6398 19079,6453 19124,6509"/>
        <path fill="none" stroke="rgb(0,0,0)" d="M 19175,6572 C 19220,6628 19263,6685 19306,6743"/>
        <path fill="none" stroke="rgb(0,0,0)" d="M 19354,6808 C 19396,6866 19437,6925 19478,6985"/>
        <path fill="none" stroke="rgb(0,0,0)" d="M 19523,7052 C 19562,7112 19601,7173 19638,7234"/>
        <path fill="none" stroke="rgb(0,0,0)" d="M 19680,7303 C 19695,7329 19710,7354 19725,7380 19746,7417 19767,7454 19787,7490"/>
        <path fill="none" stroke="rgb(0,0,0)" d="M 19826,7561 C 19860,7625 19893,7689 19925,7753"/>
        <path fill="none" stroke="rgb(0,0,0)" d="M 19960,7826 C 19991,7891 20021,7956 20050,8022"/>
        <path fill="none" stroke="rgb(0,0,0)" d="M 20082,8096 C 20111,8162 20138,8229 20164,8296"/>
        <path fill="none" stroke="rgb(0,0,0)" d="M 20192,8371 C 20217,8438 20242,8506 20264,8574"/>
        <path fill="none" stroke="rgb(0,0,0)" d="M 20290,8651 C 20312,8719 20333,8788 20353,8857"/>
        <path fill="none" stroke="rgb(0,0,0)" d="M 20375,8935 C 20394,9004 20412,9074 20428,9144"/>
        <path fill="none" stroke="rgb(0,0,0)" d="M 20447,9223 C 20463,9293 20477,9363 20491,9434"/>
        <path fill="none" stroke="rgb(0,0,0)" d="M 20506,9513 C 20518,9584 20530,9655 20540,9726"/>
        <path fill="none" stroke="rgb(0,0,0)" d="M 20552,9806 C 20561,9877 20569,9949 20577,10020"/>
        <path fill="none" stroke="rgb(0,0,0)" d="M 20584,10101 C 20591,10172 20596,10244 20600,10316"/>
        <path fill="none" stroke="rgb(0,0,0)" d="M 20604,10396 C 20607,10468 20609,10540 20610,10612"/>
       </g>
      </g>
      <g class="com.sun.star.drawing.LineShape">
       <g id="id4">
        <rect class="BoundingBox" stroke="none" fill="none" x="10206" y="3923" width="7622" height="301"/>
        <path fill="none" stroke="rgb(255,7,9)" d="M 10207,4073 L 17547,4073"/>
        <path fill="rgb(255,7,9)" stroke="none" d="M 17527,3923 L 17827,4073 17527,4223 17527,3923 Z"/>
       </g>
      </g>
      <g class="com.sun.star.drawing.LineShape">
       <g id="id5">
        <rect class="BoundingBox" stroke="none" fill="none" x="14015" y="4072" width="4" height="6567"/>
        <path fill="none" stroke="rgb(0,0,0)" d="M 14017,4073 L 14017,4181"/>
        <path fill="none" stroke="rgb(0,0,0)" d="M 14017,4262 L 14017,4369"/>
        <path fill="none" stroke="rgb(0,0,0)" d="M 14017,4450 L 14017,4558"/>
        <path fill="none" stroke="rgb(0,0,0)" d="M 14017,4639 L 14017,4747"/>
        <path fill="none" stroke="rgb(0,0,0)" d="M 14017,4828 L 14017,4935"/>
        <path fill="none" stroke="rgb(0,0,0)" d="M 14017,5016 L 14017,5124"/>
        <path fill="none" stroke="rgb(0,0,0)" d="M 14017,5205 L 14017,5313"/>
        <path fill="none" stroke="rgb(0,0,0)" d="M 14017,5394 L 14017,5501"/>
        <path fill="none" stroke="rgb(0,0,0)" d="M 14017,5582 L 14017,5690"/>
        <path fill="none" stroke="rgb(0,0,0)" d="M 14017,5771 L 14017,5879"/>
        <path fill="none" stroke="rgb(0,0,0)" d="M 14017,5959 L 14017,6067"/>
        <path fill="none" stroke="rgb(0,0,0)" d="M 14017,6148 L 14017,6256"/>
        <path fill="none" stroke="rgb(0,0,0)" d="M 14017,6337 L 14017,6445"/>
        <path fill="none" stroke="rgb(0,0,0)" d="M 14017,6525 L 14017,6633"/>
        <path fill="none" stroke="rgb(0,0,0)" d="M 14017,6714 L 14017,6822"/>
        <path fill="none" stroke="rgb(0,0,0)" d="M 14017,6903 L 14017,7011"/>
        <path fill="none" stroke="rgb(0,0,0)" d="M 14017,7091 L 14017,7199"/>
        <path fill="none" stroke="rgb(0,0,0)" d="M 14017,7280 L 14016,7388"/>
        <path fill="none" stroke="rgb(0,0,0)" d="M 14016,7469 L 14016,7576"/>
        <path fill="none" stroke="rgb(0,0,0)" d="M 14016,7657 L 14016,7765"/>
        <path fill="none" stroke="rgb(0,0,0)" d="M 14016,7846 L 14016,7954"/>
        <path fill="none" stroke="rgb(0,0,0)" d="M 14016,8035 L 14016,8142"/>
        <path fill="none" stroke="rgb(0,0,0)" d="M 14016,8223 L 14016,8331"/>
        <path fill="none" stroke="rgb(0,0,0)" d="M 14016,8412 L 14016,8520"/>
        <path fill="none" stroke="rgb(0,0,0)" d="M 14016,8601 L 14016,8708"/>
        <path fill="none" stroke="rgb(0,0,0)" d="M 14016,8789 L 14016,8897"/>
        <path fill="none" stroke="rgb(0,0,0)" d="M 14016,8978 L 14016,9086"/>
        <path fill="none" stroke="rgb(0,0,0)" d="M 14016,9167 L 14016,9274"/>
        <path fill="none" stroke="rgb(0,0,0)" d="M 14016,9355 L 14016,9463"/>
        <path fill="none" stroke="rgb(0,0,0)" d="M 14016,9544 L 14016,9652"/>
        <path fill="none" stroke="rgb(0,0,0)" d="M 14016,9732 L 14016,9840"/>
        <path fill="none" stroke="rgb(0,0,0)" d="M 14016,9921 L 14016,10029"/>
        <path fill="none" stroke="rgb(0,0,0)" d="M 14016,10110 L 14016,10218"/>
        <path fill="none" stroke="rgb(0,0,0)" d="M 14016,10298 L 14016,10406"/>
        <path fill="none" stroke="rgb(0,0,0)" d="M 14016,10487 L 14016,10595"/>
       </g>
      </g>
      <g class="com.sun.star.drawing.LineShape">
       <g id="id6">
        <rect class="BoundingBox" stroke="none" fill="none" x="14016" y="4390" width="320" height="3"/>
        <path fill="none" stroke="rgb(0,0,0)" d="M 14017,4391 L 14334,4391"/>
       </g>
      </g>
      <g class="com.sun.star.drawing.LineShape">
       <g id="id7">
        <rect class="BoundingBox" stroke="none" fill="none" x="14333" y="4072" width="3" height="321"/>
        <path fill="none" stroke="rgb(0,0,0)" d="M 14334,4073 L 14334,4391"/>
       </g>
      </g>
      <g class="com.sun.star.drawing.LineShape">
       <g id="id8">
        <rect class="BoundingBox" stroke="none" fill="none" x="14076" y="7372" width="5658" height="3267"/>
        <path fill="none" stroke="rgb(0,0,0)" d="M 19732,7373 L 19639,7427"/>
        <path fill="none" stroke="rgb(0,0,0)" d="M 19569,7467 L 19475,7521"/>
        <path fill="none" stroke="rgb(0,0,0)" d="M 19405,7562 L 19312,7615"/>
        <path fill="none" stroke="rgb(0,0,0)" d="M 19242,7656 L 19148,7710"/>
        <path fill="none" stroke="rgb(0,0,0)" d="M 19078,7750 L 18985,7804"/>
        <path fill="none" stroke="rgb(0,0,0)" d="M 18915,7845 L 18822,7898"/>
        <path fill="none" stroke="rgb(0,0,0)" d="M 18752,7939 L 18658,7993"/>
        <path fill="none" stroke="rgb(0,0,0)" d="M 18588,8033 L 18495,8087"/>
        <path fill="none" stroke="rgb(0,0,0)" d="M 18425,8127 L 18332,8181"/>
        <path fill="none" stroke="rgb(0,0,0)" d="M 18262,8222 L 18168,8276"/>
        <path fill="none" stroke="rgb(0,0,0)" d="M 18098,8316 L 18005,8370"/>
        <path fill="none" stroke="rgb(0,0,0)" d="M 17935,8410 L 17841,8464"/>
        <path fill="none" stroke="rgb(0,0,0)" d="M 17771,8505 L 17678,8559"/>
        <path fill="none" stroke="rgb(0,0,0)" d="M 17608,8599 L 17515,8653"/>
        <path fill="none" stroke="rgb(0,0,0)" d="M 17445,8693 L 17351,8747"/>
        <path fill="none" stroke="rgb(0,0,0)" d="M 17281,8788 L 17188,8841"/>
        <path fill="none" stroke="rgb(0,0,0)" d="M 17118,8882 L 17024,8936"/>
        <path fill="none" stroke="rgb(0,0,0)" d="M 16954,8976 L 16861,9030"/>
        <path fill="none" stroke="rgb(0,0,0)" d="M 16791,9070 L 16698,9124"/>
        <path fill="none" stroke="rgb(0,0,0)" d="M 16628,9165 L 16534,9219"/>
        <path fill="none" stroke="rgb(0,0,0)" d="M 16464,9259 L 16371,9313"/>
        <path fill="none" stroke="rgb(0,0,0)" d="M 16301,9353 L 16208,9407"/>
        <path fill="none" stroke="rgb(0,0,0)" d="M 16137,9448 L 16044,9502"/>
        <path fill="none" stroke="rgb(0,0,0)" d="M 15974,9542 L 15881,9596"/>
        <path fill="none" stroke="rgb(0,0,0)" d="M 15811,9636 L 15717,9690"/>
        <path fill="none" stroke="rgb(0,0,0)" d="M 15647,9731 L 15554,9785"/>
        <path fill="none" stroke="rgb(0,0,0)" d="M 15484,9825 L 15391,9879"/>
        <path fill="none" stroke="rgb(0,0,0)" d="M 15321,9919 L 15227,9973"/>
        <path fill="none" stroke="rgb(0,0,0)" d="M 15157,10014 L 15064,10067"/>
        <path fill="none" stroke="rgb(0,0,0)" d="M 14994,10108 L 14900,10162"/>
        <path fill="none" stroke="rgb(0,0,0)" d="M 14830,10202 L 14737,10256"/>
        <path fill="none" stroke="rgb(0,0,0)" d="M 14667,10296 L 14574,10350"/>
        <path fill="none" stroke="rgb(0,0,0)" d="M 14504,10391 L 14410,10445"/>
        <path fill="none" stroke="rgb(0,0,0)" d="M 14340,10485 L 14247,10539"/>
        <path fill="none" stroke="rgb(0,0,0)" d="M 14177,10579 L 14083,10633"/>
       </g>
      </g>
      <g class="com.sun.star.drawing.LineShape">
       <g id="id9">
        <rect class="BoundingBox" stroke="none" fill="none" x="19455" y="7531" width="162" height="278"/>
        <path fill="none" stroke="rgb(0,0,0)" d="M 19456,7532 L 19615,7807"/>
       </g>
      </g>
      <g class="com.sun.star.drawing.LineShape">
       <g id="id10">
        <rect class="BoundingBox" stroke="none" fill="none" x="19614" y="7646" width="278" height="162"/>
        <path fill="none" stroke="rgb(0,0,0)" d="M 19890,7647 L 19615,7806"/>
       </g>
      </g>
      <g class="com.sun.star.drawing.LineShape">
       <g id="id11">
        <rect class="BoundingBox" stroke="none" fill="none" x="17826" y="2485" width="3" height="1590"/>
        <path fill="none" stroke="rgb(0,0,0)" d="M 17827,2486 L 17827,4073"/>
       </g>
      </g>
      <g class="com.sun.star.drawing.LineShape">
       <g id="id12">
        <rect class="BoundingBox" stroke="none" fill="none" x="10207" y="2971" width="7621" height="301"/>
        <path fill="none" stroke="rgb(0,0,0)" d="M 10487,3121 L 17547,3121"/>
        <path fill="rgb(0,0,0)" stroke="none" d="M 10507,3271 L 10207,3121 10507,2971 10507,3271 Z"/>
        <path fill="rgb(0,0,0)" stroke="none" d="M 17527,2971 L 17827,3121 17527,3271 17527,2971 Z"/>
       </g>
      </g>
      <g class="com.sun.star.drawing.LineShape">
       <g id="id13">
        <rect class="BoundingBox" stroke="none" fill="none" x="10206" y="2485" width="3" height="1590"/>
        <path fill="none" stroke="rgb(0,0,0)" d="M 10207,4073 L 10207,2486"/>
       </g>
      </g>
      <g class="Graphic">
       <g id="id14">
        <rect class="BoundingBox" stroke="none" fill="none" x="13700" y="2270" width="636" height="534"/>
        <defs>
         <clipPath id="clip_path_1" clipPathUnits="userSpaceOnUse">
          <path d="M 13700,2270 L 14335,2270 14335,2803 13700,2803 13700,2270 Z"/>
         </clipPath>
        </defs>
        <g clip-path="url(#clip_path_1)">
         <path fill="rgb(0,0,0)" stroke="none" d="M 14072,2656 C 14066,2677 14066,2679 14048,2703 14021,2737 13967,2791 13909,2791 13858,2791 13830,2745 13830,2672 13830,2604 13868,2465 13891,2413 13933,2326 13992,2282 14040,2282 14121,2282 14137,2383 14137,2393 14137,2394 14134,2411 14132,2413 L 14072,2656 14072,2656 Z M 14151,2339 C 14137,2307 14104,2257 14040,2257 13900,2257 13749,2438 13749,2621 13749,2744 13821,2815 13905,2815 13973,2815 14031,2762 14066,2721 14078,2794 14136,2815 14173,2815 14210,2815 14240,2793 14262,2749 14282,2706 14299,2631 14299,2626 14299,2620 14294,2615 14287,2615 14276,2615 14274,2621 14270,2640 14251,2713 14228,2791 14177,2791 14141,2791 14139,2758 14139,2734 14139,2705 14142,2692 14153,2643 14162,2612 14168,2585 14178,2549 14224,2364 14235,2319 14235,2312 14235,2294 14221,2281 14203,2281 14163,2281 14153,2324 14151,2339 L 14151,2339 Z"/>
        </g>
       </g>
      </g>
      <g class="Graphic">
       <g id="id15">
        <rect class="BoundingBox" stroke="none" fill="none" x="18780" y="4391" width="585" height="839"/>
        <defs>
         <clipPath id="clip_path_2" clipPathUnits="userSpaceOnUse">
          <path d="M 18780,4391 L 19364,4391 19364,5229 18780,5229 18780,4391 Z"/>
         </clipPath>
        </defs>
        <g clip-path="url(#clip_path_2)">
         <path fill="rgb(0,0,0)" stroke="none" d="M 19315,4622 C 19315,4499 19276,4379 19177,4379 19008,4379 18828,4733 18828,4999 18828,5054 18840,5241 18967,5241 19131,5241 19315,4896 19315,4622 L 19315,4622 Z M 18949,4792 C 18967,4721 18993,4620 19041,4534 19081,4462 19123,4404 19176,4404 19216,4404 19243,4437 19243,4553 19243,4597 19239,4657 19204,4792 L 18949,4792 18949,4792 Z M 19196,4828 C 19165,4947 19140,5023 19096,5099 19061,5160 19019,5217 18968,5217 18931,5217 18901,5188 18901,5069 18901,4990 18920,4908 18939,4828 L 19196,4828 19196,4828 Z"/>
        </g>
       </g>
      </g>
      <g class="Graphic">
       <g id="id16">
        <rect class="BoundingBox" stroke="none" fill="none" x="14652" y="8709" width="636" height="763"/>
        <defs>
         <clipPath id="clip_path_3" clipPathUnits="userSpaceOnUse">
          <path d="M 14652,8709 L 15287,8709 15287,9471 14652,9471 14652,8709 Z"/>
         </clipPath>
        </defs>
        <g clip-path="url(#clip_path_3)">
         <path fill="rgb(0,0,0)" stroke="none" d="M 15233,8896 C 15239,8872 15243,8857 15243,8824 15243,8751 15200,8696 15107,8696 14998,8696 14941,8773 14919,8804 14915,8734 14865,8696 14811,8696 14776,8696 14747,8713 14724,8760 14702,8804 14685,8878 14685,8883 14685,8888 14690,8894 14698,8894 14708,8894 14710,8893 14717,8865 14735,8793 14758,8721 14807,8721 14836,8721 14845,8740 14845,8777 14845,8804 14833,8851 14825,8889 L 14790,9021 C 14785,9044 14772,9099 14766,9121 14757,9152 14744,9210 14744,9216 14744,9233 14757,9246 14776,9246 14790,9246 14807,9239 14817,9221 14820,9214 14831,9172 14837,9147 L 14864,9038 14904,8877 C 14907,8869 14937,8808 14982,8769 15014,8740 15056,8721 15103,8721 15152,8721 15170,8757 15170,8806 15170,8841 15165,8861 15159,8884 L 15017,9445 C 15015,9451 15013,9458 15013,9466 15013,9484 15028,9496 15046,9496 15057,9496 15083,9491 15092,9455 L 15233,8896 15233,8896 Z"/>
        </g>
       </g>
      </g>
      <g class="Graphic">
       <g id="id17">
        <rect class="BoundingBox" stroke="none" fill="none" x="13116" y="7248" width="585" height="534"/>
        <defs>
         <clipPath id="clip_path_4" clipPathUnits="userSpaceOnUse">
          <path d="M 13116,7248 L 13700,7248 13700,7781 13116,7781 13116,7248 Z"/>
         </clipPath>
        </defs>
        <g clip-path="url(#clip_path_4)">
         <path fill="rgb(0,0,0)" stroke="none" d="M 13601,7275 C 13562,7282 13542,7309 13542,7337 13542,7366 13566,7376 13583,7376 13618,7376 13647,7346 13647,7309 13647,7270 13608,7235 13546,7235 13496,7235 13439,7257 13387,7333 13378,7267 13328,7235 13278,7235 13229,7235 13205,7272 13190,7299 13168,7344 13150,7418 13150,7424 13150,7429 13155,7436 13163,7436 13173,7436 13175,7434 13182,7406 13201,7332 13224,7260 13274,7260 13304,7260 13313,7281 13313,7317 13313,7344 13301,7392 13292,7431 L 13257,7564 C 13252,7588 13238,7644 13232,7666 13223,7698 13209,7756 13209,7762 13209,7780 13223,7793 13242,7793 13256,7793 13279,7785 13287,7760 13291,7750 13337,7563 13344,7535 13350,7507 13358,7481 13364,7454 13369,7437 13374,7417 13378,7401 13382,7390 13415,7329 13446,7302 13461,7288 13494,7260 13545,7260 13565,7260 13585,7264 13601,7275 L 13601,7275 Z"/>
        </g>
       </g>
      </g>
      <g class="com.sun.star.drawing.LineShape">
       <g id="id18">
        <rect class="BoundingBox" stroke="none" fill="none" x="17826" y="4072" width="3812" height="6601"/>
        <path fill="none" stroke="rgb(0,0,255)" d="M 17827,4073 L 21497,10430"/>
        <path fill="rgb(0,0,255)" stroke="none" d="M 21617,10337 L 21637,10672 21357,10487 21617,10337 Z"/>
       </g>
      </g>
      <g class="com.sun.star.drawing.LineShape">
       <g id="id19">
        <rect class="BoundingBox" stroke="none" fill="none" x="6396" y="4073" width="3812" height="6601"/>
        <path fill="none" stroke="rgb(0,255,0)" d="M 6397,10672 L 10067,4315"/>
        <path fill="rgb(0,255,0)" stroke="none" d="M 9927,4258 L 10207,4073 10187,4408 9927,4258 Z"/>
       </g>
      </g>
      <g class="com.sun.star.drawing.LineShape">
       <g id="id20">
        <rect class="BoundingBox" stroke="none" fill="none" x="17826" y="3923" width="2542" height="301"/>
        <path fill="none" stroke="rgb(0,0,0)" d="M 17827,4073 L 18016,4073"/>
        <path fill="none" stroke="rgb(0,0,0)" d="M 18123,4073 L 18312,4073"/>
        <path fill="none" stroke="rgb(0,0,0)" d="M 18420,4073 L 18609,4073"/>
        <path fill="none" stroke="rgb(0,0,0)" d="M 18716,4073 L 18905,4073"/>
        <path fill="none" stroke="rgb(0,0,0)" d="M 19013,4073 L 19202,4073"/>
        <path fill="none" stroke="rgb(0,0,0)" d="M 19309,4073 L 19498,4073"/>
        <path fill="none" stroke="rgb(0,0,0)" d="M 19606,4073 L 19795,4073"/>
        <path fill="none" stroke="rgb(0,0,0)" d="M 19902,4073 L 20087,4073"/>
        <path fill="rgb(0,0,0)" stroke="none" d="M 20067,3923 L 20367,4073 20067,4223 20067,3923 Z"/>
       </g>
      </g>
      <g class="com.sun.star.drawing.EllipseShape">
       <g id="id21">
        <rect class="BoundingBox" stroke="none" fill="none" x="18147" y="4065" width="317" height="558"/>
        <path fill="none" stroke="rgb(0,0,0)" d="M 18462,4066 C 18462,4068 18462,4071 18462,4073 18462,4184 18433,4294 18377,4391 18322,4486 18243,4565 18148,4621"/>
       </g>
      </g>
      <g class="com.sun.star.drawing.EllipseShape">
       <g id="id22">
        <rect class="BoundingBox" stroke="none" fill="none" x="13996" y="9787" width="808" height="415"/>
        <path fill="none" stroke="rgb(0,0,0)" d="M 13997,9788 C 14004,9788 14011,9788 14018,9788 14185,9788 14349,9832 14494,9916 14616,9986 14722,10084 14802,10200"/>
       </g>
      </g>
     </g>
    </g>
   </g>
  </g>
 </g>
</svg>