<?xml version="1.0" encoding="UTF-8"?>
<!DOCTYPE svg PUBLIC "-//W3C//DTD SVG 1.1//EN" "http://www.w3.org/Graphics/SVG/1.1/DTD/svg11.dtd">
<svg version="1.2" width="279.4mm" height="215.9mm" viewBox="0 0 27940 21590" preserveAspectRatio="xMidYMid" fill-rule="evenodd" stroke-width="28.222" stroke-linejoin="round" xmlns="http://www.w3.org/2000/svg" xmlns:ooo="http://xml.openoffice.org/svg/export" xmlns:xlink="http://www.w3.org/1999/xlink" xmlns:presentation="http://sun.com/xmlns/staroffice/presentation" xmlns:smil="http://www.w3.org/2001/SMIL20/" xmlns:anim="urn:oasis:names:tc:opendocument:xmlns:animation:1.0" xml:space="preserve">
 <defs class="ClipPathGroup">
  <clipPath id="presentation_clip_path" clipPathUnits="userSpaceOnUse">
   <rect x="0" y="0" width="27940" height="21590"/>
  </clipPath>
  <clipPath id="presentation_clip_path_shrink" clipPathUnits="userSpaceOnUse">
   <rect x="27" y="21" width="27885" height="21547"/>
  </clipPath>
 </defs>
 <defs class="TextShapeIndex">
  <g ooo:slide="id1" ooo:id-list="id3 id4 id5 id6 id7 id8 id9 id10 id11 id12 id13 id14 id15 id16 id17"/>
 </defs>
 <defs class="EmbeddedBulletChars">
  <g id="bullet-char-template-57356" transform="scale(0.00048828125,-0.00048828125)">
   <path d="M 580,1141 L 1163,571 580,0 -4,571 580,1141 Z"/>
  </g>
  <g id="bullet-char-template-57354" transform="scale(0.00048828125,-0.00048828125)">
   <path d="M 8,1128 L 1137,1128 1137,0 8,0 8,1128 Z"/>
  </g>
  <g id="bullet-char-template-10146" transform="scale(0.00048828125,-0.00048828125)">
   <path d="M 174,0 L 602,739 174,1481 1456,739 174,0 Z M 1358,739 L 309,1346 659,739 1358,739 Z"/>
  </g>
  <g id="bullet-char-template-10132" transform="scale(0.00048828125,-0.00048828125)">
   <path d="M 2015,739 L 1276,0 717,0 1260,543 174,543 174,936 1260,936 717,1481 1274,1481 2015,739 Z"/>
  </g>
  <g id="bullet-char-template-10007" transform="scale(0.00048828125,-0.00048828125)">
   <path d="M 0,-2 C -7,14 -16,27 -25,37 L 356,567 C 262,823 215,952 215,954 215,979 228,992 255,992 264,992 276,990 289,987 310,991 331,999 354,1012 L 381,999 492,748 772,1049 836,1024 860,1049 C 881,1039 901,1025 922,1006 886,937 835,863 770,784 769,783 710,716 594,584 L 774,223 C 774,196 753,168 711,139 L 727,119 C 717,90 699,76 672,76 641,76 570,178 457,381 L 164,-76 C 142,-110 111,-127 72,-127 30,-127 9,-110 8,-76 1,-67 -2,-52 -2,-32 -2,-23 -1,-13 0,-2 Z"/>
  </g>
  <g id="bullet-char-template-10004" transform="scale(0.00048828125,-0.00048828125)">
   <path d="M 285,-33 C 182,-33 111,30 74,156 52,228 41,333 41,471 41,549 55,616 82,672 116,743 169,778 240,778 293,778 328,747 346,684 L 369,508 C 377,444 397,411 428,410 L 1163,1116 C 1174,1127 1196,1133 1229,1133 1271,1133 1292,1118 1292,1087 L 1292,965 C 1292,929 1282,901 1262,881 L 442,47 C 390,-6 338,-33 285,-33 Z"/>
  </g>
  <g id="bullet-char-template-9679" transform="scale(0.00048828125,-0.00048828125)">
   <path d="M 813,0 C 632,0 489,54 383,161 276,268 223,411 223,592 223,773 276,916 383,1023 489,1130 632,1184 813,1184 992,1184 1136,1130 1245,1023 1353,916 1407,772 1407,592 1407,412 1353,268 1245,161 1136,54 992,0 813,0 Z"/>
  </g>
  <g id="bullet-char-template-8226" transform="scale(0.00048828125,-0.00048828125)">
   <path d="M 346,457 C 273,457 209,483 155,535 101,586 74,649 74,723 74,796 101,859 155,911 209,963 273,989 346,989 419,989 480,963 531,910 582,859 608,796 608,723 608,648 583,586 532,535 482,483 420,457 346,457 Z"/>
  </g>
  <g id="bullet-char-template-8211" transform="scale(0.00048828125,-0.00048828125)">
   <path d="M -4,459 L 1135,459 1135,606 -4,606 -4,459 Z"/>
  </g>
  <g id="bullet-char-template-61548" transform="scale(0.00048828125,-0.00048828125)">
   <path d="M 173,740 C 173,903 231,1043 346,1159 462,1274 601,1332 765,1332 928,1332 1067,1274 1183,1159 1299,1043 1357,903 1357,740 1357,577 1299,437 1183,322 1067,206 928,148 765,148 601,148 462,206 346,322 231,437 173,577 173,740 Z"/>
  </g>
 </defs>
 <g>
  <g id="id2" class="Master_Slide">
   <g id="bg-id2" class="Background"/>
   <g id="bo-id2" class="BackgroundObjects"/>
  </g>
 </g>
 <g class="SlideGroup">
  <g>
   <g id="container-id1">
    <g id="id1" class="Slide" clip-path="url(#presentation_clip_path)">
     <g class="Page">
      <g class="com.sun.star.drawing.CustomShape">
       <g id="id3">
        <rect class="BoundingBox" stroke="none" fill="none" x="12693" y="9201" width="2014" height="3283"/>
        <path fill="none" stroke="rgb(128,128,128)" stroke-width="106" stroke-linejoin="round" d="M 12746,10048 L 14175,10048 14175,9254 14652,10842 14175,12430 14175,11636 12746,11636 12746,10048 Z"/>
       </g>
      </g>
      <g class="com.sun.star.drawing.PolyLineShape">
       <g id="id4">
        <rect class="BoundingBox" stroke="none" fill="none" x="947" y="7410" width="6159" height="5487"/>
        <path fill="none" stroke="rgb(255,7,9)" stroke-width="106" stroke-linejoin="round" d="M 3690,10153 L 4362,10153 4362,11498 2345,11498 2345,8809 5706,8809 5706,12843 1000,12843 1000,7464 7051,7464"/>
       </g>
      </g>
      <g class="com.sun.star.drawing.PolyLineShape">
       <g id="id5">
        <rect class="BoundingBox" stroke="none" fill="none" x="4308" y="4721" width="5487" height="6159"/>
        <path fill="none" stroke="rgb(0,0,255)" stroke-width="106" stroke-linejoin="round" d="M 7051,7464 L 7051,8136 5707,8136 5707,6119 8396,6119 8396,9480 4362,9480 4362,4774 9741,4774 9741,10825"/>
       </g>
      </g>
      <g class="com.sun.star.drawing.PolyLineShape">
       <g id="id6">
        <rect class="BoundingBox" stroke="none" fill="none" x="6378" y="8135" width="6054" height="5382"/>
        <path fill="none" stroke="rgb(0,255,0)" d="M 9740,10825 L 9069,10825 9069,9481 11085,9481 11085,12170 7724,12170 7724,8136 12430,8136 12430,13515 6379,13515"/>
       </g>
      </g>
      <g class="com.sun.star.drawing.PolyLineShape">
       <g id="id7">
        <rect class="BoundingBox" stroke="none" fill="none" x="3688" y="10152" width="5382" height="6054"/>
        <path fill="none" stroke="rgb(0,255,0)" d="M 6379,13514 L 6379,12843 7723,12843 7723,14859 5034,14859 5034,11498 9068,11498 9068,16204 3689,16204 3689,10153"/>
       </g>
      </g>
      <g class="com.sun.star.drawing.CustomShape">
       <g id="id8">
        <rect class="BoundingBox" stroke="none" fill="none" x="6713" y="7127" width="340" height="674"/>
        <path fill="rgb(255,7,9)" stroke="none" d="M 7052,7463 L 6713,7800 6713,7127 7052,7463 Z"/>
       </g>
      </g>
      <g class="com.sun.star.drawing.CustomShape">
       <g id="id9">
        <rect class="BoundingBox" stroke="none" fill="none" x="9403" y="10487" width="675" height="340"/>
        <path fill="rgb(0,0,255)" stroke="none" d="M 9740,10826 L 9403,10487 10077,10487 9740,10826 Z"/>
       </g>
      </g>
      <g class="com.sun.star.drawing.PolyLineShape">
       <g id="id10">
        <rect class="BoundingBox" stroke="none" fill="none" x="15248" y="7474" width="6054" height="5381"/>
        <path fill="none" stroke="rgb(0,255,0)" d="M 17939,10164 L 18611,10164 18611,11509 16594,11509 16594,8820 19955,8820 19955,12854 15249,12854 15249,7475 21300,7475"/>
       </g>
      </g>
      <g class="com.sun.star.drawing.PolyLineShape">
       <g id="id11">
        <rect class="BoundingBox" stroke="none" fill="none" x="18610" y="4784" width="5382" height="6054"/>
        <path fill="none" stroke="rgb(0,255,0)" d="M 21300,7475 L 21300,8147 19956,8147 19956,6130 22645,6130 22645,9491 18611,9491 18611,4785 23990,4785 23990,10836"/>
       </g>
      </g>
      <g class="com.sun.star.drawing.PolyLineShape">
       <g id="id12">
        <rect class="BoundingBox" stroke="none" fill="none" x="20627" y="8146" width="6054" height="5382"/>
        <path fill="none" stroke="rgb(0,255,0)" d="M 23989,10836 L 23318,10836 23318,9492 25334,9492 25334,12181 21973,12181 21973,8147 26679,8147 26679,13526 20628,13526"/>
       </g>
      </g>
      <g class="com.sun.star.drawing.PolyLineShape">
       <g id="id13">
        <rect class="BoundingBox" stroke="none" fill="none" x="17937" y="10163" width="5382" height="6054"/>
        <path fill="none" stroke="rgb(0,255,0)" d="M 20628,13525 L 20628,12854 21972,12854 21972,14870 19283,14870 19283,11509 23317,11509 23317,16215 17938,16215 17938,10164"/>
       </g>
      </g>
      <g class="com.sun.star.drawing.CustomShape">
       <g id="id14">
        <rect class="BoundingBox" stroke="none" fill="none" x="20847" y="7421" width="477" height="517"/>
        <path fill="rgb(255,7,9)" stroke="none" d="M 21322,7461 L 21280,7937 20848,7421 21322,7461 Z"/>
       </g>
      </g>
      <g class="com.sun.star.drawing.LineShape">
       <g id="id15">
        <rect class="BoundingBox" stroke="none" fill="none" x="17898" y="7445" width="3425" height="2759"/>
        <path fill="none" stroke="rgb(255,7,9)" stroke-width="106" stroke-linejoin="round" d="M 17952,10150 L 21268,7499"/>
       </g>
      </g>
      <g class="com.sun.star.drawing.LineShape">
       <g id="id16">
        <rect class="BoundingBox" stroke="none" fill="none" x="21264" y="7424" width="2759" height="3425"/>
        <path fill="none" stroke="rgb(0,0,255)" stroke-width="106" stroke-linejoin="round" d="M 21318,7478 L 23969,10794"/>
       </g>
      </g>
      <g class="com.sun.star.drawing.CustomShape">
       <g id="id17">
        <rect class="BoundingBox" stroke="none" fill="none" x="23524" y="10360" width="517" height="476"/>
        <path fill="rgb(0,0,255)" stroke="none" d="M 23999,10835 L 23524,10793 24040,10361 23999,10835 Z"/>
       </g>
      </g>
     </g>
    </g>
   </g>
  </g>
 </g>
</svg>