<?xml version="1.0" encoding="UTF-8"?>
<!DOCTYPE svg PUBLIC "-//W3C//DTD SVG 1.1//EN" "http://www.w3.org/Graphics/SVG/1.1/DTD/svg11.dtd">
<svg version="1.2" width="279.4mm" height="215.9mm" viewBox="0 0 27940 21590" preserveAspectRatio="xMidYMid" fill-rule="evenodd" stroke-width="28.222" stroke-linejoin="round" xmlns="http://www.w3.org/2000/svg" xmlns:ooo="http://xml.openoffice.org/svg/export" xmlns:xlink="http://www.w3.org/1999/xlink" xmlns:presentation="http://sun.com/xmlns/staroffice/presentation" xmlns:smil="http://www.w3.org/2001/SMIL20/" xmlns:anim="urn:oasis:names:tc:opendocument:xmlns:animation:1.0" xml:space="preserve">
 <defs class="ClipPathGroup">
  <clipPath id="presentation_clip_path" clipPathUnits="userSpaceOnUse">
   <rect x="0" y="0" width="27940" height="21590"/>
  </clipPath>
  <clipPath id="presentation_clip_path_shrink" clipPathUnits="userSpaceOnUse">
   <rect x="27" y="21" width="27885" height="21547"/>
  </clipPath>
 </defs>
 <defs class="TextShapeIndex">
  <g ooo:slide="id1" ooo:id-list="id3 id4 id5 id6 id7 id8 id9 id10 id11 id12 id13 id14 id15 id16 id17 id18 id19 id20 id21 id22 id23 id24 id25 id26 id27 id28 id29 id30 id31 id32 id33 id34 id35"/>
 </defs>
 <defs class="EmbeddedBulletChars">
  <g id="bullet-char-template-57356" transform="scale(0.00048828125,-0.00048828125)">
   <path d="M 580,1141 L 1163,571 580,0 -4,571 580,1141 Z"/>
  </g>
  <g id="bullet-char-template-57354" transform="scale(0.00048828125,-0.00048828125)">
   <path d="M 8,1128 L 1137,1128 1137,0 8,0 8,1128 Z"/>
  </g>
  <g id="bullet-char-template-10146" transform="scale(0.00048828125,-0.00048828125)">
   <path d="M 174,0 L 602,739 174,1481 1456,739 174,0 Z M 1358,739 L 309,1346 659,739 1358,739 Z"/>
  </g>
  <g id="bullet-char-template-10132" transform="scale(0.00048828125,-0.00048828125)">
   <path d="M 2015,739 L 1276,0 717,0 1260,543 174,543 174,936 1260,936 717,1481 1274,1481 2015,739 Z"/>
  </g>
  <g id="bullet-char-template-10007" transform="scale(0.00048828125,-0.00048828125)">
   <path d="M 0,-2 C -7,14 -16,27 -25,37 L 356,567 C 262,823 215,952 215,954 215,979 228,992 255,992 264,992 276,990 289,987 310,991 331,999 354,1012 L 381,999 492,748 772,1049 836,1024 860,1049 C 881,1039 901,1025 922,1006 886,937 835,863 770,784 769,783 710,716 594,584 L 774,223 C 774,196 753,168 711,139 L 727,119 C 717,90 699,76 672,76 641,76 570,178 457,381 L 164,-76 C 142,-110 111,-127 72,-127 30,-127 9,-110 8,-76 1,-67 -2,-52 -2,-32 -2,-23 -1,-13 0,-2 Z"/>
  </g>
  <g id="bullet-char-template-10004" transform="scale(0.00048828125,-0.00048828125)">
   <path d="M 285,-33 C 182,-33 111,30 74,156 52,228 41,333 41,471 41,549 55,616 82,672 116,743 169,778 240,778 293,778 328,747 346,684 L 369,508 C 377,444 397,411 428,410 L 1163,1116 C 1174,1127 1196,1133 1229,1133 1271,1133 1292,1118 1292,1087 L 1292,965 C 1292,929 1282,901 1262,881 L 442,47 C 390,-6 338,-33 285,-33 Z"/>
  </g>
  <g id="bullet-char-template-9679" transform="scale(0.00048828125,-0.00048828125)">
   <path d="M 813,0 C 632,0 489,54 383,161 276,268 223,411 223,592 223,773 276,916 383,1023 489,1130 632,1184 813,1184 992,1184 1136,1130 1245,1023 1353,916 1407,772 1407,592 1407,412 1353,268 1245,161 1136,54 992,0 813,0 Z"/>
  </g>
  <g id="bullet-char-template-8226" transform="scale(0.00048828125,-0.00048828125)">
   <path d="M 346,457 C 273,457 209,483 155,535 101,586 74,649 74,723 74,796 101,859 155,911 209,963 273,989 346,989 419,989 480,963 531,910 582,859 608,796 608,723 608,648 583,586 532,535 482,483 420,457 346,457 Z"/>
  </g>
  <g id="bullet-char-template-8211" transform="scale(0.00048828125,-0.00048828125)">
   <path d="M -4,459 L 1135,459 1135,606 -4,606 -4,459 Z"/>
  </g>
  <g id="bullet-char-template-61548" transform="scale(0.00048828125,-0.00048828125)">
   <path d="M 173,740 C 173,903 231,1043 346,1159 462,1274 601,1332 765,1332 928,1332 1067,1274 1183,1159 1299,1043 1357,903 1357,740 1357,577 1299,437 1183,322 1067,206 928,148 765,148 601,148 462,206 346,322 231,437 173,577 173,740 Z"/>
  </g>
 </defs>
 <g>
  <g id="id2" class="Master_Slide">
   <g id="bg-id2" class="Background"/>
   <g id="bo-id2" class="BackgroundObjects"/>
  </g>
 </g>
 <g class="SlideGroup">
  <g>
   <g id="container-id1">
    <g id="id1" class="Slide" clip-path="url(#presentation_clip_path)">
     <g class="Page">
      <g class="com.sun.star.drawing.LineShape">
       <g id="id3">
        <rect class="BoundingBox" stroke="none" fill="none" x="7349" y="7349" width="2542" height="2542"/>
        <g style="opacity: 0.898039215686275">
         <path fill="none" stroke="rgb(255,7,9)" d="M 7350,7350 L 9691,9691"/>
         <path fill="rgb(255,7,9)" stroke="none" d="M 9784,9571 L 9890,9890 9571,9784 9784,9571 Z"/>
        </g>
       </g>
      </g>
      <g class="com.sun.star.drawing.LineShape">
       <g id="id4">
        <rect class="BoundingBox" stroke="none" fill="none" x="7350" y="7350" width="2542" height="1272"/>
        <path fill="none" stroke="rgb(0,0,255)" d="M 9890,8620 L 7600,7475"/>
        <path fill="rgb(0,0,255)" stroke="none" d="M 7551,7618 L 7350,7350 7685,7350 7551,7618 Z"/>
       </g>
      </g>
      <g class="com.sun.star.drawing.LineShape">
       <g id="id5">
        <rect class="BoundingBox" stroke="none" fill="none" x="9739" y="8620" width="303" height="1272"/>
        <g style="opacity: 0.898039215686275">
         <path fill="none" stroke="rgb(0,0,255)" d="M 9890,9890 L 9890,8901"/>
         <path fill="rgb(0,0,255)" stroke="none" d="M 9740,8921 L 9890,8620 10041,8921 9740,8921 Z"/>
        </g>
       </g>
      </g>
      <g class="com.sun.star.drawing.LineShape">
       <g id="id6">
        <rect class="BoundingBox" stroke="none" fill="none" x="9889" y="8619" width="2542" height="2542"/>
        <g style="opacity: 0.898039215686275">
         <path fill="none" stroke="rgb(255,7,9)" d="M 9890,8620 L 12231,10961"/>
         <path fill="rgb(255,7,9)" stroke="none" d="M 12324,10841 L 12430,11160 12111,11054 12324,10841 Z"/>
        </g>
       </g>
      </g>
      <g class="com.sun.star.drawing.LineShape">
       <g id="id7">
        <rect class="BoundingBox" stroke="none" fill="none" x="9890" y="9890" width="2542" height="1272"/>
        <path fill="none" stroke="rgb(0,0,255)" d="M 12430,11160 L 10140,10015"/>
        <path fill="rgb(0,0,255)" stroke="none" d="M 10091,10158 L 9890,9890 10225,9890 10091,10158 Z"/>
       </g>
      </g>
      <g class="com.sun.star.drawing.LineShape">
       <g id="id8">
        <rect class="BoundingBox" stroke="none" fill="none" x="12279" y="9890" width="303" height="1272"/>
        <g style="opacity: 0.898039215686275">
         <path fill="none" stroke="rgb(0,0,255)" d="M 12430,11160 L 12430,10171"/>
         <path fill="rgb(0,0,255)" stroke="none" d="M 12280,10191 L 12430,9890 12581,10191 12280,10191 Z"/>
        </g>
       </g>
      </g>
      <g class="com.sun.star.drawing.LineShape">
       <g id="id9">
        <rect class="BoundingBox" stroke="none" fill="none" x="12324" y="9784" width="2647" height="2647"/>
        <g style="opacity: 0.898039215686275">
         <path fill="none" stroke="rgb(255,7,9)" stroke-width="212" stroke-linejoin="round" d="M 12430,9890 L 14561,12021"/>
         <path fill="rgb(255,7,9)" stroke="none" d="M 14751,11773 L 14970,12430 14313,12211 14751,11773 Z"/>
        </g>
       </g>
      </g>
      <g class="com.sun.star.drawing.LineShape">
       <g id="id10">
        <rect class="BoundingBox" stroke="none" fill="none" x="9890" y="8620" width="2542" height="1272"/>
        <path fill="none" stroke="rgb(0,0,255)" d="M 12430,9890 L 10140,8745"/>
        <path fill="rgb(0,0,255)" stroke="none" d="M 10091,8888 L 9890,8620 10225,8620 10091,8888 Z"/>
       </g>
      </g>
      <g class="com.sun.star.drawing.LineShape">
       <g id="id11">
        <rect class="BoundingBox" stroke="none" fill="none" x="12430" y="11160" width="2542" height="1272"/>
        <path fill="none" stroke="rgb(0,0,255)" d="M 14970,12430 L 12680,11285"/>
        <path fill="rgb(0,0,255)" stroke="none" d="M 12631,11428 L 12430,11160 12765,11160 12631,11428 Z"/>
       </g>
      </g>
      <g class="com.sun.star.drawing.LineShape">
       <g id="id12">
        <rect class="BoundingBox" stroke="none" fill="none" x="14819" y="11160" width="303" height="1272"/>
        <g style="opacity: 0.898039215686275">
         <path fill="none" stroke="rgb(0,0,255)" d="M 14970,12430 L 14970,11441"/>
         <path fill="rgb(0,0,255)" stroke="none" d="M 14820,11461 L 14970,11160 15121,11461 14820,11461 Z"/>
        </g>
       </g>
      </g>
      <g class="com.sun.star.drawing.LineShape">
       <g id="id13">
        <rect class="BoundingBox" stroke="none" fill="none" x="14969" y="11159" width="2542" height="2542"/>
        <g style="opacity: 0.898039215686275">
         <path fill="none" stroke="rgb(255,7,9)" d="M 14970,11160 L 17311,13501"/>
         <path fill="rgb(255,7,9)" stroke="none" d="M 17404,13381 L 17510,13700 17191,13594 17404,13381 Z"/>
        </g>
       </g>
      </g>
      <g class="com.sun.star.drawing.LineShape">
       <g id="id14">
        <rect class="BoundingBox" stroke="none" fill="none" x="12430" y="9890" width="2542" height="1272"/>
        <path fill="none" stroke="rgb(0,0,255)" d="M 14970,11160 L 12680,10015"/>
        <path fill="rgb(0,0,255)" stroke="none" d="M 12631,10158 L 12430,9890 12765,9890 12631,10158 Z"/>
       </g>
      </g>
      <g class="com.sun.star.drawing.LineShape">
       <g id="id15">
        <rect class="BoundingBox" stroke="none" fill="none" x="14970" y="12430" width="2542" height="1272"/>
        <path fill="none" stroke="rgb(0,0,255)" d="M 17510,13700 L 15220,12555"/>
        <path fill="rgb(0,0,255)" stroke="none" d="M 15171,12698 L 14970,12430 15305,12430 15171,12698 Z"/>
       </g>
      </g>
      <g class="com.sun.star.drawing.LineShape">
       <g id="id16">
        <rect class="BoundingBox" stroke="none" fill="none" x="7350" y="7350" width="637" height="1272"/>
        <path fill="none" stroke="rgb(0,0,255)" d="M 7985,8620 L 7475,7600"/>
        <path fill="rgb(0,0,255)" stroke="none" d="M 7350,7685 L 7350,7350 7618,7551 7350,7685 Z"/>
       </g>
      </g>
      <g class="com.sun.star.drawing.LineShape">
       <g id="id17">
        <rect class="BoundingBox" stroke="none" fill="none" x="7985" y="8620" width="637" height="1272"/>
        <path fill="none" stroke="rgb(0,0,255)" d="M 8620,9890 L 8110,8870"/>
        <path fill="rgb(0,0,255)" stroke="none" d="M 7985,8955 L 7985,8620 8253,8821 7985,8955 Z"/>
       </g>
      </g>
      <g class="com.sun.star.drawing.LineShape">
       <g id="id18">
        <rect class="BoundingBox" stroke="none" fill="none" x="8619" y="9890" width="638" height="1272"/>
        <path fill="none" stroke="rgb(0,0,255)" d="M 9255,11160 L 8745,10140"/>
        <path fill="rgb(0,0,255)" stroke="none" d="M 8620,10225 L 8620,9890 8888,10091 8620,10225 Z"/>
       </g>
      </g>
      <g class="com.sun.star.drawing.LineShape">
       <g id="id19">
        <rect class="BoundingBox" stroke="none" fill="none" x="9254" y="11160" width="638" height="1272"/>
        <path fill="none" stroke="rgb(0,0,255)" d="M 9890,12430 L 9380,11410"/>
        <path fill="rgb(0,0,255)" stroke="none" d="M 9255,11495 L 9255,11160 9523,11361 9255,11495 Z"/>
       </g>
      </g>
      <g class="com.sun.star.drawing.LineShape">
       <g id="id20">
        <rect class="BoundingBox" stroke="none" fill="none" x="9889" y="12430" width="638" height="1272"/>
        <path fill="none" stroke="rgb(0,0,255)" d="M 10525,13700 L 10015,12680"/>
        <path fill="rgb(0,0,255)" stroke="none" d="M 9890,12765 L 9890,12430 10158,12631 9890,12765 Z"/>
       </g>
      </g>
      <g class="com.sun.star.drawing.LineShape">
       <g id="id21">
        <rect class="BoundingBox" stroke="none" fill="none" x="10524" y="13700" width="638" height="1272"/>
        <path fill="none" stroke="rgb(0,0,255)" d="M 11160,14970 L 10650,13950"/>
        <path fill="rgb(0,0,255)" stroke="none" d="M 10525,14035 L 10525,13700 10793,13901 10525,14035 Z"/>
       </g>
      </g>
      <g class="com.sun.star.drawing.LineShape">
       <g id="id22">
        <rect class="BoundingBox" stroke="none" fill="none" x="16239" y="7350" width="638" height="1272"/>
        <path fill="none" stroke="rgb(0,0,255)" d="M 16875,8620 L 16365,7600"/>
        <path fill="rgb(0,0,255)" stroke="none" d="M 16240,7685 L 16240,7350 16508,7551 16240,7685 Z"/>
       </g>
      </g>
      <g class="com.sun.star.drawing.LineShape">
       <g id="id23">
        <rect class="BoundingBox" stroke="none" fill="none" x="16875" y="8620" width="637" height="1272"/>
        <path fill="none" stroke="rgb(0,0,255)" d="M 17510,9890 L 17000,8870"/>
        <path fill="rgb(0,0,255)" stroke="none" d="M 16875,8955 L 16875,8620 17143,8821 16875,8955 Z"/>
       </g>
      </g>
      <g class="com.sun.star.drawing.LineShape">
       <g id="id24">
        <rect class="BoundingBox" stroke="none" fill="none" x="17510" y="9890" width="637" height="1272"/>
        <path fill="none" stroke="rgb(0,0,255)" d="M 18145,11160 L 17635,10140"/>
        <path fill="rgb(0,0,255)" stroke="none" d="M 17510,10225 L 17510,9890 17778,10091 17510,10225 Z"/>
       </g>
      </g>
      <g class="com.sun.star.drawing.LineShape">
       <g id="id25">
        <rect class="BoundingBox" stroke="none" fill="none" x="18145" y="11160" width="637" height="1272"/>
        <path fill="none" stroke="rgb(0,0,255)" d="M 18780,12430 L 18270,11410"/>
        <path fill="rgb(0,0,255)" stroke="none" d="M 18145,11495 L 18145,11160 18413,11361 18145,11495 Z"/>
       </g>
      </g>
      <g class="com.sun.star.drawing.LineShape">
       <g id="id26">
        <rect class="BoundingBox" stroke="none" fill="none" x="18780" y="12430" width="637" height="1272"/>
        <path fill="none" stroke="rgb(0,0,255)" d="M 19415,13700 L 18905,12680"/>
        <path fill="rgb(0,0,255)" stroke="none" d="M 18780,12765 L 18780,12430 19048,12631 18780,12765 Z"/>
       </g>
      </g>
      <g class="com.sun.star.drawing.LineShape">
       <g id="id27">
        <rect class="BoundingBox" stroke="none" fill="none" x="19415" y="13700" width="637" height="1272"/>
        <path fill="none" stroke="rgb(0,0,255)" d="M 20050,14970 L 19540,13950"/>
        <path fill="rgb(0,0,255)" stroke="none" d="M 19415,14035 L 19415,13700 19683,13901 19415,14035 Z"/>
       </g>
      </g>
      <g class="com.sun.star.drawing.LineShape">
       <g id="id28">
        <rect class="BoundingBox" stroke="none" fill="none" x="17359" y="12430" width="303" height="1272"/>
        <g style="opacity: 0.898039215686275">
         <path fill="none" stroke="rgb(0,0,255)" d="M 17510,13700 L 17510,12711"/>
         <path fill="rgb(0,0,255)" stroke="none" d="M 17360,12731 L 17510,12430 17661,12731 17360,12731 Z"/>
        </g>
       </g>
      </g>
      <g class="com.sun.star.drawing.LineShape">
       <g id="id29">
        <rect class="BoundingBox" stroke="none" fill="none" x="17509" y="12429" width="2542" height="2542"/>
        <g style="opacity: 0.898039215686275">
         <path fill="none" stroke="rgb(255,7,9)" d="M 17510,12430 L 19851,14771"/>
         <path fill="rgb(255,7,9)" stroke="none" d="M 19944,14651 L 20050,14970 19731,14864 19944,14651 Z"/>
        </g>
       </g>
      </g>
      <g class="com.sun.star.drawing.LineShape">
       <g id="id30">
        <rect class="BoundingBox" stroke="none" fill="none" x="17510" y="13700" width="2542" height="1272"/>
        <path fill="none" stroke="rgb(0,0,255)" d="M 20050,14970 L 17760,13825"/>
        <path fill="rgb(0,0,255)" stroke="none" d="M 17711,13968 L 17510,13700 17845,13700 17711,13968 Z"/>
       </g>
      </g>
      <g class="com.sun.star.drawing.LineShape">
       <g id="id31">
        <rect class="BoundingBox" stroke="none" fill="none" x="14970" y="11160" width="2542" height="1272"/>
        <path fill="none" stroke="rgb(0,0,255)" d="M 17510,12430 L 15220,11285"/>
        <path fill="rgb(0,0,255)" stroke="none" d="M 15171,11428 L 14970,11160 15305,11160 15171,11428 Z"/>
       </g>
      </g>
      <g class="com.sun.star.drawing.LineShape">
       <g id="id32">
        <rect class="BoundingBox" stroke="none" fill="none" x="11159" y="14970" width="638" height="1272"/>
        <path fill="none" stroke="rgb(0,0,255)" d="M 11795,16240 L 11285,15220"/>
        <path fill="rgb(0,0,255)" stroke="none" d="M 11160,15305 L 11160,14970 11428,15171 11160,15305 Z"/>
       </g>
      </g>
      <g class="com.sun.star.drawing.LineShape">
       <g id="id33">
        <rect class="BoundingBox" stroke="none" fill="none" x="15604" y="6080" width="638" height="1272"/>
        <path fill="none" stroke="rgb(0,0,255)" d="M 16240,7350 L 15730,6330"/>
        <path fill="rgb(0,0,255)" stroke="none" d="M 15605,6415 L 15605,6080 15873,6281 15605,6415 Z"/>
       </g>
      </g>
      <g class="com.sun.star.drawing.LineShape">
       <g id="id34">
        <rect class="BoundingBox" stroke="none" fill="none" x="11794" y="14867" width="8257" height="1375"/>
        <path fill="none" stroke="rgb(0,0,255)" d="M 11795,16240 L 19773,15013"/>
        <path fill="rgb(0,0,255)" stroke="none" d="M 19731,14867 L 20050,14970 19776,15164 19731,14867 Z"/>
       </g>
      </g>
      <g class="com.sun.star.drawing.LineShape">
       <g id="id35">
        <rect class="BoundingBox" stroke="none" fill="none" x="7349" y="5977" width="8257" height="1375"/>
        <path fill="none" stroke="rgb(0,0,255)" d="M 7350,7350 L 15328,6123"/>
        <path fill="rgb(0,0,255)" stroke="none" d="M 15286,5977 L 15605,6080 15331,6274 15286,5977 Z"/>
       </g>
      </g>
     </g>
    </g>
   </g>
  </g>
 </g>
</svg>